%TF.GenerationSoftware,KiCad,Pcbnew,6.0.4*%
%TF.CreationDate,2022-04-14T12:40:58+02:00*%
%TF.ProjectId,esp32-s2-mini-1,65737033-322d-4733-922d-6d696e692d31,rev?*%
%TF.SameCoordinates,Original*%
%TF.FileFunction,Legend,Bot*%
%TF.FilePolarity,Positive*%
%FSLAX46Y46*%
G04 Gerber Fmt 4.6, Leading zero omitted, Abs format (unit mm)*
G04 Created by KiCad (PCBNEW 6.0.4) date 2022-04-14 12:40:58*
%MOMM*%
%LPD*%
G01*
G04 APERTURE LIST*
%ADD10C,0.150000*%
%ADD11C,0.250000*%
%ADD12C,0.200000*%
%ADD13C,0.120000*%
%ADD14C,0.010000*%
G04 APERTURE END LIST*
D10*
X141238095Y-118252380D02*
X141238095Y-118709523D01*
X141238095Y-118480952D02*
X142038095Y-118480952D01*
X141923809Y-118557142D01*
X141847619Y-118633333D01*
X141809523Y-118709523D01*
X141961904Y-117947619D02*
X142000000Y-117909523D01*
X142038095Y-117833333D01*
X142038095Y-117642857D01*
X142000000Y-117566666D01*
X141961904Y-117528571D01*
X141885714Y-117490476D01*
X141809523Y-117490476D01*
X141695238Y-117528571D01*
X141238095Y-117985714D01*
X141238095Y-117490476D01*
X161000000Y-133959523D02*
X161038095Y-134035714D01*
X161038095Y-134150000D01*
X161000000Y-134264285D01*
X160923809Y-134340476D01*
X160847619Y-134378571D01*
X160695238Y-134416666D01*
X160580952Y-134416666D01*
X160428571Y-134378571D01*
X160352380Y-134340476D01*
X160276190Y-134264285D01*
X160238095Y-134150000D01*
X160238095Y-134073809D01*
X160276190Y-133959523D01*
X160314285Y-133921428D01*
X160580952Y-133921428D01*
X160580952Y-134073809D01*
X160238095Y-133578571D02*
X161038095Y-133578571D01*
X160238095Y-133121428D01*
X161038095Y-133121428D01*
X160238095Y-132740476D02*
X161038095Y-132740476D01*
X161038095Y-132550000D01*
X161000000Y-132435714D01*
X160923809Y-132359523D01*
X160847619Y-132321428D01*
X160695238Y-132283333D01*
X160580952Y-132283333D01*
X160428571Y-132321428D01*
X160352380Y-132359523D01*
X160276190Y-132435714D01*
X160238095Y-132550000D01*
X160238095Y-132740476D01*
D11*
X151249681Y-124700000D02*
X152249681Y-124700000D01*
X152249681Y-124461904D01*
X152202062Y-124319047D01*
X152106823Y-124223809D01*
X152011585Y-124176190D01*
X151821109Y-124128571D01*
X151678252Y-124128571D01*
X151487776Y-124176190D01*
X151392538Y-124223809D01*
X151297300Y-124319047D01*
X151249681Y-124461904D01*
X151249681Y-124700000D01*
X151773490Y-123700000D02*
X151773490Y-123366666D01*
X151249681Y-123223809D02*
X151249681Y-123700000D01*
X152249681Y-123700000D01*
X152249681Y-123223809D01*
X151297300Y-122842857D02*
X151249681Y-122700000D01*
X151249681Y-122461904D01*
X151297300Y-122366666D01*
X151344919Y-122319047D01*
X151440157Y-122271428D01*
X151535395Y-122271428D01*
X151630633Y-122319047D01*
X151678252Y-122366666D01*
X151725871Y-122461904D01*
X151773490Y-122652380D01*
X151821109Y-122747619D01*
X151868728Y-122795238D01*
X151963966Y-122842857D01*
X152059204Y-122842857D01*
X152154442Y-122795238D01*
X152202062Y-122747619D01*
X152249681Y-122652380D01*
X152249681Y-122414285D01*
X152202062Y-122271428D01*
X151249681Y-121842857D02*
X152249681Y-121842857D01*
X152202062Y-120842857D02*
X152249681Y-120938095D01*
X152249681Y-121080952D01*
X152202062Y-121223809D01*
X152106823Y-121319047D01*
X152011585Y-121366666D01*
X151821109Y-121414285D01*
X151678252Y-121414285D01*
X151487776Y-121366666D01*
X151392538Y-121319047D01*
X151297300Y-121223809D01*
X151249681Y-121080952D01*
X151249681Y-120985714D01*
X151297300Y-120842857D01*
X151344919Y-120795238D01*
X151678252Y-120795238D01*
X151678252Y-120985714D01*
X151249681Y-120366666D02*
X152249681Y-120366666D01*
X151249681Y-119795238D01*
X152249681Y-119795238D01*
X151773490Y-119319047D02*
X151773490Y-118985714D01*
X151249681Y-118842857D02*
X151249681Y-119319047D01*
X152249681Y-119319047D01*
X152249681Y-118842857D01*
X151249681Y-118414285D02*
X152249681Y-118414285D01*
X152249681Y-118176190D01*
X152202062Y-118033333D01*
X152106823Y-117938095D01*
X152011585Y-117890476D01*
X151821109Y-117842857D01*
X151678252Y-117842857D01*
X151487776Y-117890476D01*
X151392538Y-117938095D01*
X151297300Y-118033333D01*
X151249681Y-118176190D01*
X151249681Y-118414285D01*
X152249681Y-116747619D02*
X151249681Y-116509523D01*
X151963966Y-116319047D01*
X151249681Y-116128571D01*
X152249681Y-115890476D01*
X151249681Y-115509523D02*
X152249681Y-115509523D01*
X152249681Y-115176190D02*
X152249681Y-114604761D01*
X151249681Y-114890476D02*
X152249681Y-114890476D01*
X151249681Y-114271428D02*
X152249681Y-114271428D01*
X151773490Y-114271428D02*
X151773490Y-113700000D01*
X151249681Y-113700000D02*
X152249681Y-113700000D01*
D10*
X142038095Y-100209523D02*
X142038095Y-100590476D01*
X141657142Y-100628571D01*
X141695238Y-100590476D01*
X141733333Y-100514285D01*
X141733333Y-100323809D01*
X141695238Y-100247619D01*
X141657142Y-100209523D01*
X141580952Y-100171428D01*
X141390476Y-100171428D01*
X141314285Y-100209523D01*
X141276190Y-100247619D01*
X141238095Y-100323809D01*
X141238095Y-100514285D01*
X141276190Y-100590476D01*
X141314285Y-100628571D01*
X141238095Y-113152380D02*
X141238095Y-113609523D01*
X141238095Y-113380952D02*
X142038095Y-113380952D01*
X141923809Y-113457142D01*
X141847619Y-113533333D01*
X141809523Y-113609523D01*
X142038095Y-112657142D02*
X142038095Y-112580952D01*
X142000000Y-112504761D01*
X141961904Y-112466666D01*
X141885714Y-112428571D01*
X141733333Y-112390476D01*
X141542857Y-112390476D01*
X141390476Y-112428571D01*
X141314285Y-112466666D01*
X141276190Y-112504761D01*
X141238095Y-112580952D01*
X141238095Y-112657142D01*
X141276190Y-112733333D01*
X141314285Y-112771428D01*
X141390476Y-112809523D01*
X141542857Y-112847619D01*
X141733333Y-112847619D01*
X141885714Y-112809523D01*
X141961904Y-112771428D01*
X142000000Y-112733333D01*
X142038095Y-112657142D01*
X160771428Y-100528571D02*
X160238095Y-100528571D01*
X161076190Y-100719047D02*
X160504761Y-100909523D01*
X160504761Y-100414285D01*
X160961904Y-100147619D02*
X161000000Y-100109523D01*
X161038095Y-100033333D01*
X161038095Y-99842857D01*
X161000000Y-99766666D01*
X160961904Y-99728571D01*
X160885714Y-99690476D01*
X160809523Y-99690476D01*
X160695238Y-99728571D01*
X160238095Y-100185714D01*
X160238095Y-99690476D01*
X141238095Y-120752380D02*
X141238095Y-121209523D01*
X141238095Y-120980952D02*
X142038095Y-120980952D01*
X141923809Y-121057142D01*
X141847619Y-121133333D01*
X141809523Y-121209523D01*
X142038095Y-120485714D02*
X142038095Y-119990476D01*
X141733333Y-120257142D01*
X141733333Y-120142857D01*
X141695238Y-120066666D01*
X141657142Y-120028571D01*
X141580952Y-119990476D01*
X141390476Y-119990476D01*
X141314285Y-120028571D01*
X141276190Y-120066666D01*
X141238095Y-120142857D01*
X141238095Y-120371428D01*
X141276190Y-120447619D01*
X141314285Y-120485714D01*
X160771428Y-105628571D02*
X160238095Y-105628571D01*
X161076190Y-105819047D02*
X160504761Y-106009523D01*
X160504761Y-105514285D01*
X161038095Y-105057142D02*
X161038095Y-104980952D01*
X161000000Y-104904761D01*
X160961904Y-104866666D01*
X160885714Y-104828571D01*
X160733333Y-104790476D01*
X160542857Y-104790476D01*
X160390476Y-104828571D01*
X160314285Y-104866666D01*
X160276190Y-104904761D01*
X160238095Y-104980952D01*
X160238095Y-105057142D01*
X160276190Y-105133333D01*
X160314285Y-105171428D01*
X160390476Y-105209523D01*
X160542857Y-105247619D01*
X160733333Y-105247619D01*
X160885714Y-105209523D01*
X160961904Y-105171428D01*
X161000000Y-105133333D01*
X161038095Y-105057142D01*
X161038095Y-113677619D02*
X161038095Y-113182380D01*
X160733333Y-113449047D01*
X160733333Y-113334761D01*
X160695238Y-113258571D01*
X160657142Y-113220476D01*
X160580952Y-113182380D01*
X160390476Y-113182380D01*
X160314285Y-113220476D01*
X160276190Y-113258571D01*
X160238095Y-113334761D01*
X160238095Y-113563333D01*
X160276190Y-113639523D01*
X160314285Y-113677619D01*
X161038095Y-112915714D02*
X161038095Y-112382380D01*
X160238095Y-112725238D01*
X161038095Y-111137619D02*
X161038095Y-110642380D01*
X160733333Y-110909047D01*
X160733333Y-110794761D01*
X160695238Y-110718571D01*
X160657142Y-110680476D01*
X160580952Y-110642380D01*
X160390476Y-110642380D01*
X160314285Y-110680476D01*
X160276190Y-110718571D01*
X160238095Y-110794761D01*
X160238095Y-111023333D01*
X160276190Y-111099523D01*
X160314285Y-111137619D01*
X160695238Y-110185238D02*
X160733333Y-110261428D01*
X160771428Y-110299523D01*
X160847619Y-110337619D01*
X160885714Y-110337619D01*
X160961904Y-110299523D01*
X161000000Y-110261428D01*
X161038095Y-110185238D01*
X161038095Y-110032857D01*
X161000000Y-109956666D01*
X160961904Y-109918571D01*
X160885714Y-109880476D01*
X160847619Y-109880476D01*
X160771428Y-109918571D01*
X160733333Y-109956666D01*
X160695238Y-110032857D01*
X160695238Y-110185238D01*
X160657142Y-110261428D01*
X160619047Y-110299523D01*
X160542857Y-110337619D01*
X160390476Y-110337619D01*
X160314285Y-110299523D01*
X160276190Y-110261428D01*
X160238095Y-110185238D01*
X160238095Y-110032857D01*
X160276190Y-109956666D01*
X160314285Y-109918571D01*
X160390476Y-109880476D01*
X160542857Y-109880476D01*
X160619047Y-109918571D01*
X160657142Y-109956666D01*
X160695238Y-110032857D01*
X141238095Y-125852380D02*
X141238095Y-126309523D01*
X141238095Y-126080952D02*
X142038095Y-126080952D01*
X141923809Y-126157142D01*
X141847619Y-126233333D01*
X141809523Y-126309523D01*
X142038095Y-125128571D02*
X142038095Y-125509523D01*
X141657142Y-125547619D01*
X141695238Y-125509523D01*
X141733333Y-125433333D01*
X141733333Y-125242857D01*
X141695238Y-125166666D01*
X141657142Y-125128571D01*
X141580952Y-125090476D01*
X141390476Y-125090476D01*
X141314285Y-125128571D01*
X141276190Y-125166666D01*
X141238095Y-125242857D01*
X141238095Y-125433333D01*
X141276190Y-125509523D01*
X141314285Y-125547619D01*
X160771428Y-103098571D02*
X160238095Y-103098571D01*
X161076190Y-103289047D02*
X160504761Y-103479523D01*
X160504761Y-102984285D01*
X160238095Y-102260476D02*
X160238095Y-102717619D01*
X160238095Y-102489047D02*
X161038095Y-102489047D01*
X160923809Y-102565238D01*
X160847619Y-102641428D01*
X160809523Y-102717619D01*
X142038095Y-105666666D02*
X142038095Y-105133333D01*
X141238095Y-105476190D01*
X142038095Y-95566666D02*
X142038095Y-95071428D01*
X141733333Y-95338095D01*
X141733333Y-95223809D01*
X141695238Y-95147619D01*
X141657142Y-95109523D01*
X141580952Y-95071428D01*
X141390476Y-95071428D01*
X141314285Y-95109523D01*
X141276190Y-95147619D01*
X141238095Y-95223809D01*
X141238095Y-95452380D01*
X141276190Y-95528571D01*
X141314285Y-95566666D01*
X160238095Y-125882380D02*
X160238095Y-126339523D01*
X160238095Y-126110952D02*
X161038095Y-126110952D01*
X160923809Y-126187142D01*
X160847619Y-126263333D01*
X160809523Y-126339523D01*
X160695238Y-125425238D02*
X160733333Y-125501428D01*
X160771428Y-125539523D01*
X160847619Y-125577619D01*
X160885714Y-125577619D01*
X160961904Y-125539523D01*
X161000000Y-125501428D01*
X161038095Y-125425238D01*
X161038095Y-125272857D01*
X161000000Y-125196666D01*
X160961904Y-125158571D01*
X160885714Y-125120476D01*
X160847619Y-125120476D01*
X160771428Y-125158571D01*
X160733333Y-125196666D01*
X160695238Y-125272857D01*
X160695238Y-125425238D01*
X160657142Y-125501428D01*
X160619047Y-125539523D01*
X160542857Y-125577619D01*
X160390476Y-125577619D01*
X160314285Y-125539523D01*
X160276190Y-125501428D01*
X160238095Y-125425238D01*
X160238095Y-125272857D01*
X160276190Y-125196666D01*
X160314285Y-125158571D01*
X160390476Y-125120476D01*
X160542857Y-125120476D01*
X160619047Y-125158571D01*
X160657142Y-125196666D01*
X160695238Y-125272857D01*
X142038095Y-85709523D02*
X142038095Y-85214285D01*
X141733333Y-85480952D01*
X141733333Y-85366666D01*
X141695238Y-85290476D01*
X141657142Y-85252380D01*
X141580952Y-85214285D01*
X141390476Y-85214285D01*
X141314285Y-85252380D01*
X141276190Y-85290476D01*
X141238095Y-85366666D01*
X141238095Y-85595238D01*
X141276190Y-85671428D01*
X141314285Y-85709523D01*
X142038095Y-84985714D02*
X141238095Y-84719047D01*
X142038095Y-84452380D01*
X141238095Y-123252380D02*
X141238095Y-123709523D01*
X141238095Y-123480952D02*
X142038095Y-123480952D01*
X141923809Y-123557142D01*
X141847619Y-123633333D01*
X141809523Y-123709523D01*
X141771428Y-122566666D02*
X141238095Y-122566666D01*
X142076190Y-122757142D02*
X141504761Y-122947619D01*
X141504761Y-122452380D01*
X160771428Y-90328571D02*
X160238095Y-90328571D01*
X161076190Y-90519047D02*
X160504761Y-90709523D01*
X160504761Y-90214285D01*
X161038095Y-89566666D02*
X161038095Y-89719047D01*
X161000000Y-89795238D01*
X160961904Y-89833333D01*
X160847619Y-89909523D01*
X160695238Y-89947619D01*
X160390476Y-89947619D01*
X160314285Y-89909523D01*
X160276190Y-89871428D01*
X160238095Y-89795238D01*
X160238095Y-89642857D01*
X160276190Y-89566666D01*
X160314285Y-89528571D01*
X160390476Y-89490476D01*
X160580952Y-89490476D01*
X160657142Y-89528571D01*
X160695238Y-89566666D01*
X160733333Y-89642857D01*
X160733333Y-89795238D01*
X160695238Y-89871428D01*
X160657142Y-89909523D01*
X160580952Y-89947619D01*
X161038095Y-108597619D02*
X161038095Y-108102380D01*
X160733333Y-108369047D01*
X160733333Y-108254761D01*
X160695238Y-108178571D01*
X160657142Y-108140476D01*
X160580952Y-108102380D01*
X160390476Y-108102380D01*
X160314285Y-108140476D01*
X160276190Y-108178571D01*
X160238095Y-108254761D01*
X160238095Y-108483333D01*
X160276190Y-108559523D01*
X160314285Y-108597619D01*
X160238095Y-107721428D02*
X160238095Y-107569047D01*
X160276190Y-107492857D01*
X160314285Y-107454761D01*
X160428571Y-107378571D01*
X160580952Y-107340476D01*
X160885714Y-107340476D01*
X160961904Y-107378571D01*
X161000000Y-107416666D01*
X161038095Y-107492857D01*
X161038095Y-107645238D01*
X161000000Y-107721428D01*
X160961904Y-107759523D01*
X160885714Y-107797619D01*
X160695238Y-107797619D01*
X160619047Y-107759523D01*
X160580952Y-107721428D01*
X160542857Y-107645238D01*
X160542857Y-107492857D01*
X160580952Y-107416666D01*
X160619047Y-107378571D01*
X160695238Y-107340476D01*
X141771428Y-97647619D02*
X141238095Y-97647619D01*
X142076190Y-97838095D02*
X141504761Y-98028571D01*
X141504761Y-97533333D01*
X142038095Y-128452380D02*
X142038095Y-128833333D01*
X141657142Y-128871428D01*
X141695238Y-128833333D01*
X141733333Y-128757142D01*
X141733333Y-128566666D01*
X141695238Y-128490476D01*
X141657142Y-128452380D01*
X141580952Y-128414285D01*
X141390476Y-128414285D01*
X141314285Y-128452380D01*
X141276190Y-128490476D01*
X141238095Y-128566666D01*
X141238095Y-128757142D01*
X141276190Y-128833333D01*
X141314285Y-128871428D01*
X142038095Y-128185714D02*
X141238095Y-127919047D01*
X142038095Y-127652380D01*
X161038095Y-98399523D02*
X161038095Y-97942380D01*
X160238095Y-98170952D02*
X161038095Y-98170952D01*
X161038095Y-97751904D02*
X160238095Y-97218571D01*
X161038095Y-97218571D02*
X160238095Y-97751904D01*
X161038095Y-123837619D02*
X161038095Y-123342380D01*
X160733333Y-123609047D01*
X160733333Y-123494761D01*
X160695238Y-123418571D01*
X160657142Y-123380476D01*
X160580952Y-123342380D01*
X160390476Y-123342380D01*
X160314285Y-123380476D01*
X160276190Y-123418571D01*
X160238095Y-123494761D01*
X160238095Y-123723333D01*
X160276190Y-123799523D01*
X160314285Y-123837619D01*
X161038095Y-123075714D02*
X161038095Y-122580476D01*
X160733333Y-122847142D01*
X160733333Y-122732857D01*
X160695238Y-122656666D01*
X160657142Y-122618571D01*
X160580952Y-122580476D01*
X160390476Y-122580476D01*
X160314285Y-122618571D01*
X160276190Y-122656666D01*
X160238095Y-122732857D01*
X160238095Y-122961428D01*
X160276190Y-123037619D01*
X160314285Y-123075714D01*
X142000000Y-134009523D02*
X142038095Y-134085714D01*
X142038095Y-134200000D01*
X142000000Y-134314285D01*
X141923809Y-134390476D01*
X141847619Y-134428571D01*
X141695238Y-134466666D01*
X141580952Y-134466666D01*
X141428571Y-134428571D01*
X141352380Y-134390476D01*
X141276190Y-134314285D01*
X141238095Y-134200000D01*
X141238095Y-134123809D01*
X141276190Y-134009523D01*
X141314285Y-133971428D01*
X141580952Y-133971428D01*
X141580952Y-134123809D01*
X141238095Y-133628571D02*
X142038095Y-133628571D01*
X141238095Y-133171428D01*
X142038095Y-133171428D01*
X141238095Y-132790476D02*
X142038095Y-132790476D01*
X142038095Y-132600000D01*
X142000000Y-132485714D01*
X141923809Y-132409523D01*
X141847619Y-132371428D01*
X141695238Y-132333333D01*
X141580952Y-132333333D01*
X141428571Y-132371428D01*
X141352380Y-132409523D01*
X141276190Y-132485714D01*
X141238095Y-132600000D01*
X141238095Y-132790476D01*
X160238095Y-128422380D02*
X160238095Y-128879523D01*
X160238095Y-128650952D02*
X161038095Y-128650952D01*
X160923809Y-128727142D01*
X160847619Y-128803333D01*
X160809523Y-128879523D01*
X161038095Y-128155714D02*
X161038095Y-127622380D01*
X160238095Y-127965238D01*
X160238095Y-88068095D02*
X160619047Y-88334761D01*
X160238095Y-88525238D02*
X161038095Y-88525238D01*
X161038095Y-88220476D01*
X161000000Y-88144285D01*
X160961904Y-88106190D01*
X160885714Y-88068095D01*
X160771428Y-88068095D01*
X160695238Y-88106190D01*
X160657142Y-88144285D01*
X160619047Y-88220476D01*
X160619047Y-88525238D01*
X160276190Y-87763333D02*
X160238095Y-87649047D01*
X160238095Y-87458571D01*
X160276190Y-87382380D01*
X160314285Y-87344285D01*
X160390476Y-87306190D01*
X160466666Y-87306190D01*
X160542857Y-87344285D01*
X160580952Y-87382380D01*
X160619047Y-87458571D01*
X160657142Y-87610952D01*
X160695238Y-87687142D01*
X160733333Y-87725238D01*
X160809523Y-87763333D01*
X160885714Y-87763333D01*
X160961904Y-87725238D01*
X161000000Y-87687142D01*
X161038095Y-87610952D01*
X161038095Y-87420476D01*
X161000000Y-87306190D01*
X161038095Y-87077619D02*
X161038095Y-86620476D01*
X160238095Y-86849047D02*
X161038095Y-86849047D01*
X161038095Y-116217619D02*
X161038095Y-115722380D01*
X160733333Y-115989047D01*
X160733333Y-115874761D01*
X160695238Y-115798571D01*
X160657142Y-115760476D01*
X160580952Y-115722380D01*
X160390476Y-115722380D01*
X160314285Y-115760476D01*
X160276190Y-115798571D01*
X160238095Y-115874761D01*
X160238095Y-116103333D01*
X160276190Y-116179523D01*
X160314285Y-116217619D01*
X161038095Y-115036666D02*
X161038095Y-115189047D01*
X161000000Y-115265238D01*
X160961904Y-115303333D01*
X160847619Y-115379523D01*
X160695238Y-115417619D01*
X160390476Y-115417619D01*
X160314285Y-115379523D01*
X160276190Y-115341428D01*
X160238095Y-115265238D01*
X160238095Y-115112857D01*
X160276190Y-115036666D01*
X160314285Y-114998571D01*
X160390476Y-114960476D01*
X160580952Y-114960476D01*
X160657142Y-114998571D01*
X160695238Y-115036666D01*
X160733333Y-115112857D01*
X160733333Y-115265238D01*
X160695238Y-115341428D01*
X160657142Y-115379523D01*
X160580952Y-115417619D01*
X142038095Y-102747619D02*
X142038095Y-102900000D01*
X142000000Y-102976190D01*
X141961904Y-103014285D01*
X141847619Y-103090476D01*
X141695238Y-103128571D01*
X141390476Y-103128571D01*
X141314285Y-103090476D01*
X141276190Y-103052380D01*
X141238095Y-102976190D01*
X141238095Y-102823809D01*
X141276190Y-102747619D01*
X141314285Y-102709523D01*
X141390476Y-102671428D01*
X141580952Y-102671428D01*
X141657142Y-102709523D01*
X141695238Y-102747619D01*
X141733333Y-102823809D01*
X141733333Y-102976190D01*
X141695238Y-103052380D01*
X141657142Y-103090476D01*
X141580952Y-103128571D01*
X141238095Y-110652380D02*
X141238095Y-110500000D01*
X141276190Y-110423809D01*
X141314285Y-110385714D01*
X141428571Y-110309523D01*
X141580952Y-110271428D01*
X141885714Y-110271428D01*
X141961904Y-110309523D01*
X142000000Y-110347619D01*
X142038095Y-110423809D01*
X142038095Y-110576190D01*
X142000000Y-110652380D01*
X141961904Y-110690476D01*
X141885714Y-110728571D01*
X141695238Y-110728571D01*
X141619047Y-110690476D01*
X141580952Y-110652380D01*
X141542857Y-110576190D01*
X141542857Y-110423809D01*
X141580952Y-110347619D01*
X141619047Y-110309523D01*
X141695238Y-110271428D01*
X161038095Y-118757619D02*
X161038095Y-118262380D01*
X160733333Y-118529047D01*
X160733333Y-118414761D01*
X160695238Y-118338571D01*
X160657142Y-118300476D01*
X160580952Y-118262380D01*
X160390476Y-118262380D01*
X160314285Y-118300476D01*
X160276190Y-118338571D01*
X160238095Y-118414761D01*
X160238095Y-118643333D01*
X160276190Y-118719523D01*
X160314285Y-118757619D01*
X161038095Y-117538571D02*
X161038095Y-117919523D01*
X160657142Y-117957619D01*
X160695238Y-117919523D01*
X160733333Y-117843333D01*
X160733333Y-117652857D01*
X160695238Y-117576666D01*
X160657142Y-117538571D01*
X160580952Y-117500476D01*
X160390476Y-117500476D01*
X160314285Y-117538571D01*
X160276190Y-117576666D01*
X160238095Y-117652857D01*
X160238095Y-117843333D01*
X160276190Y-117919523D01*
X160314285Y-117957619D01*
X141238095Y-89971428D02*
X141238095Y-90428571D01*
X141238095Y-90200000D02*
X142038095Y-90200000D01*
X141923809Y-90276190D01*
X141847619Y-90352380D01*
X141809523Y-90428571D01*
X160238095Y-95383333D02*
X160619047Y-95650000D01*
X160238095Y-95840476D02*
X161038095Y-95840476D01*
X161038095Y-95535714D01*
X161000000Y-95459523D01*
X160961904Y-95421428D01*
X160885714Y-95383333D01*
X160771428Y-95383333D01*
X160695238Y-95421428D01*
X160657142Y-95459523D01*
X160619047Y-95535714D01*
X160619047Y-95840476D01*
X161038095Y-95116666D02*
X160238095Y-94583333D01*
X161038095Y-94583333D02*
X160238095Y-95116666D01*
X141961904Y-92928571D02*
X142000000Y-92890476D01*
X142038095Y-92814285D01*
X142038095Y-92623809D01*
X142000000Y-92547619D01*
X141961904Y-92509523D01*
X141885714Y-92471428D01*
X141809523Y-92471428D01*
X141695238Y-92509523D01*
X141238095Y-92966666D01*
X141238095Y-92471428D01*
X161000000Y-131419523D02*
X161038095Y-131495714D01*
X161038095Y-131610000D01*
X161000000Y-131724285D01*
X160923809Y-131800476D01*
X160847619Y-131838571D01*
X160695238Y-131876666D01*
X160580952Y-131876666D01*
X160428571Y-131838571D01*
X160352380Y-131800476D01*
X160276190Y-131724285D01*
X160238095Y-131610000D01*
X160238095Y-131533809D01*
X160276190Y-131419523D01*
X160314285Y-131381428D01*
X160580952Y-131381428D01*
X160580952Y-131533809D01*
X160238095Y-131038571D02*
X161038095Y-131038571D01*
X160238095Y-130581428D01*
X161038095Y-130581428D01*
X160238095Y-130200476D02*
X161038095Y-130200476D01*
X161038095Y-130010000D01*
X161000000Y-129895714D01*
X160923809Y-129819523D01*
X160847619Y-129781428D01*
X160695238Y-129743333D01*
X160580952Y-129743333D01*
X160428571Y-129781428D01*
X160352380Y-129819523D01*
X160276190Y-129895714D01*
X160238095Y-130010000D01*
X160238095Y-130200476D01*
X141695238Y-108076190D02*
X141733333Y-108152380D01*
X141771428Y-108190476D01*
X141847619Y-108228571D01*
X141885714Y-108228571D01*
X141961904Y-108190476D01*
X142000000Y-108152380D01*
X142038095Y-108076190D01*
X142038095Y-107923809D01*
X142000000Y-107847619D01*
X141961904Y-107809523D01*
X141885714Y-107771428D01*
X141847619Y-107771428D01*
X141771428Y-107809523D01*
X141733333Y-107847619D01*
X141695238Y-107923809D01*
X141695238Y-108076190D01*
X141657142Y-108152380D01*
X141619047Y-108190476D01*
X141542857Y-108228571D01*
X141390476Y-108228571D01*
X141314285Y-108190476D01*
X141276190Y-108152380D01*
X141238095Y-108076190D01*
X141238095Y-107923809D01*
X141276190Y-107847619D01*
X141314285Y-107809523D01*
X141390476Y-107771428D01*
X141542857Y-107771428D01*
X141619047Y-107809523D01*
X141657142Y-107847619D01*
X141695238Y-107923809D01*
X141238095Y-115652380D02*
X141238095Y-116109523D01*
X141238095Y-115880952D02*
X142038095Y-115880952D01*
X141923809Y-115957142D01*
X141847619Y-116033333D01*
X141809523Y-116109523D01*
X141238095Y-114890476D02*
X141238095Y-115347619D01*
X141238095Y-115119047D02*
X142038095Y-115119047D01*
X141923809Y-115195238D01*
X141847619Y-115271428D01*
X141809523Y-115347619D01*
X161038095Y-121297619D02*
X161038095Y-120802380D01*
X160733333Y-121069047D01*
X160733333Y-120954761D01*
X160695238Y-120878571D01*
X160657142Y-120840476D01*
X160580952Y-120802380D01*
X160390476Y-120802380D01*
X160314285Y-120840476D01*
X160276190Y-120878571D01*
X160238095Y-120954761D01*
X160238095Y-121183333D01*
X160276190Y-121259523D01*
X160314285Y-121297619D01*
X160771428Y-120116666D02*
X160238095Y-120116666D01*
X161076190Y-120307142D02*
X160504761Y-120497619D01*
X160504761Y-120002380D01*
D12*
X149338095Y-124628571D02*
X150138095Y-124628571D01*
X149833333Y-124628571D02*
X149871428Y-124552380D01*
X149871428Y-124400000D01*
X149833333Y-124323809D01*
X149795238Y-124285714D01*
X149719047Y-124247619D01*
X149490476Y-124247619D01*
X149414285Y-124285714D01*
X149376190Y-124323809D01*
X149338095Y-124400000D01*
X149338095Y-124552380D01*
X149376190Y-124628571D01*
X149871428Y-123980952D02*
X149338095Y-123790476D01*
X149871428Y-123600000D02*
X149338095Y-123790476D01*
X149147619Y-123866666D01*
X149109523Y-123904761D01*
X149071428Y-123980952D01*
X149338095Y-122685714D02*
X150138095Y-122685714D01*
X149833333Y-122685714D02*
X149871428Y-122609523D01*
X149871428Y-122457142D01*
X149833333Y-122380952D01*
X149795238Y-122342857D01*
X149719047Y-122304761D01*
X149490476Y-122304761D01*
X149414285Y-122342857D01*
X149376190Y-122380952D01*
X149338095Y-122457142D01*
X149338095Y-122609523D01*
X149376190Y-122685714D01*
X149338095Y-121847619D02*
X149376190Y-121923809D01*
X149452380Y-121961904D01*
X150138095Y-121961904D01*
X149871428Y-121200000D02*
X149338095Y-121200000D01*
X149871428Y-121542857D02*
X149452380Y-121542857D01*
X149376190Y-121504761D01*
X149338095Y-121428571D01*
X149338095Y-121314285D01*
X149376190Y-121238095D01*
X149414285Y-121200000D01*
X149338095Y-120819047D02*
X149871428Y-120819047D01*
X149719047Y-120819047D02*
X149795238Y-120780952D01*
X149833333Y-120742857D01*
X149871428Y-120666666D01*
X149871428Y-120590476D01*
X149871428Y-120323809D02*
X149071428Y-120323809D01*
X149833333Y-120323809D02*
X149871428Y-120247619D01*
X149871428Y-120095238D01*
X149833333Y-120019047D01*
X149795238Y-119980952D01*
X149719047Y-119942857D01*
X149490476Y-119942857D01*
X149414285Y-119980952D01*
X149376190Y-120019047D01*
X149338095Y-120095238D01*
X149338095Y-120247619D01*
X149376190Y-120323809D01*
X149871428Y-119676190D02*
X149338095Y-119485714D01*
X149871428Y-119295238D02*
X149338095Y-119485714D01*
X149147619Y-119561904D01*
X149109523Y-119600000D01*
X149071428Y-119676190D01*
D10*
X142000000Y-131409523D02*
X142038095Y-131485714D01*
X142038095Y-131600000D01*
X142000000Y-131714285D01*
X141923809Y-131790476D01*
X141847619Y-131828571D01*
X141695238Y-131866666D01*
X141580952Y-131866666D01*
X141428571Y-131828571D01*
X141352380Y-131790476D01*
X141276190Y-131714285D01*
X141238095Y-131600000D01*
X141238095Y-131523809D01*
X141276190Y-131409523D01*
X141314285Y-131371428D01*
X141580952Y-131371428D01*
X141580952Y-131523809D01*
X141238095Y-131028571D02*
X142038095Y-131028571D01*
X141238095Y-130571428D01*
X142038095Y-130571428D01*
X141238095Y-130190476D02*
X142038095Y-130190476D01*
X142038095Y-130000000D01*
X142000000Y-129885714D01*
X141923809Y-129809523D01*
X141847619Y-129771428D01*
X141695238Y-129733333D01*
X141580952Y-129733333D01*
X141428571Y-129771428D01*
X141352380Y-129809523D01*
X141276190Y-129885714D01*
X141238095Y-130000000D01*
X141238095Y-130190476D01*
X160771428Y-92928571D02*
X160238095Y-92928571D01*
X161076190Y-93119047D02*
X160504761Y-93309523D01*
X160504761Y-92814285D01*
X161038095Y-92128571D02*
X161038095Y-92509523D01*
X160657142Y-92547619D01*
X160695238Y-92509523D01*
X160733333Y-92433333D01*
X160733333Y-92242857D01*
X160695238Y-92166666D01*
X160657142Y-92128571D01*
X160580952Y-92090476D01*
X160390476Y-92090476D01*
X160314285Y-92128571D01*
X160276190Y-92166666D01*
X160238095Y-92242857D01*
X160238095Y-92433333D01*
X160276190Y-92509523D01*
X160314285Y-92547619D01*
X161000000Y-85709523D02*
X161038095Y-85785714D01*
X161038095Y-85900000D01*
X161000000Y-86014285D01*
X160923809Y-86090476D01*
X160847619Y-86128571D01*
X160695238Y-86166666D01*
X160580952Y-86166666D01*
X160428571Y-86128571D01*
X160352380Y-86090476D01*
X160276190Y-86014285D01*
X160238095Y-85900000D01*
X160238095Y-85823809D01*
X160276190Y-85709523D01*
X160314285Y-85671428D01*
X160580952Y-85671428D01*
X160580952Y-85823809D01*
X160238095Y-85328571D02*
X161038095Y-85328571D01*
X160238095Y-84871428D01*
X161038095Y-84871428D01*
X160238095Y-84490476D02*
X161038095Y-84490476D01*
X161038095Y-84300000D01*
X161000000Y-84185714D01*
X160923809Y-84109523D01*
X160847619Y-84071428D01*
X160695238Y-84033333D01*
X160580952Y-84033333D01*
X160428571Y-84071428D01*
X160352380Y-84109523D01*
X160276190Y-84185714D01*
X160238095Y-84300000D01*
X160238095Y-84490476D01*
%TO.C,J1*%
X140033333Y-82217380D02*
X140033333Y-82931666D01*
X140080952Y-83074523D01*
X140176190Y-83169761D01*
X140319047Y-83217380D01*
X140414285Y-83217380D01*
X139033333Y-83217380D02*
X139604761Y-83217380D01*
X139319047Y-83217380D02*
X139319047Y-82217380D01*
X139414285Y-82360238D01*
X139509523Y-82455476D01*
X139604761Y-82503095D01*
%TO.C,J3*%
X162893333Y-82217380D02*
X162893333Y-82931666D01*
X162940952Y-83074523D01*
X163036190Y-83169761D01*
X163179047Y-83217380D01*
X163274285Y-83217380D01*
X162512380Y-82217380D02*
X161893333Y-82217380D01*
X162226666Y-82598333D01*
X162083809Y-82598333D01*
X161988571Y-82645952D01*
X161940952Y-82693571D01*
X161893333Y-82788809D01*
X161893333Y-83026904D01*
X161940952Y-83122142D01*
X161988571Y-83169761D01*
X162083809Y-83217380D01*
X162369523Y-83217380D01*
X162464761Y-83169761D01*
X162512380Y-83122142D01*
D13*
%TO.C,U1*%
X141909800Y-87778514D02*
G75*
G03*
X141909800Y-87778514I-381000J0D01*
G01*
%TO.C,REF\u002A\u002A*%
G36*
X152467201Y-109507022D02*
G01*
X152379126Y-109511421D01*
X152340691Y-109510322D01*
X152256695Y-109497926D01*
X152190467Y-109470608D01*
X152139278Y-109426941D01*
X152100399Y-109365495D01*
X152082250Y-109305888D01*
X152078778Y-109231110D01*
X152092132Y-109155664D01*
X152121637Y-109088366D01*
X152138050Y-109063428D01*
X152159089Y-109035951D01*
X152172933Y-109023414D01*
X152178645Y-109024124D01*
X152198107Y-109038158D01*
X152221686Y-109064533D01*
X152256549Y-109110240D01*
X152229800Y-109163799D01*
X152223180Y-109178282D01*
X152208789Y-109220916D01*
X152203052Y-109256649D01*
X152207780Y-109282998D01*
X152230548Y-109324347D01*
X152265892Y-109359104D01*
X152306789Y-109378983D01*
X152341369Y-109387083D01*
X152341369Y-109265748D01*
X152454537Y-109265748D01*
X152454545Y-109284575D01*
X152454997Y-109333470D01*
X152456949Y-109362863D01*
X152461504Y-109377115D01*
X152469763Y-109380582D01*
X152482829Y-109377625D01*
X152484310Y-109377173D01*
X152529777Y-109351699D01*
X152561081Y-109311539D01*
X152572735Y-109263651D01*
X152571803Y-109245949D01*
X152560654Y-109213094D01*
X152532299Y-109181575D01*
X152522273Y-109173085D01*
X152493639Y-109153336D01*
X152473200Y-109145445D01*
X152470628Y-109145690D01*
X152462619Y-109152604D01*
X152457698Y-109172141D01*
X152455219Y-109208467D01*
X152454537Y-109265748D01*
X152341369Y-109265748D01*
X152341369Y-109007129D01*
X152407383Y-109007199D01*
X152428305Y-109007774D01*
X152478971Y-109012512D01*
X152520896Y-109020459D01*
X152544366Y-109029168D01*
X152595416Y-109059790D01*
X152641779Y-109100799D01*
X152673548Y-109144168D01*
X152679448Y-109156699D01*
X152699016Y-109229661D01*
X152696953Y-109304168D01*
X152674131Y-109374217D01*
X152631423Y-109433807D01*
X152592037Y-109466038D01*
X152536552Y-109492392D01*
X152469763Y-109506482D01*
X152467201Y-109507022D01*
G37*
D14*
X152467201Y-109507022D02*
X152379126Y-109511421D01*
X152340691Y-109510322D01*
X152256695Y-109497926D01*
X152190467Y-109470608D01*
X152139278Y-109426941D01*
X152100399Y-109365495D01*
X152082250Y-109305888D01*
X152078778Y-109231110D01*
X152092132Y-109155664D01*
X152121637Y-109088366D01*
X152138050Y-109063428D01*
X152159089Y-109035951D01*
X152172933Y-109023414D01*
X152178645Y-109024124D01*
X152198107Y-109038158D01*
X152221686Y-109064533D01*
X152256549Y-109110240D01*
X152229800Y-109163799D01*
X152223180Y-109178282D01*
X152208789Y-109220916D01*
X152203052Y-109256649D01*
X152207780Y-109282998D01*
X152230548Y-109324347D01*
X152265892Y-109359104D01*
X152306789Y-109378983D01*
X152341369Y-109387083D01*
X152341369Y-109265748D01*
X152454537Y-109265748D01*
X152454545Y-109284575D01*
X152454997Y-109333470D01*
X152456949Y-109362863D01*
X152461504Y-109377115D01*
X152469763Y-109380582D01*
X152482829Y-109377625D01*
X152484310Y-109377173D01*
X152529777Y-109351699D01*
X152561081Y-109311539D01*
X152572735Y-109263651D01*
X152571803Y-109245949D01*
X152560654Y-109213094D01*
X152532299Y-109181575D01*
X152522273Y-109173085D01*
X152493639Y-109153336D01*
X152473200Y-109145445D01*
X152470628Y-109145690D01*
X152462619Y-109152604D01*
X152457698Y-109172141D01*
X152455219Y-109208467D01*
X152454537Y-109265748D01*
X152341369Y-109265748D01*
X152341369Y-109007129D01*
X152407383Y-109007199D01*
X152428305Y-109007774D01*
X152478971Y-109012512D01*
X152520896Y-109020459D01*
X152544366Y-109029168D01*
X152595416Y-109059790D01*
X152641779Y-109100799D01*
X152673548Y-109144168D01*
X152679448Y-109156699D01*
X152699016Y-109229661D01*
X152696953Y-109304168D01*
X152674131Y-109374217D01*
X152631423Y-109433807D01*
X152592037Y-109466038D01*
X152536552Y-109492392D01*
X152469763Y-109506482D01*
X152467201Y-109507022D01*
G36*
X152333708Y-107600921D02*
G01*
X152382310Y-107621970D01*
X152417116Y-107659864D01*
X152440264Y-107717004D01*
X152453892Y-107795785D01*
X152454879Y-107804834D01*
X152461170Y-107853885D01*
X152467753Y-107893675D01*
X152473354Y-107916312D01*
X152477865Y-107923866D01*
X152501121Y-107936637D01*
X152530891Y-107934563D01*
X152556735Y-107917495D01*
X152562371Y-107908533D01*
X152571402Y-107871188D01*
X152570795Y-107822950D01*
X152561184Y-107772650D01*
X152543204Y-107729115D01*
X152516215Y-107683372D01*
X152557678Y-107647890D01*
X152568212Y-107639280D01*
X152596430Y-107619883D01*
X152615554Y-107611897D01*
X152627281Y-107620283D01*
X152645586Y-107646226D01*
X152665285Y-107683688D01*
X152667692Y-107688966D01*
X152686580Y-107738366D01*
X152695610Y-107785983D01*
X152697423Y-107845072D01*
X152693855Y-107898874D01*
X152675654Y-107971495D01*
X152641918Y-108024546D01*
X152592420Y-108058329D01*
X152526936Y-108073147D01*
X152464242Y-108070147D01*
X152411363Y-108048493D01*
X152372266Y-108006967D01*
X152346189Y-107944736D01*
X152332367Y-107860969D01*
X152325122Y-107806540D01*
X152309447Y-107756860D01*
X152286748Y-107731211D01*
X152257064Y-107729662D01*
X152238555Y-107739984D01*
X152216619Y-107771951D01*
X152206244Y-107817395D01*
X152207663Y-107870649D01*
X152221110Y-107926048D01*
X152246819Y-107977928D01*
X152281049Y-108029653D01*
X152235013Y-108075148D01*
X152188978Y-108120643D01*
X152158186Y-108082921D01*
X152147488Y-108068253D01*
X152123182Y-108026983D01*
X152102237Y-107982327D01*
X152090217Y-107946984D01*
X152081510Y-107895234D01*
X152081395Y-107831435D01*
X152090981Y-107753200D01*
X152115279Y-107682722D01*
X152153874Y-107632836D01*
X152206864Y-107603423D01*
X152274344Y-107594365D01*
X152333708Y-107600921D01*
G37*
X152333708Y-107600921D02*
X152382310Y-107621970D01*
X152417116Y-107659864D01*
X152440264Y-107717004D01*
X152453892Y-107795785D01*
X152454879Y-107804834D01*
X152461170Y-107853885D01*
X152467753Y-107893675D01*
X152473354Y-107916312D01*
X152477865Y-107923866D01*
X152501121Y-107936637D01*
X152530891Y-107934563D01*
X152556735Y-107917495D01*
X152562371Y-107908533D01*
X152571402Y-107871188D01*
X152570795Y-107822950D01*
X152561184Y-107772650D01*
X152543204Y-107729115D01*
X152516215Y-107683372D01*
X152557678Y-107647890D01*
X152568212Y-107639280D01*
X152596430Y-107619883D01*
X152615554Y-107611897D01*
X152627281Y-107620283D01*
X152645586Y-107646226D01*
X152665285Y-107683688D01*
X152667692Y-107688966D01*
X152686580Y-107738366D01*
X152695610Y-107785983D01*
X152697423Y-107845072D01*
X152693855Y-107898874D01*
X152675654Y-107971495D01*
X152641918Y-108024546D01*
X152592420Y-108058329D01*
X152526936Y-108073147D01*
X152464242Y-108070147D01*
X152411363Y-108048493D01*
X152372266Y-108006967D01*
X152346189Y-107944736D01*
X152332367Y-107860969D01*
X152325122Y-107806540D01*
X152309447Y-107756860D01*
X152286748Y-107731211D01*
X152257064Y-107729662D01*
X152238555Y-107739984D01*
X152216619Y-107771951D01*
X152206244Y-107817395D01*
X152207663Y-107870649D01*
X152221110Y-107926048D01*
X152246819Y-107977928D01*
X152281049Y-108029653D01*
X152235013Y-108075148D01*
X152188978Y-108120643D01*
X152158186Y-108082921D01*
X152147488Y-108068253D01*
X152123182Y-108026983D01*
X152102237Y-107982327D01*
X152090217Y-107946984D01*
X152081510Y-107895234D01*
X152081395Y-107831435D01*
X152090981Y-107753200D01*
X152115279Y-107682722D01*
X152153874Y-107632836D01*
X152206864Y-107603423D01*
X152274344Y-107594365D01*
X152333708Y-107600921D01*
G36*
X151395249Y-108490761D02*
G01*
X151341491Y-108489167D01*
X151304044Y-108485962D01*
X151300612Y-108485413D01*
X151239227Y-108463838D01*
X151187185Y-108424438D01*
X151151927Y-108372752D01*
X151137333Y-108317248D01*
X151138415Y-108251974D01*
X151265480Y-108251974D01*
X151277802Y-108295989D01*
X151312174Y-108333060D01*
X151337327Y-108342859D01*
X151381868Y-108350097D01*
X151435907Y-108353279D01*
X151491334Y-108352277D01*
X151540040Y-108346961D01*
X151573914Y-108337204D01*
X151579469Y-108334087D01*
X151607388Y-108304038D01*
X151619756Y-108263315D01*
X151616879Y-108219579D01*
X151599062Y-108180491D01*
X151566610Y-108153710D01*
X151563881Y-108152603D01*
X151533428Y-108145963D01*
X151487923Y-108141278D01*
X151436132Y-108139505D01*
X151383832Y-108140496D01*
X151349012Y-108144519D01*
X151325157Y-108153108D01*
X151305167Y-108167797D01*
X151275444Y-108206584D01*
X151265480Y-108251974D01*
X151138415Y-108251974D01*
X151138465Y-108248977D01*
X151158033Y-108186173D01*
X151166291Y-108169815D01*
X151175139Y-108148779D01*
X151172386Y-108140774D01*
X151158033Y-108139505D01*
X151150876Y-108138922D01*
X151140290Y-108131394D01*
X151135417Y-108110488D01*
X151134240Y-108070346D01*
X151134240Y-108001188D01*
X151989289Y-108001188D01*
X151989289Y-108139505D01*
X151696184Y-108139505D01*
X151719369Y-108165124D01*
X151733780Y-108189792D01*
X151745826Y-108236480D01*
X151749708Y-108291056D01*
X151744942Y-108344354D01*
X151731048Y-108387207D01*
X151711283Y-108417878D01*
X151677613Y-108449471D01*
X151632332Y-108470733D01*
X151571081Y-108483514D01*
X151489499Y-108489664D01*
X151456522Y-108490568D01*
X151435907Y-108490633D01*
X151395249Y-108490761D01*
G37*
X151395249Y-108490761D02*
X151341491Y-108489167D01*
X151304044Y-108485962D01*
X151300612Y-108485413D01*
X151239227Y-108463838D01*
X151187185Y-108424438D01*
X151151927Y-108372752D01*
X151137333Y-108317248D01*
X151138415Y-108251974D01*
X151265480Y-108251974D01*
X151277802Y-108295989D01*
X151312174Y-108333060D01*
X151337327Y-108342859D01*
X151381868Y-108350097D01*
X151435907Y-108353279D01*
X151491334Y-108352277D01*
X151540040Y-108346961D01*
X151573914Y-108337204D01*
X151579469Y-108334087D01*
X151607388Y-108304038D01*
X151619756Y-108263315D01*
X151616879Y-108219579D01*
X151599062Y-108180491D01*
X151566610Y-108153710D01*
X151563881Y-108152603D01*
X151533428Y-108145963D01*
X151487923Y-108141278D01*
X151436132Y-108139505D01*
X151383832Y-108140496D01*
X151349012Y-108144519D01*
X151325157Y-108153108D01*
X151305167Y-108167797D01*
X151275444Y-108206584D01*
X151265480Y-108251974D01*
X151138415Y-108251974D01*
X151138465Y-108248977D01*
X151158033Y-108186173D01*
X151166291Y-108169815D01*
X151175139Y-108148779D01*
X151172386Y-108140774D01*
X151158033Y-108139505D01*
X151150876Y-108138922D01*
X151140290Y-108131394D01*
X151135417Y-108110488D01*
X151134240Y-108070346D01*
X151134240Y-108001188D01*
X151989289Y-108001188D01*
X151989289Y-108139505D01*
X151696184Y-108139505D01*
X151719369Y-108165124D01*
X151733780Y-108189792D01*
X151745826Y-108236480D01*
X151749708Y-108291056D01*
X151744942Y-108344354D01*
X151731048Y-108387207D01*
X151711283Y-108417878D01*
X151677613Y-108449471D01*
X151632332Y-108470733D01*
X151571081Y-108483514D01*
X151489499Y-108489664D01*
X151456522Y-108490568D01*
X151435907Y-108490633D01*
X151395249Y-108490761D01*
G36*
X151442309Y-106064353D02*
G01*
X151395370Y-106062718D01*
X151305603Y-106047827D01*
X151235017Y-106017185D01*
X151183110Y-105970524D01*
X151149376Y-105907574D01*
X151143415Y-105887235D01*
X151135091Y-105814612D01*
X151142116Y-105737928D01*
X151163797Y-105668663D01*
X151176103Y-105644262D01*
X151197183Y-105609275D01*
X151214528Y-105588072D01*
X151218491Y-105584942D01*
X151232985Y-105579085D01*
X151248741Y-105587524D01*
X151272602Y-105613221D01*
X151282990Y-105625622D01*
X151301999Y-105650052D01*
X151309769Y-105662861D01*
X151308968Y-105666530D01*
X151300317Y-105687561D01*
X151285131Y-105718960D01*
X151280136Y-105729197D01*
X151261587Y-105789590D01*
X151266368Y-105842057D01*
X151294562Y-105888065D01*
X151299771Y-105893419D01*
X151332403Y-105919013D01*
X151363720Y-105933637D01*
X151398299Y-105941736D01*
X151398299Y-105819554D01*
X151498893Y-105819554D01*
X151499294Y-105850429D01*
X151501633Y-105896002D01*
X151505597Y-105927348D01*
X151510649Y-105939010D01*
X151552235Y-105929064D01*
X151591049Y-105899947D01*
X151617976Y-105857952D01*
X151627290Y-105809440D01*
X151616790Y-105773723D01*
X151591122Y-105738020D01*
X151557681Y-105710879D01*
X151523844Y-105700099D01*
X151512859Y-105701670D01*
X151505289Y-105709738D01*
X151501087Y-105728967D01*
X151499279Y-105764019D01*
X151498893Y-105819554D01*
X151398299Y-105819554D01*
X151398299Y-105561782D01*
X151464314Y-105561852D01*
X151470880Y-105561892D01*
X151552097Y-105569758D01*
X151618167Y-105592655D01*
X151675122Y-105632607D01*
X151699214Y-105656979D01*
X151731465Y-105707315D01*
X151747092Y-105767419D01*
X151748191Y-105843338D01*
X151743883Y-105880010D01*
X151721513Y-105947703D01*
X151680799Y-105999530D01*
X151621113Y-106035945D01*
X151541826Y-106057401D01*
X151510649Y-106059579D01*
X151442309Y-106064353D01*
G37*
X151442309Y-106064353D02*
X151395370Y-106062718D01*
X151305603Y-106047827D01*
X151235017Y-106017185D01*
X151183110Y-105970524D01*
X151149376Y-105907574D01*
X151143415Y-105887235D01*
X151135091Y-105814612D01*
X151142116Y-105737928D01*
X151163797Y-105668663D01*
X151176103Y-105644262D01*
X151197183Y-105609275D01*
X151214528Y-105588072D01*
X151218491Y-105584942D01*
X151232985Y-105579085D01*
X151248741Y-105587524D01*
X151272602Y-105613221D01*
X151282990Y-105625622D01*
X151301999Y-105650052D01*
X151309769Y-105662861D01*
X151308968Y-105666530D01*
X151300317Y-105687561D01*
X151285131Y-105718960D01*
X151280136Y-105729197D01*
X151261587Y-105789590D01*
X151266368Y-105842057D01*
X151294562Y-105888065D01*
X151299771Y-105893419D01*
X151332403Y-105919013D01*
X151363720Y-105933637D01*
X151398299Y-105941736D01*
X151398299Y-105819554D01*
X151498893Y-105819554D01*
X151499294Y-105850429D01*
X151501633Y-105896002D01*
X151505597Y-105927348D01*
X151510649Y-105939010D01*
X151552235Y-105929064D01*
X151591049Y-105899947D01*
X151617976Y-105857952D01*
X151627290Y-105809440D01*
X151616790Y-105773723D01*
X151591122Y-105738020D01*
X151557681Y-105710879D01*
X151523844Y-105700099D01*
X151512859Y-105701670D01*
X151505289Y-105709738D01*
X151501087Y-105728967D01*
X151499279Y-105764019D01*
X151498893Y-105819554D01*
X151398299Y-105819554D01*
X151398299Y-105561782D01*
X151464314Y-105561852D01*
X151470880Y-105561892D01*
X151552097Y-105569758D01*
X151618167Y-105592655D01*
X151675122Y-105632607D01*
X151699214Y-105656979D01*
X151731465Y-105707315D01*
X151747092Y-105767419D01*
X151748191Y-105843338D01*
X151743883Y-105880010D01*
X151721513Y-105947703D01*
X151680799Y-105999530D01*
X151621113Y-106035945D01*
X151541826Y-106057401D01*
X151510649Y-106059579D01*
X151442309Y-106064353D01*
G36*
X152313077Y-108428989D02*
G01*
X152323018Y-108429008D01*
X152417956Y-108430207D01*
X152491704Y-108433891D01*
X152547848Y-108441006D01*
X152589975Y-108452500D01*
X152621671Y-108469318D01*
X152646521Y-108492409D01*
X152668112Y-108522717D01*
X152683060Y-108554012D01*
X152696641Y-108617037D01*
X152694638Y-108682605D01*
X152676628Y-108739926D01*
X152664388Y-108765199D01*
X152663124Y-108777910D01*
X152674264Y-108780792D01*
X152674601Y-108780795D01*
X152685975Y-108787006D01*
X152691806Y-108808428D01*
X152693448Y-108849950D01*
X152693448Y-108919109D01*
X152089883Y-108919109D01*
X152089883Y-108780792D01*
X152297930Y-108780792D01*
X152368183Y-108780697D01*
X152425892Y-108780051D01*
X152466275Y-108778320D01*
X152493447Y-108774974D01*
X152511522Y-108769481D01*
X152524615Y-108761310D01*
X152536841Y-108749928D01*
X152549845Y-108734424D01*
X152567317Y-108689843D01*
X152562189Y-108643047D01*
X152534555Y-108600180D01*
X152521694Y-108587927D01*
X152508678Y-108579132D01*
X152491356Y-108573233D01*
X152465561Y-108569651D01*
X152427123Y-108567809D01*
X152371873Y-108567128D01*
X152295644Y-108567030D01*
X152089883Y-108567030D01*
X152089883Y-108428713D01*
X152313077Y-108428989D01*
G37*
X152313077Y-108428989D02*
X152323018Y-108429008D01*
X152417956Y-108430207D01*
X152491704Y-108433891D01*
X152547848Y-108441006D01*
X152589975Y-108452500D01*
X152621671Y-108469318D01*
X152646521Y-108492409D01*
X152668112Y-108522717D01*
X152683060Y-108554012D01*
X152696641Y-108617037D01*
X152694638Y-108682605D01*
X152676628Y-108739926D01*
X152664388Y-108765199D01*
X152663124Y-108777910D01*
X152674264Y-108780792D01*
X152674601Y-108780795D01*
X152685975Y-108787006D01*
X152691806Y-108808428D01*
X152693448Y-108849950D01*
X152693448Y-108919109D01*
X152089883Y-108919109D01*
X152089883Y-108780792D01*
X152297930Y-108780792D01*
X152368183Y-108780697D01*
X152425892Y-108780051D01*
X152466275Y-108778320D01*
X152493447Y-108774974D01*
X152511522Y-108769481D01*
X152524615Y-108761310D01*
X152536841Y-108749928D01*
X152549845Y-108734424D01*
X152567317Y-108689843D01*
X152562189Y-108643047D01*
X152534555Y-108600180D01*
X152521694Y-108587927D01*
X152508678Y-108579132D01*
X152491356Y-108573233D01*
X152465561Y-108569651D01*
X152427123Y-108567809D01*
X152371873Y-108567128D01*
X152295644Y-108567030D01*
X152089883Y-108567030D01*
X152089883Y-108428713D01*
X152313077Y-108428989D01*
G36*
X152223552Y-105475351D02*
G01*
X152248653Y-105501296D01*
X152262628Y-105524764D01*
X152259551Y-105546524D01*
X152240775Y-105574356D01*
X152233424Y-105585454D01*
X152218379Y-105632337D01*
X152218389Y-105686224D01*
X152233894Y-105736675D01*
X152246346Y-105755672D01*
X152283116Y-105783537D01*
X152337123Y-105797506D01*
X152410731Y-105798405D01*
X152410773Y-105798403D01*
X152476629Y-105788009D01*
X152522290Y-105765114D01*
X152550534Y-105727439D01*
X152564142Y-105672708D01*
X152565972Y-105638241D01*
X152558478Y-105608126D01*
X152536767Y-105577240D01*
X152503136Y-105537272D01*
X152543812Y-105486656D01*
X152559395Y-105468163D01*
X152581722Y-105445065D01*
X152594879Y-105436039D01*
X152600809Y-105439236D01*
X152619014Y-105457646D01*
X152642167Y-105486973D01*
X152657232Y-105509920D01*
X152688182Y-105582774D01*
X152698989Y-105658799D01*
X152690569Y-105733409D01*
X152663838Y-105802021D01*
X152619711Y-105860048D01*
X152559104Y-105902907D01*
X152552925Y-105905801D01*
X152492653Y-105924176D01*
X152420655Y-105933357D01*
X152345693Y-105933285D01*
X152276526Y-105923901D01*
X152221913Y-105905149D01*
X152183850Y-105881995D01*
X152129927Y-105831030D01*
X152095651Y-105767306D01*
X152081790Y-105712785D01*
X152080277Y-105629767D01*
X152101180Y-105550326D01*
X152143598Y-105479879D01*
X152181182Y-105434284D01*
X152223552Y-105475351D01*
G37*
X152223552Y-105475351D02*
X152248653Y-105501296D01*
X152262628Y-105524764D01*
X152259551Y-105546524D01*
X152240775Y-105574356D01*
X152233424Y-105585454D01*
X152218379Y-105632337D01*
X152218389Y-105686224D01*
X152233894Y-105736675D01*
X152246346Y-105755672D01*
X152283116Y-105783537D01*
X152337123Y-105797506D01*
X152410731Y-105798405D01*
X152410773Y-105798403D01*
X152476629Y-105788009D01*
X152522290Y-105765114D01*
X152550534Y-105727439D01*
X152564142Y-105672708D01*
X152565972Y-105638241D01*
X152558478Y-105608126D01*
X152536767Y-105577240D01*
X152503136Y-105537272D01*
X152543812Y-105486656D01*
X152559395Y-105468163D01*
X152581722Y-105445065D01*
X152594879Y-105436039D01*
X152600809Y-105439236D01*
X152619014Y-105457646D01*
X152642167Y-105486973D01*
X152657232Y-105509920D01*
X152688182Y-105582774D01*
X152698989Y-105658799D01*
X152690569Y-105733409D01*
X152663838Y-105802021D01*
X152619711Y-105860048D01*
X152559104Y-105902907D01*
X152552925Y-105905801D01*
X152492653Y-105924176D01*
X152420655Y-105933357D01*
X152345693Y-105933285D01*
X152276526Y-105923901D01*
X152221913Y-105905149D01*
X152183850Y-105881995D01*
X152129927Y-105831030D01*
X152095651Y-105767306D01*
X152081790Y-105712785D01*
X152080277Y-105629767D01*
X152101180Y-105550326D01*
X152143598Y-105479879D01*
X152181182Y-105434284D01*
X152223552Y-105475351D01*
G36*
X151301839Y-109507299D02*
G01*
X151300180Y-109507157D01*
X151235583Y-109491835D01*
X151186999Y-109457753D01*
X151151990Y-109403218D01*
X151143473Y-109375036D01*
X151136834Y-109326764D01*
X151135303Y-109275773D01*
X151260145Y-109275773D01*
X151265683Y-109321652D01*
X151279557Y-109356410D01*
X151297901Y-109373726D01*
X151330496Y-109384356D01*
X151356333Y-109374929D01*
X151378799Y-109343764D01*
X151393212Y-109293667D01*
X151398299Y-109227582D01*
X151398299Y-109158020D01*
X151349951Y-109158020D01*
X151313158Y-109162668D01*
X151280793Y-109181015D01*
X151273788Y-109191514D01*
X151262871Y-109228988D01*
X151260145Y-109275773D01*
X151135303Y-109275773D01*
X151135249Y-109273978D01*
X151138902Y-109226353D01*
X151147979Y-109193566D01*
X151155249Y-109173652D01*
X151147979Y-109154155D01*
X151143767Y-109147023D01*
X151136936Y-109118557D01*
X151134240Y-109080059D01*
X151134240Y-109019703D01*
X151377578Y-109019703D01*
X151398622Y-109019707D01*
X151477940Y-109019937D01*
X151536908Y-109020797D01*
X151579446Y-109022679D01*
X151609470Y-109025974D01*
X151630899Y-109031073D01*
X151647651Y-109038366D01*
X151663643Y-109048246D01*
X151701114Y-109080023D01*
X151729723Y-109125055D01*
X151745507Y-109184210D01*
X151750359Y-109262161D01*
X151750354Y-109264695D01*
X151747907Y-109318880D01*
X151741806Y-109367380D01*
X151733253Y-109400478D01*
X151728966Y-109409552D01*
X151710814Y-109438433D01*
X151689240Y-109464568D01*
X151669826Y-109481764D01*
X151658153Y-109483825D01*
X151654999Y-109479803D01*
X151621323Y-109435976D01*
X151601462Y-109406671D01*
X151593449Y-109387294D01*
X151595316Y-109373253D01*
X151605097Y-109359957D01*
X151617306Y-109335418D01*
X151625447Y-109294064D01*
X151627559Y-109247326D01*
X151623262Y-109205034D01*
X151612175Y-109177017D01*
X151610826Y-109175543D01*
X151585481Y-109162953D01*
X151547651Y-109158020D01*
X151498893Y-109158020D01*
X151498846Y-109274331D01*
X151498001Y-109327760D01*
X151494322Y-109372735D01*
X151486753Y-109404907D01*
X151474254Y-109430899D01*
X151470415Y-109436948D01*
X151428217Y-109480710D01*
X151372415Y-109503987D01*
X151330496Y-109505955D01*
X151301839Y-109507299D01*
G37*
X151301839Y-109507299D02*
X151300180Y-109507157D01*
X151235583Y-109491835D01*
X151186999Y-109457753D01*
X151151990Y-109403218D01*
X151143473Y-109375036D01*
X151136834Y-109326764D01*
X151135303Y-109275773D01*
X151260145Y-109275773D01*
X151265683Y-109321652D01*
X151279557Y-109356410D01*
X151297901Y-109373726D01*
X151330496Y-109384356D01*
X151356333Y-109374929D01*
X151378799Y-109343764D01*
X151393212Y-109293667D01*
X151398299Y-109227582D01*
X151398299Y-109158020D01*
X151349951Y-109158020D01*
X151313158Y-109162668D01*
X151280793Y-109181015D01*
X151273788Y-109191514D01*
X151262871Y-109228988D01*
X151260145Y-109275773D01*
X151135303Y-109275773D01*
X151135249Y-109273978D01*
X151138902Y-109226353D01*
X151147979Y-109193566D01*
X151155249Y-109173652D01*
X151147979Y-109154155D01*
X151143767Y-109147023D01*
X151136936Y-109118557D01*
X151134240Y-109080059D01*
X151134240Y-109019703D01*
X151377578Y-109019703D01*
X151398622Y-109019707D01*
X151477940Y-109019937D01*
X151536908Y-109020797D01*
X151579446Y-109022679D01*
X151609470Y-109025974D01*
X151630899Y-109031073D01*
X151647651Y-109038366D01*
X151663643Y-109048246D01*
X151701114Y-109080023D01*
X151729723Y-109125055D01*
X151745507Y-109184210D01*
X151750359Y-109262161D01*
X151750354Y-109264695D01*
X151747907Y-109318880D01*
X151741806Y-109367380D01*
X151733253Y-109400478D01*
X151728966Y-109409552D01*
X151710814Y-109438433D01*
X151689240Y-109464568D01*
X151669826Y-109481764D01*
X151658153Y-109483825D01*
X151654999Y-109479803D01*
X151621323Y-109435976D01*
X151601462Y-109406671D01*
X151593449Y-109387294D01*
X151595316Y-109373253D01*
X151605097Y-109359957D01*
X151617306Y-109335418D01*
X151625447Y-109294064D01*
X151627559Y-109247326D01*
X151623262Y-109205034D01*
X151612175Y-109177017D01*
X151610826Y-109175543D01*
X151585481Y-109162953D01*
X151547651Y-109158020D01*
X151498893Y-109158020D01*
X151498846Y-109274331D01*
X151498001Y-109327760D01*
X151494322Y-109372735D01*
X151486753Y-109404907D01*
X151474254Y-109430899D01*
X151470415Y-109436948D01*
X151428217Y-109480710D01*
X151372415Y-109503987D01*
X151330496Y-109505955D01*
X151301839Y-109507299D01*
G36*
X152693448Y-106580297D02*
G01*
X152497720Y-106580297D01*
X152409668Y-106581357D01*
X152338552Y-106585509D01*
X152286863Y-106593921D01*
X152251702Y-106607757D01*
X152230173Y-106628182D01*
X152219380Y-106656364D01*
X152216426Y-106693465D01*
X152219062Y-106728890D01*
X152229383Y-106757500D01*
X152250290Y-106778296D01*
X152284681Y-106792442D01*
X152335452Y-106801103D01*
X152405499Y-106805445D01*
X152497720Y-106806633D01*
X152693448Y-106806633D01*
X152693448Y-106932376D01*
X152457484Y-106932376D01*
X152394501Y-106932160D01*
X152313055Y-106930484D01*
X152250941Y-106926277D01*
X152204604Y-106918521D01*
X152170489Y-106906196D01*
X152145040Y-106888285D01*
X152124700Y-106863767D01*
X152105915Y-106831623D01*
X152082134Y-106764125D01*
X152080582Y-106693681D01*
X152102482Y-106627264D01*
X152116679Y-106598286D01*
X152118801Y-106583909D01*
X152108769Y-106580297D01*
X152097506Y-106574299D01*
X152091573Y-106552830D01*
X152089883Y-106511138D01*
X152089883Y-106441980D01*
X152693448Y-106441980D01*
X152693448Y-106580297D01*
G37*
X152693448Y-106580297D02*
X152497720Y-106580297D01*
X152409668Y-106581357D01*
X152338552Y-106585509D01*
X152286863Y-106593921D01*
X152251702Y-106607757D01*
X152230173Y-106628182D01*
X152219380Y-106656364D01*
X152216426Y-106693465D01*
X152219062Y-106728890D01*
X152229383Y-106757500D01*
X152250290Y-106778296D01*
X152284681Y-106792442D01*
X152335452Y-106801103D01*
X152405499Y-106805445D01*
X152497720Y-106806633D01*
X152693448Y-106806633D01*
X152693448Y-106932376D01*
X152457484Y-106932376D01*
X152394501Y-106932160D01*
X152313055Y-106930484D01*
X152250941Y-106926277D01*
X152204604Y-106918521D01*
X152170489Y-106906196D01*
X152145040Y-106888285D01*
X152124700Y-106863767D01*
X152105915Y-106831623D01*
X152082134Y-106764125D01*
X152080582Y-106693681D01*
X152102482Y-106627264D01*
X152116679Y-106598286D01*
X152118801Y-106583909D01*
X152108769Y-106580297D01*
X152097506Y-106574299D01*
X152091573Y-106552830D01*
X152089883Y-106511138D01*
X152089883Y-106441980D01*
X152693448Y-106441980D01*
X152693448Y-106580297D01*
G36*
X154996025Y-105548168D02*
G01*
X155069450Y-105549426D01*
X155135182Y-105551728D01*
X155188862Y-105555076D01*
X155226132Y-105559474D01*
X155242635Y-105564926D01*
X155245073Y-105570491D01*
X155252757Y-105598178D01*
X155263626Y-105644979D01*
X155276870Y-105707157D01*
X155291678Y-105780979D01*
X155307239Y-105862710D01*
X155315553Y-105907336D01*
X155329970Y-105983824D01*
X155342595Y-106049660D01*
X155352741Y-106101323D01*
X155359721Y-106135293D01*
X155362850Y-106148048D01*
X155363494Y-106148528D01*
X155379881Y-106156651D01*
X155414210Y-106172137D01*
X155461926Y-106193050D01*
X155518476Y-106217455D01*
X155579304Y-106243416D01*
X155639856Y-106268997D01*
X155695577Y-106292262D01*
X155741912Y-106311277D01*
X155774307Y-106324105D01*
X155788207Y-106328812D01*
X155793097Y-106326736D01*
X155816370Y-106312920D01*
X155855543Y-106287860D01*
X155907542Y-106253568D01*
X155969294Y-106212059D01*
X156037726Y-106165346D01*
X156075202Y-106139718D01*
X156140906Y-106095490D01*
X156198570Y-106057570D01*
X156245048Y-106027980D01*
X156277197Y-106008743D01*
X156291872Y-106001881D01*
X156299832Y-106006649D01*
X156323616Y-106026593D01*
X156359611Y-106059313D01*
X156404767Y-106101805D01*
X156456034Y-106151065D01*
X156510361Y-106204091D01*
X156564698Y-106257877D01*
X156615995Y-106309421D01*
X156661203Y-106355720D01*
X156697270Y-106393769D01*
X156721148Y-106420565D01*
X156729784Y-106433105D01*
X156726426Y-106440066D01*
X156710852Y-106465627D01*
X156684347Y-106506874D01*
X156648852Y-106560837D01*
X156606312Y-106624542D01*
X156558667Y-106695016D01*
X156387550Y-106946662D01*
X156560492Y-107366188D01*
X156862044Y-107423036D01*
X157163596Y-107479885D01*
X157163596Y-108107540D01*
X156862044Y-108164389D01*
X156560492Y-108221237D01*
X156474021Y-108431001D01*
X156387550Y-108640764D01*
X156558667Y-108892410D01*
X156592401Y-108942216D01*
X156636681Y-109008244D01*
X156674501Y-109065410D01*
X156703920Y-109110744D01*
X156722995Y-109141280D01*
X156729784Y-109154046D01*
X156724956Y-109161887D01*
X156704723Y-109185325D01*
X156671519Y-109220794D01*
X156628392Y-109265289D01*
X156578392Y-109315805D01*
X156524567Y-109369336D01*
X156469967Y-109422877D01*
X156417639Y-109473423D01*
X156370634Y-109517968D01*
X156331999Y-109553507D01*
X156304784Y-109577034D01*
X156292038Y-109585544D01*
X156286562Y-109583565D01*
X156262135Y-109569857D01*
X156221933Y-109544825D01*
X156169110Y-109510499D01*
X156106815Y-109468907D01*
X156038200Y-109422079D01*
X156000779Y-109396380D01*
X155935630Y-109352173D01*
X155878773Y-109314272D01*
X155833292Y-109284698D01*
X155802269Y-109265472D01*
X155788788Y-109258614D01*
X155788041Y-109258726D01*
X155770952Y-109264776D01*
X155736056Y-109278654D01*
X155687911Y-109298427D01*
X155631076Y-109322160D01*
X155570109Y-109347918D01*
X155509570Y-109373766D01*
X155454015Y-109397771D01*
X155408005Y-109417998D01*
X155376097Y-109432511D01*
X155362850Y-109439377D01*
X155361675Y-109443439D01*
X155356375Y-109468121D01*
X155347595Y-109512111D01*
X155336022Y-109571887D01*
X155322341Y-109643929D01*
X155307239Y-109724716D01*
X155299232Y-109767294D01*
X155283955Y-109845445D01*
X155269847Y-109913775D01*
X155257717Y-109968551D01*
X155248376Y-110006037D01*
X155242635Y-110022500D01*
X155236943Y-110025457D01*
X155209132Y-110030362D01*
X155162812Y-110034216D01*
X155102342Y-110037021D01*
X155032079Y-110038781D01*
X154956382Y-110039499D01*
X154879609Y-110039177D01*
X154806118Y-110037819D01*
X154740268Y-110035428D01*
X154686417Y-110032006D01*
X154648924Y-110027556D01*
X154632146Y-110022082D01*
X154630253Y-110018760D01*
X154622136Y-109993987D01*
X154611396Y-109951011D01*
X154599209Y-109894802D01*
X154586752Y-109830325D01*
X154582785Y-109808570D01*
X154564333Y-109708093D01*
X154549503Y-109629126D01*
X154537682Y-109568934D01*
X154528253Y-109524778D01*
X154520602Y-109493920D01*
X154514114Y-109473625D01*
X154508174Y-109461154D01*
X154502168Y-109453771D01*
X154501160Y-109452913D01*
X154480143Y-109440838D01*
X154441686Y-109422971D01*
X154390301Y-109401042D01*
X154330499Y-109376784D01*
X154266792Y-109351927D01*
X154203691Y-109328205D01*
X154145707Y-109307347D01*
X154097353Y-109291087D01*
X154063140Y-109281156D01*
X154047579Y-109279285D01*
X154045560Y-109280536D01*
X154026034Y-109293486D01*
X153990020Y-109317840D01*
X153940834Y-109351340D01*
X153881795Y-109391727D01*
X153816220Y-109436745D01*
X153798178Y-109449100D01*
X153733463Y-109492545D01*
X153675586Y-109530091D01*
X153627980Y-109559594D01*
X153594077Y-109578914D01*
X153577310Y-109585905D01*
X153572901Y-109584398D01*
X153551180Y-109568695D01*
X153515708Y-109537714D01*
X153468874Y-109493673D01*
X153413066Y-109438790D01*
X153350670Y-109375286D01*
X153315745Y-109338988D01*
X153261351Y-109281595D01*
X153214760Y-109231361D01*
X153178426Y-109190984D01*
X153154801Y-109163161D01*
X153146338Y-109150590D01*
X153149475Y-109141952D01*
X153164315Y-109115360D01*
X153188585Y-109076741D01*
X153219210Y-109031134D01*
X153241559Y-108998707D01*
X153285940Y-108933970D01*
X153333075Y-108864886D01*
X153375907Y-108801787D01*
X153459515Y-108678178D01*
X153403412Y-108574417D01*
X153390463Y-108549984D01*
X153368313Y-108505552D01*
X153353021Y-108471191D01*
X153347319Y-108452828D01*
X153354641Y-108446818D01*
X153382521Y-108431895D01*
X153428487Y-108409852D01*
X153489621Y-108381917D01*
X153563007Y-108349317D01*
X153645727Y-108313276D01*
X153734865Y-108275023D01*
X153827503Y-108235783D01*
X153920725Y-108196783D01*
X154011612Y-108159249D01*
X154097248Y-108124409D01*
X154174717Y-108093488D01*
X154241100Y-108067714D01*
X154293480Y-108048311D01*
X154328941Y-108036508D01*
X154344566Y-108033531D01*
X154345023Y-108033732D01*
X154359467Y-108047601D01*
X154382088Y-108076611D01*
X154408198Y-108114772D01*
X154416170Y-108126817D01*
X154491806Y-108218469D01*
X154581893Y-108294323D01*
X154682681Y-108352581D01*
X154790422Y-108391448D01*
X154901365Y-108409128D01*
X155011759Y-108403826D01*
X155109947Y-108382347D01*
X155209096Y-108343782D01*
X155297550Y-108287562D01*
X155381575Y-108210410D01*
X155408417Y-108180095D01*
X155474552Y-108082094D01*
X155519092Y-107976227D01*
X155542437Y-107865561D01*
X155544984Y-107753164D01*
X155527133Y-107642105D01*
X155489282Y-107535451D01*
X155431830Y-107436270D01*
X155355175Y-107347631D01*
X155259717Y-107272600D01*
X155236077Y-107258175D01*
X155128028Y-107209143D01*
X155015514Y-107183103D01*
X154901448Y-107179372D01*
X154788744Y-107197268D01*
X154680317Y-107236109D01*
X154579080Y-107295214D01*
X154487948Y-107373900D01*
X154409834Y-107471485D01*
X154407729Y-107474654D01*
X154381122Y-107512411D01*
X154358501Y-107540709D01*
X154344566Y-107553634D01*
X154333641Y-107552003D01*
X154301831Y-107541864D01*
X154252528Y-107523884D01*
X154188649Y-107499292D01*
X154113114Y-107469311D01*
X154028839Y-107435170D01*
X153938742Y-107398092D01*
X153845741Y-107359306D01*
X153752754Y-107320036D01*
X153662698Y-107281509D01*
X153578491Y-107244950D01*
X153503052Y-107211586D01*
X153439297Y-107182643D01*
X153390145Y-107159346D01*
X153358513Y-107142923D01*
X153347319Y-107134598D01*
X153348835Y-107127674D01*
X153359731Y-107100477D01*
X153378834Y-107060280D01*
X153403412Y-107013009D01*
X153459515Y-106909248D01*
X153375907Y-106785639D01*
X153351149Y-106749120D01*
X153304891Y-106681194D01*
X153258559Y-106613475D01*
X153219210Y-106556291D01*
X153197765Y-106524732D01*
X153171123Y-106483714D01*
X153152884Y-106453301D01*
X153146121Y-106438446D01*
X153148992Y-106432065D01*
X153166577Y-106408996D01*
X153197539Y-106373433D01*
X153238831Y-106328471D01*
X153287409Y-106277206D01*
X153340227Y-106222733D01*
X153394239Y-106168148D01*
X153446401Y-106116547D01*
X153493666Y-106071024D01*
X153532990Y-106034675D01*
X153561326Y-106010595D01*
X153575630Y-106001881D01*
X153578351Y-106002383D01*
X153600502Y-106012755D01*
X153638827Y-106034912D01*
X153689862Y-106066712D01*
X153750148Y-106106016D01*
X153816220Y-106150681D01*
X153834445Y-106163207D01*
X153898577Y-106207193D01*
X153955273Y-106245937D01*
X154001218Y-106277182D01*
X154033092Y-106298669D01*
X154047579Y-106308140D01*
X154048200Y-106308373D01*
X154065923Y-106305578D01*
X154101827Y-106294903D01*
X154151400Y-106278081D01*
X154210130Y-106256843D01*
X154273506Y-106232921D01*
X154337016Y-106208046D01*
X154396149Y-106183950D01*
X154446393Y-106162365D01*
X154483236Y-106145023D01*
X154502168Y-106133655D01*
X154503343Y-106132516D01*
X154509289Y-106124376D01*
X154515286Y-106110629D01*
X154521948Y-106088537D01*
X154529889Y-106055363D01*
X154539725Y-106008370D01*
X154552071Y-105944820D01*
X154567542Y-105861976D01*
X154586752Y-105757100D01*
X154590795Y-105735348D01*
X154603293Y-105673036D01*
X154615135Y-105620619D01*
X154625145Y-105583066D01*
X154632146Y-105565343D01*
X154637987Y-105562378D01*
X154666046Y-105557435D01*
X154712562Y-105553518D01*
X154773176Y-105550629D01*
X154843530Y-105548773D01*
X154919266Y-105547952D01*
X154996025Y-105548168D01*
G37*
X154996025Y-105548168D02*
X155069450Y-105549426D01*
X155135182Y-105551728D01*
X155188862Y-105555076D01*
X155226132Y-105559474D01*
X155242635Y-105564926D01*
X155245073Y-105570491D01*
X155252757Y-105598178D01*
X155263626Y-105644979D01*
X155276870Y-105707157D01*
X155291678Y-105780979D01*
X155307239Y-105862710D01*
X155315553Y-105907336D01*
X155329970Y-105983824D01*
X155342595Y-106049660D01*
X155352741Y-106101323D01*
X155359721Y-106135293D01*
X155362850Y-106148048D01*
X155363494Y-106148528D01*
X155379881Y-106156651D01*
X155414210Y-106172137D01*
X155461926Y-106193050D01*
X155518476Y-106217455D01*
X155579304Y-106243416D01*
X155639856Y-106268997D01*
X155695577Y-106292262D01*
X155741912Y-106311277D01*
X155774307Y-106324105D01*
X155788207Y-106328812D01*
X155793097Y-106326736D01*
X155816370Y-106312920D01*
X155855543Y-106287860D01*
X155907542Y-106253568D01*
X155969294Y-106212059D01*
X156037726Y-106165346D01*
X156075202Y-106139718D01*
X156140906Y-106095490D01*
X156198570Y-106057570D01*
X156245048Y-106027980D01*
X156277197Y-106008743D01*
X156291872Y-106001881D01*
X156299832Y-106006649D01*
X156323616Y-106026593D01*
X156359611Y-106059313D01*
X156404767Y-106101805D01*
X156456034Y-106151065D01*
X156510361Y-106204091D01*
X156564698Y-106257877D01*
X156615995Y-106309421D01*
X156661203Y-106355720D01*
X156697270Y-106393769D01*
X156721148Y-106420565D01*
X156729784Y-106433105D01*
X156726426Y-106440066D01*
X156710852Y-106465627D01*
X156684347Y-106506874D01*
X156648852Y-106560837D01*
X156606312Y-106624542D01*
X156558667Y-106695016D01*
X156387550Y-106946662D01*
X156560492Y-107366188D01*
X156862044Y-107423036D01*
X157163596Y-107479885D01*
X157163596Y-108107540D01*
X156862044Y-108164389D01*
X156560492Y-108221237D01*
X156474021Y-108431001D01*
X156387550Y-108640764D01*
X156558667Y-108892410D01*
X156592401Y-108942216D01*
X156636681Y-109008244D01*
X156674501Y-109065410D01*
X156703920Y-109110744D01*
X156722995Y-109141280D01*
X156729784Y-109154046D01*
X156724956Y-109161887D01*
X156704723Y-109185325D01*
X156671519Y-109220794D01*
X156628392Y-109265289D01*
X156578392Y-109315805D01*
X156524567Y-109369336D01*
X156469967Y-109422877D01*
X156417639Y-109473423D01*
X156370634Y-109517968D01*
X156331999Y-109553507D01*
X156304784Y-109577034D01*
X156292038Y-109585544D01*
X156286562Y-109583565D01*
X156262135Y-109569857D01*
X156221933Y-109544825D01*
X156169110Y-109510499D01*
X156106815Y-109468907D01*
X156038200Y-109422079D01*
X156000779Y-109396380D01*
X155935630Y-109352173D01*
X155878773Y-109314272D01*
X155833292Y-109284698D01*
X155802269Y-109265472D01*
X155788788Y-109258614D01*
X155788041Y-109258726D01*
X155770952Y-109264776D01*
X155736056Y-109278654D01*
X155687911Y-109298427D01*
X155631076Y-109322160D01*
X155570109Y-109347918D01*
X155509570Y-109373766D01*
X155454015Y-109397771D01*
X155408005Y-109417998D01*
X155376097Y-109432511D01*
X155362850Y-109439377D01*
X155361675Y-109443439D01*
X155356375Y-109468121D01*
X155347595Y-109512111D01*
X155336022Y-109571887D01*
X155322341Y-109643929D01*
X155307239Y-109724716D01*
X155299232Y-109767294D01*
X155283955Y-109845445D01*
X155269847Y-109913775D01*
X155257717Y-109968551D01*
X155248376Y-110006037D01*
X155242635Y-110022500D01*
X155236943Y-110025457D01*
X155209132Y-110030362D01*
X155162812Y-110034216D01*
X155102342Y-110037021D01*
X155032079Y-110038781D01*
X154956382Y-110039499D01*
X154879609Y-110039177D01*
X154806118Y-110037819D01*
X154740268Y-110035428D01*
X154686417Y-110032006D01*
X154648924Y-110027556D01*
X154632146Y-110022082D01*
X154630253Y-110018760D01*
X154622136Y-109993987D01*
X154611396Y-109951011D01*
X154599209Y-109894802D01*
X154586752Y-109830325D01*
X154582785Y-109808570D01*
X154564333Y-109708093D01*
X154549503Y-109629126D01*
X154537682Y-109568934D01*
X154528253Y-109524778D01*
X154520602Y-109493920D01*
X154514114Y-109473625D01*
X154508174Y-109461154D01*
X154502168Y-109453771D01*
X154501160Y-109452913D01*
X154480143Y-109440838D01*
X154441686Y-109422971D01*
X154390301Y-109401042D01*
X154330499Y-109376784D01*
X154266792Y-109351927D01*
X154203691Y-109328205D01*
X154145707Y-109307347D01*
X154097353Y-109291087D01*
X154063140Y-109281156D01*
X154047579Y-109279285D01*
X154045560Y-109280536D01*
X154026034Y-109293486D01*
X153990020Y-109317840D01*
X153940834Y-109351340D01*
X153881795Y-109391727D01*
X153816220Y-109436745D01*
X153798178Y-109449100D01*
X153733463Y-109492545D01*
X153675586Y-109530091D01*
X153627980Y-109559594D01*
X153594077Y-109578914D01*
X153577310Y-109585905D01*
X153572901Y-109584398D01*
X153551180Y-109568695D01*
X153515708Y-109537714D01*
X153468874Y-109493673D01*
X153413066Y-109438790D01*
X153350670Y-109375286D01*
X153315745Y-109338988D01*
X153261351Y-109281595D01*
X153214760Y-109231361D01*
X153178426Y-109190984D01*
X153154801Y-109163161D01*
X153146338Y-109150590D01*
X153149475Y-109141952D01*
X153164315Y-109115360D01*
X153188585Y-109076741D01*
X153219210Y-109031134D01*
X153241559Y-108998707D01*
X153285940Y-108933970D01*
X153333075Y-108864886D01*
X153375907Y-108801787D01*
X153459515Y-108678178D01*
X153403412Y-108574417D01*
X153390463Y-108549984D01*
X153368313Y-108505552D01*
X153353021Y-108471191D01*
X153347319Y-108452828D01*
X153354641Y-108446818D01*
X153382521Y-108431895D01*
X153428487Y-108409852D01*
X153489621Y-108381917D01*
X153563007Y-108349317D01*
X153645727Y-108313276D01*
X153734865Y-108275023D01*
X153827503Y-108235783D01*
X153920725Y-108196783D01*
X154011612Y-108159249D01*
X154097248Y-108124409D01*
X154174717Y-108093488D01*
X154241100Y-108067714D01*
X154293480Y-108048311D01*
X154328941Y-108036508D01*
X154344566Y-108033531D01*
X154345023Y-108033732D01*
X154359467Y-108047601D01*
X154382088Y-108076611D01*
X154408198Y-108114772D01*
X154416170Y-108126817D01*
X154491806Y-108218469D01*
X154581893Y-108294323D01*
X154682681Y-108352581D01*
X154790422Y-108391448D01*
X154901365Y-108409128D01*
X155011759Y-108403826D01*
X155109947Y-108382347D01*
X155209096Y-108343782D01*
X155297550Y-108287562D01*
X155381575Y-108210410D01*
X155408417Y-108180095D01*
X155474552Y-108082094D01*
X155519092Y-107976227D01*
X155542437Y-107865561D01*
X155544984Y-107753164D01*
X155527133Y-107642105D01*
X155489282Y-107535451D01*
X155431830Y-107436270D01*
X155355175Y-107347631D01*
X155259717Y-107272600D01*
X155236077Y-107258175D01*
X155128028Y-107209143D01*
X155015514Y-107183103D01*
X154901448Y-107179372D01*
X154788744Y-107197268D01*
X154680317Y-107236109D01*
X154579080Y-107295214D01*
X154487948Y-107373900D01*
X154409834Y-107471485D01*
X154407729Y-107474654D01*
X154381122Y-107512411D01*
X154358501Y-107540709D01*
X154344566Y-107553634D01*
X154333641Y-107552003D01*
X154301831Y-107541864D01*
X154252528Y-107523884D01*
X154188649Y-107499292D01*
X154113114Y-107469311D01*
X154028839Y-107435170D01*
X153938742Y-107398092D01*
X153845741Y-107359306D01*
X153752754Y-107320036D01*
X153662698Y-107281509D01*
X153578491Y-107244950D01*
X153503052Y-107211586D01*
X153439297Y-107182643D01*
X153390145Y-107159346D01*
X153358513Y-107142923D01*
X153347319Y-107134598D01*
X153348835Y-107127674D01*
X153359731Y-107100477D01*
X153378834Y-107060280D01*
X153403412Y-107013009D01*
X153459515Y-106909248D01*
X153375907Y-106785639D01*
X153351149Y-106749120D01*
X153304891Y-106681194D01*
X153258559Y-106613475D01*
X153219210Y-106556291D01*
X153197765Y-106524732D01*
X153171123Y-106483714D01*
X153152884Y-106453301D01*
X153146121Y-106438446D01*
X153148992Y-106432065D01*
X153166577Y-106408996D01*
X153197539Y-106373433D01*
X153238831Y-106328471D01*
X153287409Y-106277206D01*
X153340227Y-106222733D01*
X153394239Y-106168148D01*
X153446401Y-106116547D01*
X153493666Y-106071024D01*
X153532990Y-106034675D01*
X153561326Y-106010595D01*
X153575630Y-106001881D01*
X153578351Y-106002383D01*
X153600502Y-106012755D01*
X153638827Y-106034912D01*
X153689862Y-106066712D01*
X153750148Y-106106016D01*
X153816220Y-106150681D01*
X153834445Y-106163207D01*
X153898577Y-106207193D01*
X153955273Y-106245937D01*
X154001218Y-106277182D01*
X154033092Y-106298669D01*
X154047579Y-106308140D01*
X154048200Y-106308373D01*
X154065923Y-106305578D01*
X154101827Y-106294903D01*
X154151400Y-106278081D01*
X154210130Y-106256843D01*
X154273506Y-106232921D01*
X154337016Y-106208046D01*
X154396149Y-106183950D01*
X154446393Y-106162365D01*
X154483236Y-106145023D01*
X154502168Y-106133655D01*
X154503343Y-106132516D01*
X154509289Y-106124376D01*
X154515286Y-106110629D01*
X154521948Y-106088537D01*
X154529889Y-106055363D01*
X154539725Y-106008370D01*
X154552071Y-105944820D01*
X154567542Y-105861976D01*
X154586752Y-105757100D01*
X154590795Y-105735348D01*
X154603293Y-105673036D01*
X154615135Y-105620619D01*
X154625145Y-105583066D01*
X154632146Y-105565343D01*
X154637987Y-105562378D01*
X154666046Y-105557435D01*
X154712562Y-105553518D01*
X154773176Y-105550629D01*
X154843530Y-105548773D01*
X154919266Y-105547952D01*
X154996025Y-105548168D01*
G36*
X151750379Y-107228612D02*
G01*
X151621492Y-107263274D01*
X151587437Y-107272488D01*
X151523947Y-107289915D01*
X151466188Y-107306054D01*
X151423448Y-107318322D01*
X151354289Y-107338709D01*
X151744091Y-107468745D01*
X151747825Y-107518476D01*
X151751558Y-107568206D01*
X151552932Y-107632997D01*
X151502212Y-107649997D01*
X151446065Y-107670107D01*
X151403530Y-107686899D01*
X151378072Y-107698986D01*
X151373159Y-107704980D01*
X151377432Y-107706426D01*
X151403640Y-107714254D01*
X151447413Y-107726723D01*
X151503851Y-107742447D01*
X151568052Y-107760043D01*
X151744091Y-107807914D01*
X151747910Y-107881007D01*
X151748216Y-107887177D01*
X151748621Y-107926592D01*
X151744575Y-107945533D01*
X151735336Y-107947945D01*
X151726313Y-107944898D01*
X151695430Y-107934874D01*
X151646518Y-107919180D01*
X151583075Y-107898934D01*
X151508600Y-107875256D01*
X151426591Y-107849263D01*
X151134240Y-107756736D01*
X151134240Y-107640993D01*
X151319710Y-107586457D01*
X151353768Y-107576386D01*
X151415684Y-107557775D01*
X151467275Y-107541872D01*
X151503932Y-107530109D01*
X151521044Y-107523918D01*
X151522321Y-107522154D01*
X151511283Y-107513571D01*
X151482093Y-107501316D01*
X151439312Y-107487426D01*
X151436799Y-107486692D01*
X151373662Y-107468096D01*
X151302173Y-107446818D01*
X151237328Y-107427321D01*
X151132940Y-107395705D01*
X151136734Y-107337402D01*
X151140527Y-107279098D01*
X151310280Y-107225098D01*
X151384869Y-107201390D01*
X151468523Y-107174833D01*
X151548720Y-107149404D01*
X151615205Y-107128354D01*
X151750379Y-107085609D01*
X151750379Y-107228612D01*
G37*
X151750379Y-107228612D02*
X151621492Y-107263274D01*
X151587437Y-107272488D01*
X151523947Y-107289915D01*
X151466188Y-107306054D01*
X151423448Y-107318322D01*
X151354289Y-107338709D01*
X151744091Y-107468745D01*
X151747825Y-107518476D01*
X151751558Y-107568206D01*
X151552932Y-107632997D01*
X151502212Y-107649997D01*
X151446065Y-107670107D01*
X151403530Y-107686899D01*
X151378072Y-107698986D01*
X151373159Y-107704980D01*
X151377432Y-107706426D01*
X151403640Y-107714254D01*
X151447413Y-107726723D01*
X151503851Y-107742447D01*
X151568052Y-107760043D01*
X151744091Y-107807914D01*
X151747910Y-107881007D01*
X151748216Y-107887177D01*
X151748621Y-107926592D01*
X151744575Y-107945533D01*
X151735336Y-107947945D01*
X151726313Y-107944898D01*
X151695430Y-107934874D01*
X151646518Y-107919180D01*
X151583075Y-107898934D01*
X151508600Y-107875256D01*
X151426591Y-107849263D01*
X151134240Y-107756736D01*
X151134240Y-107640993D01*
X151319710Y-107586457D01*
X151353768Y-107576386D01*
X151415684Y-107557775D01*
X151467275Y-107541872D01*
X151503932Y-107530109D01*
X151521044Y-107523918D01*
X151522321Y-107522154D01*
X151511283Y-107513571D01*
X151482093Y-107501316D01*
X151439312Y-107487426D01*
X151436799Y-107486692D01*
X151373662Y-107468096D01*
X151302173Y-107446818D01*
X151237328Y-107427321D01*
X151132940Y-107395705D01*
X151136734Y-107337402D01*
X151140527Y-107279098D01*
X151310280Y-107225098D01*
X151384869Y-107201390D01*
X151468523Y-107174833D01*
X151548720Y-107149404D01*
X151615205Y-107128354D01*
X151750379Y-107085609D01*
X151750379Y-107228612D01*
G36*
X152432184Y-105419444D02*
G01*
X152335941Y-105417825D01*
X152334048Y-105417615D01*
X152245737Y-105399535D01*
X152177076Y-105366870D01*
X152126556Y-105318601D01*
X152092669Y-105253713D01*
X152088794Y-105241801D01*
X152077374Y-105167971D01*
X152083742Y-105091614D01*
X152106499Y-105020626D01*
X152144243Y-104962904D01*
X152184190Y-104919667D01*
X152220530Y-104965625D01*
X152256869Y-105011583D01*
X152229961Y-105066969D01*
X152208157Y-105131056D01*
X152207504Y-105187632D01*
X152227537Y-105233920D01*
X152267747Y-105267230D01*
X152291840Y-105279171D01*
X152312432Y-105285837D01*
X152326342Y-105281980D01*
X152334881Y-105264675D01*
X152339358Y-105230997D01*
X152341084Y-105178021D01*
X152341134Y-105164846D01*
X152454537Y-105164846D01*
X152454886Y-105194603D01*
X152457195Y-105241562D01*
X152461240Y-105273416D01*
X152466520Y-105285148D01*
X152486000Y-105282146D01*
X152523276Y-105260988D01*
X152553898Y-105225731D01*
X152572394Y-105183699D01*
X152573289Y-105142220D01*
X152558458Y-105110997D01*
X152524707Y-105075618D01*
X152482829Y-105053122D01*
X152478372Y-105051805D01*
X152466852Y-105050234D01*
X152459811Y-105056399D01*
X152456146Y-105074654D01*
X152454756Y-105109352D01*
X152454537Y-105164846D01*
X152341134Y-105164846D01*
X152341369Y-105102822D01*
X152341369Y-104920495D01*
X152428570Y-104920495D01*
X152474691Y-104922136D01*
X152520322Y-104926955D01*
X152551169Y-104933840D01*
X152562945Y-104938859D01*
X152615395Y-104975390D01*
X152659141Y-105028175D01*
X152687783Y-105089904D01*
X152695605Y-105122102D01*
X152699166Y-105198820D01*
X152681053Y-105267179D01*
X152643283Y-105325299D01*
X152587871Y-105371302D01*
X152516833Y-105403310D01*
X152466520Y-105412900D01*
X152432184Y-105419444D01*
G37*
X152432184Y-105419444D02*
X152335941Y-105417825D01*
X152334048Y-105417615D01*
X152245737Y-105399535D01*
X152177076Y-105366870D01*
X152126556Y-105318601D01*
X152092669Y-105253713D01*
X152088794Y-105241801D01*
X152077374Y-105167971D01*
X152083742Y-105091614D01*
X152106499Y-105020626D01*
X152144243Y-104962904D01*
X152184190Y-104919667D01*
X152220530Y-104965625D01*
X152256869Y-105011583D01*
X152229961Y-105066969D01*
X152208157Y-105131056D01*
X152207504Y-105187632D01*
X152227537Y-105233920D01*
X152267747Y-105267230D01*
X152291840Y-105279171D01*
X152312432Y-105285837D01*
X152326342Y-105281980D01*
X152334881Y-105264675D01*
X152339358Y-105230997D01*
X152341084Y-105178021D01*
X152341134Y-105164846D01*
X152454537Y-105164846D01*
X152454886Y-105194603D01*
X152457195Y-105241562D01*
X152461240Y-105273416D01*
X152466520Y-105285148D01*
X152486000Y-105282146D01*
X152523276Y-105260988D01*
X152553898Y-105225731D01*
X152572394Y-105183699D01*
X152573289Y-105142220D01*
X152558458Y-105110997D01*
X152524707Y-105075618D01*
X152482829Y-105053122D01*
X152478372Y-105051805D01*
X152466852Y-105050234D01*
X152459811Y-105056399D01*
X152456146Y-105074654D01*
X152454756Y-105109352D01*
X152454537Y-105164846D01*
X152341134Y-105164846D01*
X152341369Y-105102822D01*
X152341369Y-104920495D01*
X152428570Y-104920495D01*
X152474691Y-104922136D01*
X152520322Y-104926955D01*
X152551169Y-104933840D01*
X152562945Y-104938859D01*
X152615395Y-104975390D01*
X152659141Y-105028175D01*
X152687783Y-105089904D01*
X152695605Y-105122102D01*
X152699166Y-105198820D01*
X152681053Y-105267179D01*
X152643283Y-105325299D01*
X152587871Y-105371302D01*
X152516833Y-105403310D01*
X152466520Y-105412900D01*
X152432184Y-105419444D01*
G36*
X151726937Y-106088886D02*
G01*
X151741047Y-106116405D01*
X151750576Y-106164745D01*
X151750888Y-106219230D01*
X151742097Y-106270265D01*
X151724317Y-106308255D01*
X151698256Y-106341386D01*
X151724317Y-106341386D01*
X151734213Y-106342211D01*
X151744704Y-106349893D01*
X151749337Y-106370667D01*
X151750379Y-106410544D01*
X151750379Y-106479703D01*
X151134240Y-106479703D01*
X151134240Y-106341386D01*
X151334836Y-106341386D01*
X151346352Y-106341369D01*
X151427304Y-106340189D01*
X151493245Y-106337294D01*
X151540804Y-106332888D01*
X151566610Y-106327181D01*
X151576352Y-106321940D01*
X151606906Y-106289676D01*
X151620431Y-106245730D01*
X151614121Y-106197743D01*
X151609845Y-106185973D01*
X151602286Y-106160898D01*
X151604634Y-106143762D01*
X151619998Y-106126518D01*
X151651491Y-106101124D01*
X151703494Y-106059936D01*
X151726937Y-106088886D01*
G37*
X151726937Y-106088886D02*
X151741047Y-106116405D01*
X151750576Y-106164745D01*
X151750888Y-106219230D01*
X151742097Y-106270265D01*
X151724317Y-106308255D01*
X151698256Y-106341386D01*
X151724317Y-106341386D01*
X151734213Y-106342211D01*
X151744704Y-106349893D01*
X151749337Y-106370667D01*
X151750379Y-106410544D01*
X151750379Y-106479703D01*
X151134240Y-106479703D01*
X151134240Y-106341386D01*
X151334836Y-106341386D01*
X151346352Y-106341369D01*
X151427304Y-106340189D01*
X151493245Y-106337294D01*
X151540804Y-106332888D01*
X151566610Y-106327181D01*
X151576352Y-106321940D01*
X151606906Y-106289676D01*
X151620431Y-106245730D01*
X151614121Y-106197743D01*
X151609845Y-106185973D01*
X151602286Y-106160898D01*
X151604634Y-106143762D01*
X151619998Y-106126518D01*
X151651491Y-106101124D01*
X151703494Y-106059936D01*
X151726937Y-106088886D01*
G36*
X151299729Y-107089413D02*
G01*
X151242643Y-107074244D01*
X151193807Y-107041277D01*
X151158676Y-106991270D01*
X151156541Y-106986362D01*
X151141159Y-106931646D01*
X151135163Y-106869993D01*
X151136963Y-106841213D01*
X151260834Y-106841213D01*
X151262243Y-106869090D01*
X151272858Y-106921255D01*
X151292637Y-106953587D01*
X151320238Y-106964492D01*
X151354319Y-106952374D01*
X151363238Y-106945304D01*
X151383244Y-106913724D01*
X151394667Y-106863744D01*
X151398299Y-106792487D01*
X151398299Y-106731188D01*
X151354289Y-106731188D01*
X151321396Y-106735924D01*
X151285131Y-106756336D01*
X151278465Y-106763871D01*
X151264442Y-106794753D01*
X151260834Y-106841213D01*
X151136963Y-106841213D01*
X151138829Y-106811376D01*
X151152433Y-106765767D01*
X151161308Y-106747549D01*
X151163425Y-106734179D01*
X151152356Y-106731188D01*
X151142120Y-106725524D01*
X151136024Y-106703607D01*
X151134240Y-106661068D01*
X151134240Y-106590948D01*
X151376294Y-106595053D01*
X151432268Y-106596169D01*
X151516066Y-106599106D01*
X151580142Y-106604058D01*
X151627989Y-106612002D01*
X151663100Y-106623917D01*
X151688969Y-106640780D01*
X151709088Y-106663572D01*
X151726952Y-106693269D01*
X151733772Y-106708589D01*
X151746645Y-106761589D01*
X151751967Y-106825513D01*
X151749835Y-106891602D01*
X151740348Y-106951099D01*
X151723601Y-106995247D01*
X151713877Y-107010604D01*
X151685057Y-107045960D01*
X151660925Y-107057926D01*
X151656262Y-107055020D01*
X151639974Y-107036909D01*
X151618245Y-107007672D01*
X151608075Y-106992725D01*
X151593665Y-106967270D01*
X151592289Y-106950728D01*
X151602235Y-106935370D01*
X151622378Y-106897094D01*
X151630662Y-106845590D01*
X151624320Y-106792957D01*
X151624032Y-106791961D01*
X151607904Y-106754838D01*
X151582657Y-106736463D01*
X151540904Y-106731380D01*
X151501183Y-106731188D01*
X151496894Y-106862423D01*
X151496189Y-106883331D01*
X151493736Y-106936043D01*
X151489882Y-106971381D01*
X151483184Y-106995267D01*
X151472198Y-107013624D01*
X151455482Y-107032376D01*
X151416818Y-107063337D01*
X151359606Y-107086029D01*
X151320238Y-107088254D01*
X151299729Y-107089413D01*
G37*
X151299729Y-107089413D02*
X151242643Y-107074244D01*
X151193807Y-107041277D01*
X151158676Y-106991270D01*
X151156541Y-106986362D01*
X151141159Y-106931646D01*
X151135163Y-106869993D01*
X151136963Y-106841213D01*
X151260834Y-106841213D01*
X151262243Y-106869090D01*
X151272858Y-106921255D01*
X151292637Y-106953587D01*
X151320238Y-106964492D01*
X151354319Y-106952374D01*
X151363238Y-106945304D01*
X151383244Y-106913724D01*
X151394667Y-106863744D01*
X151398299Y-106792487D01*
X151398299Y-106731188D01*
X151354289Y-106731188D01*
X151321396Y-106735924D01*
X151285131Y-106756336D01*
X151278465Y-106763871D01*
X151264442Y-106794753D01*
X151260834Y-106841213D01*
X151136963Y-106841213D01*
X151138829Y-106811376D01*
X151152433Y-106765767D01*
X151161308Y-106747549D01*
X151163425Y-106734179D01*
X151152356Y-106731188D01*
X151142120Y-106725524D01*
X151136024Y-106703607D01*
X151134240Y-106661068D01*
X151134240Y-106590948D01*
X151376294Y-106595053D01*
X151432268Y-106596169D01*
X151516066Y-106599106D01*
X151580142Y-106604058D01*
X151627989Y-106612002D01*
X151663100Y-106623917D01*
X151688969Y-106640780D01*
X151709088Y-106663572D01*
X151726952Y-106693269D01*
X151733772Y-106708589D01*
X151746645Y-106761589D01*
X151751967Y-106825513D01*
X151749835Y-106891602D01*
X151740348Y-106951099D01*
X151723601Y-106995247D01*
X151713877Y-107010604D01*
X151685057Y-107045960D01*
X151660925Y-107057926D01*
X151656262Y-107055020D01*
X151639974Y-107036909D01*
X151618245Y-107007672D01*
X151608075Y-106992725D01*
X151593665Y-106967270D01*
X151592289Y-106950728D01*
X151602235Y-106935370D01*
X151622378Y-106897094D01*
X151630662Y-106845590D01*
X151624320Y-106792957D01*
X151624032Y-106791961D01*
X151607904Y-106754838D01*
X151582657Y-106736463D01*
X151540904Y-106731380D01*
X151501183Y-106731188D01*
X151496894Y-106862423D01*
X151496189Y-106883331D01*
X151493736Y-106936043D01*
X151489882Y-106971381D01*
X151483184Y-106995267D01*
X151472198Y-107013624D01*
X151455482Y-107032376D01*
X151416818Y-107063337D01*
X151359606Y-107086029D01*
X151320238Y-107088254D01*
X151299729Y-107089413D01*
G36*
X152317752Y-110663373D02*
G01*
X152269730Y-110659688D01*
X152235694Y-110653410D01*
X152208724Y-110643044D01*
X152181904Y-110627092D01*
X152180887Y-110626412D01*
X152137433Y-110587132D01*
X152104290Y-110539072D01*
X152084623Y-110483185D01*
X152078238Y-110409666D01*
X152079486Y-110402505D01*
X152215409Y-110402505D01*
X152218940Y-110451802D01*
X152245368Y-110498917D01*
X152257990Y-110512207D01*
X152279597Y-110526397D01*
X152309968Y-110534266D01*
X152357292Y-110538726D01*
X152392843Y-110539955D01*
X152465442Y-110533224D01*
X152517420Y-110512567D01*
X152549063Y-110477894D01*
X152564215Y-110437249D01*
X152562939Y-110388777D01*
X152537359Y-110343845D01*
X152527620Y-110333103D01*
X152510582Y-110319548D01*
X152488290Y-110311505D01*
X152454115Y-110307043D01*
X152401424Y-110304228D01*
X152364539Y-110302920D01*
X152324488Y-110303174D01*
X152297749Y-110307421D01*
X152277203Y-110317096D01*
X152255731Y-110333638D01*
X152234423Y-110356593D01*
X152215409Y-110402505D01*
X152079486Y-110402505D01*
X152090794Y-110337609D01*
X152121051Y-110273201D01*
X152167768Y-110222627D01*
X152189841Y-110208108D01*
X152258460Y-110180993D01*
X152343123Y-110167546D01*
X152439711Y-110168583D01*
X152453411Y-110169907D01*
X152541154Y-110188374D01*
X152609269Y-110222540D01*
X152657831Y-110272479D01*
X152686914Y-110338261D01*
X152696591Y-110419961D01*
X152695683Y-110450828D01*
X152684569Y-110514128D01*
X152658041Y-110565889D01*
X152612626Y-110614147D01*
X152603511Y-110621865D01*
X152572814Y-110642681D01*
X152538055Y-110656362D01*
X152494006Y-110663948D01*
X152435441Y-110666479D01*
X152392843Y-110665672D01*
X152357131Y-110664997D01*
X152317752Y-110663373D01*
G37*
X152317752Y-110663373D02*
X152269730Y-110659688D01*
X152235694Y-110653410D01*
X152208724Y-110643044D01*
X152181904Y-110627092D01*
X152180887Y-110626412D01*
X152137433Y-110587132D01*
X152104290Y-110539072D01*
X152084623Y-110483185D01*
X152078238Y-110409666D01*
X152079486Y-110402505D01*
X152215409Y-110402505D01*
X152218940Y-110451802D01*
X152245368Y-110498917D01*
X152257990Y-110512207D01*
X152279597Y-110526397D01*
X152309968Y-110534266D01*
X152357292Y-110538726D01*
X152392843Y-110539955D01*
X152465442Y-110533224D01*
X152517420Y-110512567D01*
X152549063Y-110477894D01*
X152564215Y-110437249D01*
X152562939Y-110388777D01*
X152537359Y-110343845D01*
X152527620Y-110333103D01*
X152510582Y-110319548D01*
X152488290Y-110311505D01*
X152454115Y-110307043D01*
X152401424Y-110304228D01*
X152364539Y-110302920D01*
X152324488Y-110303174D01*
X152297749Y-110307421D01*
X152277203Y-110317096D01*
X152255731Y-110333638D01*
X152234423Y-110356593D01*
X152215409Y-110402505D01*
X152079486Y-110402505D01*
X152090794Y-110337609D01*
X152121051Y-110273201D01*
X152167768Y-110222627D01*
X152189841Y-110208108D01*
X152258460Y-110180993D01*
X152343123Y-110167546D01*
X152439711Y-110168583D01*
X152453411Y-110169907D01*
X152541154Y-110188374D01*
X152609269Y-110222540D01*
X152657831Y-110272479D01*
X152686914Y-110338261D01*
X152696591Y-110419961D01*
X152695683Y-110450828D01*
X152684569Y-110514128D01*
X152658041Y-110565889D01*
X152612626Y-110614147D01*
X152603511Y-110621865D01*
X152572814Y-110642681D01*
X152538055Y-110656362D01*
X152494006Y-110663948D01*
X152435441Y-110666479D01*
X152392843Y-110665672D01*
X152357131Y-110664997D01*
X152317752Y-110663373D01*
G36*
X152348291Y-107532857D02*
G01*
X152308497Y-107529349D01*
X152232524Y-107513844D01*
X152174551Y-107486110D01*
X152130762Y-107443898D01*
X152097340Y-107384960D01*
X152089386Y-107362076D01*
X152080085Y-107306536D01*
X152216958Y-107306536D01*
X152224042Y-107344448D01*
X152234201Y-107359244D01*
X152269728Y-107380014D01*
X152325330Y-107393083D01*
X152398296Y-107397624D01*
X152419300Y-107397551D01*
X152461859Y-107395974D01*
X152489623Y-107390728D01*
X152510137Y-107379723D01*
X152530950Y-107360868D01*
X152556175Y-107324989D01*
X152566489Y-107278280D01*
X152556666Y-107233151D01*
X152528257Y-107195680D01*
X152482809Y-107171943D01*
X152443565Y-107163675D01*
X152378357Y-107159976D01*
X152317517Y-107167549D01*
X152267524Y-107185341D01*
X152234858Y-107212296D01*
X152229250Y-107222513D01*
X152219055Y-107261473D01*
X152216958Y-107306536D01*
X152080085Y-107306536D01*
X152079461Y-107302812D01*
X152079731Y-107240447D01*
X152090632Y-107187823D01*
X152091028Y-107186789D01*
X152115975Y-107144381D01*
X152154594Y-107101537D01*
X152198756Y-107065986D01*
X152240335Y-107045459D01*
X152270728Y-107039374D01*
X152327633Y-107034164D01*
X152392441Y-107033049D01*
X152456946Y-107035844D01*
X152512941Y-107042366D01*
X152552220Y-107052432D01*
X152596690Y-107075877D01*
X152651370Y-107125637D01*
X152686007Y-107189238D01*
X152699717Y-107264790D01*
X152691614Y-107350399D01*
X152688163Y-107364644D01*
X152658398Y-107430982D01*
X152609532Y-107480971D01*
X152541561Y-107514612D01*
X152454482Y-107531906D01*
X152398296Y-107532410D01*
X152348291Y-107532857D01*
G37*
X152348291Y-107532857D02*
X152308497Y-107529349D01*
X152232524Y-107513844D01*
X152174551Y-107486110D01*
X152130762Y-107443898D01*
X152097340Y-107384960D01*
X152089386Y-107362076D01*
X152080085Y-107306536D01*
X152216958Y-107306536D01*
X152224042Y-107344448D01*
X152234201Y-107359244D01*
X152269728Y-107380014D01*
X152325330Y-107393083D01*
X152398296Y-107397624D01*
X152419300Y-107397551D01*
X152461859Y-107395974D01*
X152489623Y-107390728D01*
X152510137Y-107379723D01*
X152530950Y-107360868D01*
X152556175Y-107324989D01*
X152566489Y-107278280D01*
X152556666Y-107233151D01*
X152528257Y-107195680D01*
X152482809Y-107171943D01*
X152443565Y-107163675D01*
X152378357Y-107159976D01*
X152317517Y-107167549D01*
X152267524Y-107185341D01*
X152234858Y-107212296D01*
X152229250Y-107222513D01*
X152219055Y-107261473D01*
X152216958Y-107306536D01*
X152080085Y-107306536D01*
X152079461Y-107302812D01*
X152079731Y-107240447D01*
X152090632Y-107187823D01*
X152091028Y-107186789D01*
X152115975Y-107144381D01*
X152154594Y-107101537D01*
X152198756Y-107065986D01*
X152240335Y-107045459D01*
X152270728Y-107039374D01*
X152327633Y-107034164D01*
X152392441Y-107033049D01*
X152456946Y-107035844D01*
X152512941Y-107042366D01*
X152552220Y-107052432D01*
X152596690Y-107075877D01*
X152651370Y-107125637D01*
X152686007Y-107189238D01*
X152699717Y-107264790D01*
X152691614Y-107350399D01*
X152688163Y-107364644D01*
X152658398Y-107430982D01*
X152609532Y-107480971D01*
X152541561Y-107514612D01*
X152454482Y-107531906D01*
X152398296Y-107532410D01*
X152348291Y-107532857D01*
G36*
X151136726Y-110009926D02*
G01*
X151140527Y-109943911D01*
X151341715Y-109940772D01*
X151390637Y-109939844D01*
X151464136Y-109937208D01*
X151518071Y-109932683D01*
X151556067Y-109925438D01*
X151581749Y-109914642D01*
X151598742Y-109899462D01*
X151610673Y-109879066D01*
X151622857Y-109840797D01*
X151618122Y-109802738D01*
X151592083Y-109762549D01*
X151559529Y-109723861D01*
X151134240Y-109723861D01*
X151134240Y-109585544D01*
X151364886Y-109585544D01*
X151437180Y-109585677D01*
X151501421Y-109586413D01*
X151548444Y-109588181D01*
X151582514Y-109591411D01*
X151607892Y-109596530D01*
X151628841Y-109603967D01*
X151649626Y-109614150D01*
X151654038Y-109616564D01*
X151697015Y-109648675D01*
X151727049Y-109686256D01*
X151742819Y-109731564D01*
X151749840Y-109791561D01*
X151746037Y-109851643D01*
X151731194Y-109900525D01*
X151712010Y-109937624D01*
X152127203Y-109937624D01*
X152100708Y-109886792D01*
X152091082Y-109865558D01*
X152084011Y-109830742D01*
X152215626Y-109830742D01*
X152218591Y-109865559D01*
X152233431Y-109900020D01*
X152263493Y-109922215D01*
X152311808Y-109934097D01*
X152381412Y-109937624D01*
X152418438Y-109936712D01*
X152488334Y-109927609D01*
X152535598Y-109908828D01*
X152559894Y-109880476D01*
X152566730Y-109851840D01*
X152563525Y-109801970D01*
X152543682Y-109759833D01*
X152534582Y-109749749D01*
X152518839Y-109739063D01*
X152495404Y-109732456D01*
X152458458Y-109728532D01*
X152402182Y-109725897D01*
X152364826Y-109724749D01*
X152320213Y-109724861D01*
X152290461Y-109728272D01*
X152269227Y-109735937D01*
X152250166Y-109748814D01*
X152232445Y-109765171D01*
X152219034Y-109791329D01*
X152215626Y-109830742D01*
X152084011Y-109830742D01*
X152077470Y-109798536D01*
X152086878Y-109731930D01*
X152118157Y-109670187D01*
X152170160Y-109617757D01*
X152182382Y-109609543D01*
X152200299Y-109601649D01*
X152224658Y-109596500D01*
X152260135Y-109593527D01*
X152311406Y-109592161D01*
X152383145Y-109591831D01*
X152415878Y-109591944D01*
X152492018Y-109593872D01*
X152548896Y-109599240D01*
X152590813Y-109609406D01*
X152622066Y-109625725D01*
X152646956Y-109649553D01*
X152669780Y-109682247D01*
X152682878Y-109708759D01*
X152697323Y-109771615D01*
X152695355Y-109837869D01*
X152676629Y-109896757D01*
X152664389Y-109922030D01*
X152663124Y-109934742D01*
X152674264Y-109937624D01*
X152674601Y-109937626D01*
X152685975Y-109943838D01*
X152691806Y-109965260D01*
X152693448Y-110006782D01*
X152693448Y-110075940D01*
X151132926Y-110075940D01*
X151136726Y-110009926D01*
G37*
X151136726Y-110009926D02*
X151140527Y-109943911D01*
X151341715Y-109940772D01*
X151390637Y-109939844D01*
X151464136Y-109937208D01*
X151518071Y-109932683D01*
X151556067Y-109925438D01*
X151581749Y-109914642D01*
X151598742Y-109899462D01*
X151610673Y-109879066D01*
X151622857Y-109840797D01*
X151618122Y-109802738D01*
X151592083Y-109762549D01*
X151559529Y-109723861D01*
X151134240Y-109723861D01*
X151134240Y-109585544D01*
X151364886Y-109585544D01*
X151437180Y-109585677D01*
X151501421Y-109586413D01*
X151548444Y-109588181D01*
X151582514Y-109591411D01*
X151607892Y-109596530D01*
X151628841Y-109603967D01*
X151649626Y-109614150D01*
X151654038Y-109616564D01*
X151697015Y-109648675D01*
X151727049Y-109686256D01*
X151742819Y-109731564D01*
X151749840Y-109791561D01*
X151746037Y-109851643D01*
X151731194Y-109900525D01*
X151712010Y-109937624D01*
X152127203Y-109937624D01*
X152100708Y-109886792D01*
X152091082Y-109865558D01*
X152084011Y-109830742D01*
X152215626Y-109830742D01*
X152218591Y-109865559D01*
X152233431Y-109900020D01*
X152263493Y-109922215D01*
X152311808Y-109934097D01*
X152381412Y-109937624D01*
X152418438Y-109936712D01*
X152488334Y-109927609D01*
X152535598Y-109908828D01*
X152559894Y-109880476D01*
X152566730Y-109851840D01*
X152563525Y-109801970D01*
X152543682Y-109759833D01*
X152534582Y-109749749D01*
X152518839Y-109739063D01*
X152495404Y-109732456D01*
X152458458Y-109728532D01*
X152402182Y-109725897D01*
X152364826Y-109724749D01*
X152320213Y-109724861D01*
X152290461Y-109728272D01*
X152269227Y-109735937D01*
X152250166Y-109748814D01*
X152232445Y-109765171D01*
X152219034Y-109791329D01*
X152215626Y-109830742D01*
X152084011Y-109830742D01*
X152077470Y-109798536D01*
X152086878Y-109731930D01*
X152118157Y-109670187D01*
X152170160Y-109617757D01*
X152182382Y-109609543D01*
X152200299Y-109601649D01*
X152224658Y-109596500D01*
X152260135Y-109593527D01*
X152311406Y-109592161D01*
X152383145Y-109591831D01*
X152415878Y-109591944D01*
X152492018Y-109593872D01*
X152548896Y-109599240D01*
X152590813Y-109609406D01*
X152622066Y-109625725D01*
X152646956Y-109649553D01*
X152669780Y-109682247D01*
X152682878Y-109708759D01*
X152697323Y-109771615D01*
X152695355Y-109837869D01*
X152676629Y-109896757D01*
X152664389Y-109922030D01*
X152663124Y-109934742D01*
X152674264Y-109937624D01*
X152674601Y-109937626D01*
X152685975Y-109943838D01*
X152691806Y-109965260D01*
X152693448Y-110006782D01*
X152693448Y-110075940D01*
X151132926Y-110075940D01*
X151136726Y-110009926D01*
G36*
X151715974Y-108492543D02*
G01*
X151732178Y-108515602D01*
X151743549Y-108551995D01*
X151749322Y-108596544D01*
X151748728Y-108644072D01*
X151740999Y-108689400D01*
X151725368Y-108727351D01*
X151718069Y-108739381D01*
X151707386Y-108759632D01*
X151709832Y-108767129D01*
X151725415Y-108768218D01*
X151731009Y-108768473D01*
X151743402Y-108774539D01*
X151749042Y-108793356D01*
X151750379Y-108831089D01*
X151750379Y-108893960D01*
X151134240Y-108893960D01*
X151134240Y-108768218D01*
X151328322Y-108768218D01*
X151373468Y-108768078D01*
X151448239Y-108766649D01*
X151503595Y-108763029D01*
X151543360Y-108756434D01*
X151571362Y-108746079D01*
X151591427Y-108731178D01*
X151607381Y-108710946D01*
X151619270Y-108688859D01*
X151622641Y-108662705D01*
X151615145Y-108625508D01*
X151612024Y-108613555D01*
X151607327Y-108583718D01*
X151614057Y-108562383D01*
X151634885Y-108537655D01*
X151639415Y-108532963D01*
X151667436Y-108507020D01*
X151690219Y-108490291D01*
X151695707Y-108487996D01*
X151715974Y-108492543D01*
G37*
X151715974Y-108492543D02*
X151732178Y-108515602D01*
X151743549Y-108551995D01*
X151749322Y-108596544D01*
X151748728Y-108644072D01*
X151740999Y-108689400D01*
X151725368Y-108727351D01*
X151718069Y-108739381D01*
X151707386Y-108759632D01*
X151709832Y-108767129D01*
X151725415Y-108768218D01*
X151731009Y-108768473D01*
X151743402Y-108774539D01*
X151749042Y-108793356D01*
X151750379Y-108831089D01*
X151750379Y-108893960D01*
X151134240Y-108893960D01*
X151134240Y-108768218D01*
X151328322Y-108768218D01*
X151373468Y-108768078D01*
X151448239Y-108766649D01*
X151503595Y-108763029D01*
X151543360Y-108756434D01*
X151571362Y-108746079D01*
X151591427Y-108731178D01*
X151607381Y-108710946D01*
X151619270Y-108688859D01*
X151622641Y-108662705D01*
X151615145Y-108625508D01*
X151612024Y-108613555D01*
X151607327Y-108583718D01*
X151614057Y-108562383D01*
X151634885Y-108537655D01*
X151639415Y-108532963D01*
X151667436Y-108507020D01*
X151690219Y-108490291D01*
X151695707Y-108487996D01*
X151715974Y-108492543D01*
G36*
X152664121Y-105929442D02*
G01*
X152680817Y-105957289D01*
X152694032Y-106000540D01*
X152700584Y-106047464D01*
X152698117Y-106087128D01*
X152688494Y-106117954D01*
X152672499Y-106155916D01*
X152663903Y-106174296D01*
X152662349Y-106187561D01*
X152674264Y-106190495D01*
X152674601Y-106190498D01*
X152685975Y-106196709D01*
X152691806Y-106218131D01*
X152693448Y-106259653D01*
X152693448Y-106328812D01*
X152089883Y-106328812D01*
X152089883Y-106190495D01*
X152506035Y-106190495D01*
X152537901Y-106156110D01*
X152546958Y-106145368D01*
X152562432Y-106113370D01*
X152563052Y-106073965D01*
X152549398Y-106020312D01*
X152548533Y-106002225D01*
X152561779Y-105981008D01*
X152593262Y-105952768D01*
X152610677Y-105939069D01*
X152635265Y-105922868D01*
X152650917Y-105920371D01*
X152664121Y-105929442D01*
G37*
X152664121Y-105929442D02*
X152680817Y-105957289D01*
X152694032Y-106000540D01*
X152700584Y-106047464D01*
X152698117Y-106087128D01*
X152688494Y-106117954D01*
X152672499Y-106155916D01*
X152663903Y-106174296D01*
X152662349Y-106187561D01*
X152674264Y-106190495D01*
X152674601Y-106190498D01*
X152685975Y-106196709D01*
X152691806Y-106218131D01*
X152693448Y-106259653D01*
X152693448Y-106328812D01*
X152089883Y-106328812D01*
X152089883Y-106190495D01*
X152506035Y-106190495D01*
X152537901Y-106156110D01*
X152546958Y-106145368D01*
X152562432Y-106113370D01*
X152563052Y-106073965D01*
X152549398Y-106020312D01*
X152548533Y-106002225D01*
X152561779Y-105981008D01*
X152593262Y-105952768D01*
X152610677Y-105939069D01*
X152635265Y-105922868D01*
X152650917Y-105920371D01*
X152664121Y-105929442D01*
D13*
%TO.C,J1*%
X141030000Y-83765000D02*
X139700000Y-83765000D01*
X141030000Y-86365000D02*
X141030000Y-134685000D01*
X141030000Y-85095000D02*
X141030000Y-83765000D01*
X138370000Y-86365000D02*
X138370000Y-134685000D01*
X141030000Y-86365000D02*
X138370000Y-86365000D01*
X141030000Y-134685000D02*
X138370000Y-134685000D01*
%TO.C,REF\u002A\u002A*%
G36*
X157168532Y-120683136D02*
G01*
X157264842Y-120709399D01*
X157353568Y-120754418D01*
X157428643Y-120815373D01*
X157488421Y-120890184D01*
X157531253Y-120976768D01*
X157555491Y-121073043D01*
X157559486Y-121176928D01*
X157549212Y-121254562D01*
X157522009Y-121337313D01*
X157476578Y-121412406D01*
X157410760Y-121484298D01*
X157366495Y-121522846D01*
X157308101Y-121562256D01*
X157247476Y-121587446D01*
X157178197Y-121600861D01*
X157093840Y-121604948D01*
X157047755Y-121604669D01*
X157006612Y-121602460D01*
X156974480Y-121596894D01*
X156943940Y-121586586D01*
X156907573Y-121570148D01*
X156880334Y-121556200D01*
X156794633Y-121497665D01*
X156725445Y-121425619D01*
X156674321Y-121341947D01*
X156642812Y-121248531D01*
X156635837Y-121215434D01*
X156628968Y-121174960D01*
X156627143Y-121141999D01*
X156630115Y-121107698D01*
X156637636Y-121063200D01*
X156650060Y-121011934D01*
X156687950Y-120921434D01*
X156742226Y-120842345D01*
X156810292Y-120776528D01*
X156889551Y-120725840D01*
X156977408Y-120692140D01*
X157071267Y-120677286D01*
X157168532Y-120683136D01*
G37*
D14*
X157168532Y-120683136D02*
X157264842Y-120709399D01*
X157353568Y-120754418D01*
X157428643Y-120815373D01*
X157488421Y-120890184D01*
X157531253Y-120976768D01*
X157555491Y-121073043D01*
X157559486Y-121176928D01*
X157549212Y-121254562D01*
X157522009Y-121337313D01*
X157476578Y-121412406D01*
X157410760Y-121484298D01*
X157366495Y-121522846D01*
X157308101Y-121562256D01*
X157247476Y-121587446D01*
X157178197Y-121600861D01*
X157093840Y-121604948D01*
X157047755Y-121604669D01*
X157006612Y-121602460D01*
X156974480Y-121596894D01*
X156943940Y-121586586D01*
X156907573Y-121570148D01*
X156880334Y-121556200D01*
X156794633Y-121497665D01*
X156725445Y-121425619D01*
X156674321Y-121341947D01*
X156642812Y-121248531D01*
X156635837Y-121215434D01*
X156628968Y-121174960D01*
X156627143Y-121141999D01*
X156630115Y-121107698D01*
X156637636Y-121063200D01*
X156650060Y-121011934D01*
X156687950Y-120921434D01*
X156742226Y-120842345D01*
X156810292Y-120776528D01*
X156889551Y-120725840D01*
X156977408Y-120692140D01*
X157071267Y-120677286D01*
X157168532Y-120683136D01*
G36*
X153938595Y-117527755D02*
G01*
X153904699Y-117527261D01*
X153829860Y-117523632D01*
X153767661Y-117516022D01*
X153711078Y-117503688D01*
X153584986Y-117459313D01*
X153470383Y-117396400D01*
X153369494Y-117316238D01*
X153283138Y-117219740D01*
X153212130Y-117107822D01*
X153157286Y-116981397D01*
X153119424Y-116841378D01*
X153113711Y-116805149D01*
X153107749Y-116726155D01*
X153107416Y-116637841D01*
X153112403Y-116548075D01*
X153122396Y-116464722D01*
X153127515Y-116440648D01*
X153670679Y-116440648D01*
X153673522Y-116516011D01*
X153685442Y-116576743D01*
X153708025Y-116628452D01*
X153742851Y-116676746D01*
X153747264Y-116681803D01*
X153802902Y-116730272D01*
X153866729Y-116758459D01*
X153941780Y-116767752D01*
X154013369Y-116760520D01*
X154076417Y-116735796D01*
X154134304Y-116691249D01*
X154181254Y-116636319D01*
X154221101Y-116563894D01*
X154248799Y-116477340D01*
X154264966Y-116374670D01*
X154270220Y-116253894D01*
X154270205Y-116245007D01*
X154269407Y-116189660D01*
X154267574Y-116142736D01*
X154264951Y-116108953D01*
X154261788Y-116093028D01*
X154255321Y-116088943D01*
X154233187Y-116084572D01*
X154194074Y-116081604D01*
X154136123Y-116079914D01*
X154057476Y-116079378D01*
X153861600Y-116079378D01*
X153805089Y-116124048D01*
X153789850Y-116136785D01*
X153747218Y-116183604D01*
X153711390Y-116244255D01*
X153706212Y-116254897D01*
X153689317Y-116293676D01*
X153679153Y-116328692D01*
X153673737Y-116368722D01*
X153671084Y-116422541D01*
X153670679Y-116440648D01*
X153127515Y-116440648D01*
X153137084Y-116395651D01*
X153167313Y-116309187D01*
X153222005Y-116199286D01*
X153289519Y-116101956D01*
X153340506Y-116039867D01*
X153244440Y-116036605D01*
X153148373Y-116033343D01*
X153148373Y-115610450D01*
X153148376Y-115599543D01*
X153148682Y-115505056D01*
X153149446Y-115418331D01*
X153150611Y-115341837D01*
X153152120Y-115278043D01*
X153153915Y-115229418D01*
X153155941Y-115198433D01*
X153158140Y-115187556D01*
X153158599Y-115187578D01*
X153174152Y-115194614D01*
X153196991Y-115210434D01*
X153202424Y-115214734D01*
X153216456Y-115225777D01*
X153229876Y-115235311D01*
X153244340Y-115243461D01*
X153261506Y-115250352D01*
X153283028Y-115256111D01*
X153310564Y-115260862D01*
X153345770Y-115264731D01*
X153390302Y-115267844D01*
X153445816Y-115270325D01*
X153513969Y-115272300D01*
X153596417Y-115273894D01*
X153694816Y-115275234D01*
X153810823Y-115276444D01*
X153946094Y-115277649D01*
X154102284Y-115278975D01*
X154245050Y-115280228D01*
X154390120Y-115281651D01*
X154516035Y-115283176D01*
X154624626Y-115284933D01*
X154717728Y-115287051D01*
X154797171Y-115289660D01*
X154864789Y-115292890D01*
X154922413Y-115296869D01*
X154971877Y-115301728D01*
X155015012Y-115307597D01*
X155053652Y-115314604D01*
X155089628Y-115322880D01*
X155124773Y-115332554D01*
X155160920Y-115343756D01*
X155199901Y-115356616D01*
X155242971Y-115372090D01*
X155335191Y-115414994D01*
X155414963Y-115468735D01*
X155489097Y-115537576D01*
X155552657Y-115615185D01*
X155614337Y-115719761D01*
X155661860Y-115839244D01*
X155695495Y-115974508D01*
X155715510Y-116126426D01*
X155722173Y-116295872D01*
X155721775Y-116353890D01*
X155719727Y-116419398D01*
X155715358Y-116480693D01*
X155708027Y-116542097D01*
X155697093Y-116607932D01*
X155681915Y-116682520D01*
X155661853Y-116770184D01*
X155636265Y-116875245D01*
X155629242Y-116903806D01*
X155611286Y-116979054D01*
X155595242Y-117049388D01*
X155582034Y-117110567D01*
X155572588Y-117158354D01*
X155567831Y-117188511D01*
X155564152Y-117216783D01*
X155558875Y-117243060D01*
X155554120Y-117253059D01*
X155545281Y-117249952D01*
X155517990Y-117239194D01*
X155475156Y-117221864D01*
X155419637Y-117199126D01*
X155354290Y-117172147D01*
X155281973Y-117142090D01*
X155266183Y-117135493D01*
X155175578Y-117096907D01*
X155105845Y-117065768D01*
X155056657Y-117041917D01*
X155027688Y-117025198D01*
X155018610Y-117015454D01*
X155020657Y-117007766D01*
X155030302Y-116981415D01*
X155045872Y-116942982D01*
X155065247Y-116897822D01*
X155103248Y-116803293D01*
X155144282Y-116666480D01*
X155169450Y-116525289D01*
X155173451Y-116487314D01*
X155175615Y-116384059D01*
X155162440Y-116296952D01*
X155133306Y-116225129D01*
X155087596Y-116167731D01*
X155024690Y-116123896D01*
X154943970Y-116092762D01*
X154844817Y-116073470D01*
X154785838Y-116066050D01*
X154792617Y-116227936D01*
X154794249Y-116354495D01*
X154787868Y-116505951D01*
X154773285Y-116654396D01*
X154751180Y-116790578D01*
X154736241Y-116855245D01*
X154693321Y-116987490D01*
X154636722Y-117109762D01*
X154568045Y-117219685D01*
X154488892Y-117314883D01*
X154400866Y-117392980D01*
X154305569Y-117451599D01*
X154253198Y-117475595D01*
X154182472Y-117501232D01*
X154111250Y-117517478D01*
X154032350Y-117525822D01*
X153941780Y-117527690D01*
X153938595Y-117527755D01*
G37*
X153938595Y-117527755D02*
X153904699Y-117527261D01*
X153829860Y-117523632D01*
X153767661Y-117516022D01*
X153711078Y-117503688D01*
X153584986Y-117459313D01*
X153470383Y-117396400D01*
X153369494Y-117316238D01*
X153283138Y-117219740D01*
X153212130Y-117107822D01*
X153157286Y-116981397D01*
X153119424Y-116841378D01*
X153113711Y-116805149D01*
X153107749Y-116726155D01*
X153107416Y-116637841D01*
X153112403Y-116548075D01*
X153122396Y-116464722D01*
X153127515Y-116440648D01*
X153670679Y-116440648D01*
X153673522Y-116516011D01*
X153685442Y-116576743D01*
X153708025Y-116628452D01*
X153742851Y-116676746D01*
X153747264Y-116681803D01*
X153802902Y-116730272D01*
X153866729Y-116758459D01*
X153941780Y-116767752D01*
X154013369Y-116760520D01*
X154076417Y-116735796D01*
X154134304Y-116691249D01*
X154181254Y-116636319D01*
X154221101Y-116563894D01*
X154248799Y-116477340D01*
X154264966Y-116374670D01*
X154270220Y-116253894D01*
X154270205Y-116245007D01*
X154269407Y-116189660D01*
X154267574Y-116142736D01*
X154264951Y-116108953D01*
X154261788Y-116093028D01*
X154255321Y-116088943D01*
X154233187Y-116084572D01*
X154194074Y-116081604D01*
X154136123Y-116079914D01*
X154057476Y-116079378D01*
X153861600Y-116079378D01*
X153805089Y-116124048D01*
X153789850Y-116136785D01*
X153747218Y-116183604D01*
X153711390Y-116244255D01*
X153706212Y-116254897D01*
X153689317Y-116293676D01*
X153679153Y-116328692D01*
X153673737Y-116368722D01*
X153671084Y-116422541D01*
X153670679Y-116440648D01*
X153127515Y-116440648D01*
X153137084Y-116395651D01*
X153167313Y-116309187D01*
X153222005Y-116199286D01*
X153289519Y-116101956D01*
X153340506Y-116039867D01*
X153244440Y-116036605D01*
X153148373Y-116033343D01*
X153148373Y-115610450D01*
X153148376Y-115599543D01*
X153148682Y-115505056D01*
X153149446Y-115418331D01*
X153150611Y-115341837D01*
X153152120Y-115278043D01*
X153153915Y-115229418D01*
X153155941Y-115198433D01*
X153158140Y-115187556D01*
X153158599Y-115187578D01*
X153174152Y-115194614D01*
X153196991Y-115210434D01*
X153202424Y-115214734D01*
X153216456Y-115225777D01*
X153229876Y-115235311D01*
X153244340Y-115243461D01*
X153261506Y-115250352D01*
X153283028Y-115256111D01*
X153310564Y-115260862D01*
X153345770Y-115264731D01*
X153390302Y-115267844D01*
X153445816Y-115270325D01*
X153513969Y-115272300D01*
X153596417Y-115273894D01*
X153694816Y-115275234D01*
X153810823Y-115276444D01*
X153946094Y-115277649D01*
X154102284Y-115278975D01*
X154245050Y-115280228D01*
X154390120Y-115281651D01*
X154516035Y-115283176D01*
X154624626Y-115284933D01*
X154717728Y-115287051D01*
X154797171Y-115289660D01*
X154864789Y-115292890D01*
X154922413Y-115296869D01*
X154971877Y-115301728D01*
X155015012Y-115307597D01*
X155053652Y-115314604D01*
X155089628Y-115322880D01*
X155124773Y-115332554D01*
X155160920Y-115343756D01*
X155199901Y-115356616D01*
X155242971Y-115372090D01*
X155335191Y-115414994D01*
X155414963Y-115468735D01*
X155489097Y-115537576D01*
X155552657Y-115615185D01*
X155614337Y-115719761D01*
X155661860Y-115839244D01*
X155695495Y-115974508D01*
X155715510Y-116126426D01*
X155722173Y-116295872D01*
X155721775Y-116353890D01*
X155719727Y-116419398D01*
X155715358Y-116480693D01*
X155708027Y-116542097D01*
X155697093Y-116607932D01*
X155681915Y-116682520D01*
X155661853Y-116770184D01*
X155636265Y-116875245D01*
X155629242Y-116903806D01*
X155611286Y-116979054D01*
X155595242Y-117049388D01*
X155582034Y-117110567D01*
X155572588Y-117158354D01*
X155567831Y-117188511D01*
X155564152Y-117216783D01*
X155558875Y-117243060D01*
X155554120Y-117253059D01*
X155545281Y-117249952D01*
X155517990Y-117239194D01*
X155475156Y-117221864D01*
X155419637Y-117199126D01*
X155354290Y-117172147D01*
X155281973Y-117142090D01*
X155266183Y-117135493D01*
X155175578Y-117096907D01*
X155105845Y-117065768D01*
X155056657Y-117041917D01*
X155027688Y-117025198D01*
X155018610Y-117015454D01*
X155020657Y-117007766D01*
X155030302Y-116981415D01*
X155045872Y-116942982D01*
X155065247Y-116897822D01*
X155103248Y-116803293D01*
X155144282Y-116666480D01*
X155169450Y-116525289D01*
X155173451Y-116487314D01*
X155175615Y-116384059D01*
X155162440Y-116296952D01*
X155133306Y-116225129D01*
X155087596Y-116167731D01*
X155024690Y-116123896D01*
X154943970Y-116092762D01*
X154844817Y-116073470D01*
X154785838Y-116066050D01*
X154792617Y-116227936D01*
X154794249Y-116354495D01*
X154787868Y-116505951D01*
X154773285Y-116654396D01*
X154751180Y-116790578D01*
X154736241Y-116855245D01*
X154693321Y-116987490D01*
X154636722Y-117109762D01*
X154568045Y-117219685D01*
X154488892Y-117314883D01*
X154400866Y-117392980D01*
X154305569Y-117451599D01*
X154253198Y-117475595D01*
X154182472Y-117501232D01*
X154111250Y-117517478D01*
X154032350Y-117525822D01*
X153941780Y-117527690D01*
X153938595Y-117527755D01*
G36*
X156470270Y-125075614D02*
G01*
X156339051Y-125076059D01*
X156191846Y-125076362D01*
X156027713Y-125076548D01*
X155845710Y-125076642D01*
X155644897Y-125076671D01*
X155424330Y-125076661D01*
X155183070Y-125076636D01*
X154920173Y-125076622D01*
X154878022Y-125076622D01*
X154617394Y-125076646D01*
X154378266Y-125076685D01*
X154159702Y-125076708D01*
X153960767Y-125076687D01*
X153780527Y-125076593D01*
X153618047Y-125076395D01*
X153472392Y-125076063D01*
X153342628Y-125075569D01*
X153227819Y-125074883D01*
X153127032Y-125073976D01*
X153039332Y-125072817D01*
X152963783Y-125071378D01*
X152899451Y-125069629D01*
X152845401Y-125067540D01*
X152800699Y-125065083D01*
X152764410Y-125062227D01*
X152735599Y-125058943D01*
X152713331Y-125055202D01*
X152696672Y-125050974D01*
X152684687Y-125046229D01*
X152676441Y-125040939D01*
X152671000Y-125035073D01*
X152667428Y-125028602D01*
X152664792Y-125021497D01*
X152662156Y-125013728D01*
X152658585Y-125005266D01*
X152656917Y-125000908D01*
X152654951Y-124992395D01*
X152653151Y-124979694D01*
X152651507Y-124961885D01*
X152650015Y-124938049D01*
X152648665Y-124907266D01*
X152647451Y-124868617D01*
X152646365Y-124821182D01*
X152645506Y-124770296D01*
X153159662Y-124770296D01*
X153217279Y-124731523D01*
X153226169Y-124725432D01*
X153240993Y-124714976D01*
X153254640Y-124705579D01*
X153268297Y-124697183D01*
X153283151Y-124689733D01*
X153300392Y-124683173D01*
X153321207Y-124677446D01*
X153346782Y-124672495D01*
X153378307Y-124668266D01*
X153416969Y-124664701D01*
X153463955Y-124661744D01*
X153520454Y-124659340D01*
X153587653Y-124657431D01*
X153666740Y-124655962D01*
X153758902Y-124654876D01*
X153865328Y-124654118D01*
X153987205Y-124653630D01*
X154125721Y-124653358D01*
X154282063Y-124653243D01*
X154457420Y-124653231D01*
X154652980Y-124653265D01*
X154869929Y-124653289D01*
X154992549Y-124653280D01*
X155197615Y-124653243D01*
X155381946Y-124653227D01*
X155546728Y-124653288D01*
X155693146Y-124653484D01*
X155822388Y-124653870D01*
X155935640Y-124654505D01*
X156034087Y-124655444D01*
X156118918Y-124656745D01*
X156191318Y-124658464D01*
X156252473Y-124660659D01*
X156303570Y-124663385D01*
X156345795Y-124666701D01*
X156380335Y-124670662D01*
X156408376Y-124675325D01*
X156431104Y-124680747D01*
X156449706Y-124686986D01*
X156465369Y-124694097D01*
X156479278Y-124702138D01*
X156492621Y-124711166D01*
X156506583Y-124721236D01*
X156522351Y-124732407D01*
X156580195Y-124772197D01*
X156580195Y-123712314D01*
X156517096Y-123750311D01*
X156492057Y-123764993D01*
X156464476Y-123779531D01*
X156436362Y-123791627D01*
X156405511Y-123801532D01*
X156369718Y-123809494D01*
X156326779Y-123815761D01*
X156274488Y-123820582D01*
X156210643Y-123824206D01*
X156133037Y-123826881D01*
X156039468Y-123828857D01*
X155927729Y-123830382D01*
X155795617Y-123831704D01*
X155675628Y-123832613D01*
X155558999Y-123833020D01*
X155463531Y-123832767D01*
X155389506Y-123831857D01*
X155337207Y-123830293D01*
X155306913Y-123828079D01*
X155298906Y-123825220D01*
X155302204Y-123822161D01*
X155323654Y-123804006D01*
X155360173Y-123774275D01*
X155409620Y-123734639D01*
X155469855Y-123686771D01*
X155538735Y-123632343D01*
X155614119Y-123573027D01*
X155693866Y-123510495D01*
X155775834Y-123446421D01*
X155857882Y-123382475D01*
X155937868Y-123320331D01*
X156013651Y-123261661D01*
X156083089Y-123208137D01*
X156144041Y-123161430D01*
X156194366Y-123123214D01*
X156231922Y-123095161D01*
X156254567Y-123078943D01*
X156326850Y-123033635D01*
X156406599Y-122993661D01*
X156474874Y-122972130D01*
X156532218Y-122968827D01*
X156580195Y-122974116D01*
X156579945Y-121842356D01*
X156549340Y-121881867D01*
X156541973Y-121891248D01*
X156487624Y-121954183D01*
X156419803Y-122022997D01*
X156336546Y-122099596D01*
X156235884Y-122185888D01*
X156215215Y-122203052D01*
X156165653Y-122243833D01*
X156104736Y-122293588D01*
X156034164Y-122350955D01*
X155955638Y-122414569D01*
X155870858Y-122483069D01*
X155781525Y-122555090D01*
X155689340Y-122629270D01*
X155670360Y-122644517D01*
X155596002Y-122704246D01*
X155503214Y-122778653D01*
X155412674Y-122851131D01*
X155326084Y-122920314D01*
X155245144Y-122984841D01*
X155171556Y-123043347D01*
X155107018Y-123094470D01*
X155053233Y-123136847D01*
X155011900Y-123169115D01*
X154984720Y-123189910D01*
X154973394Y-123197869D01*
X154969291Y-123196111D01*
X154948728Y-123183230D01*
X154912501Y-123158885D01*
X154862238Y-123124247D01*
X154799570Y-123080486D01*
X154726126Y-123028775D01*
X154643535Y-122970284D01*
X154553426Y-122906184D01*
X154457431Y-122837646D01*
X154357177Y-122765843D01*
X154254294Y-122691944D01*
X154150412Y-122617121D01*
X154047161Y-122542545D01*
X153946170Y-122469387D01*
X153849068Y-122398819D01*
X153757485Y-122332011D01*
X153673051Y-122270135D01*
X153597395Y-122214361D01*
X153532146Y-122165862D01*
X153478934Y-122125807D01*
X153439389Y-122095369D01*
X153414036Y-122074944D01*
X153359767Y-122028899D01*
X153303287Y-121978612D01*
X153253393Y-121931815D01*
X153159662Y-121840651D01*
X153159662Y-122995090D01*
X153235862Y-122994456D01*
X153277902Y-122995574D01*
X153313728Y-123001304D01*
X153351290Y-123013890D01*
X153399485Y-123035568D01*
X153406165Y-123038789D01*
X153455703Y-123064188D01*
X153503693Y-123090996D01*
X153540596Y-123113917D01*
X153547228Y-123118485D01*
X153578469Y-123140516D01*
X153623408Y-123172693D01*
X153679915Y-123213457D01*
X153745858Y-123261245D01*
X153819105Y-123314498D01*
X153897526Y-123371655D01*
X153978990Y-123431155D01*
X154061364Y-123491437D01*
X154142518Y-123550940D01*
X154220320Y-123608105D01*
X154292639Y-123661370D01*
X154357344Y-123709174D01*
X154412303Y-123749957D01*
X154455386Y-123782158D01*
X154484460Y-123804216D01*
X154497395Y-123814571D01*
X154501711Y-123819044D01*
X154503750Y-123823236D01*
X154501136Y-123826643D01*
X154492076Y-123829325D01*
X154474777Y-123831341D01*
X154447448Y-123832748D01*
X154408297Y-123833605D01*
X154355529Y-123833970D01*
X154287355Y-123833903D01*
X154201980Y-123833460D01*
X154097613Y-123832702D01*
X153972462Y-123831685D01*
X153927762Y-123831308D01*
X153806667Y-123830169D01*
X153705374Y-123828972D01*
X153621800Y-123827636D01*
X153553858Y-123826077D01*
X153499463Y-123824215D01*
X153456530Y-123821966D01*
X153422973Y-123819248D01*
X153396707Y-123815979D01*
X153375646Y-123812078D01*
X153357705Y-123807461D01*
X153331292Y-123799192D01*
X153269290Y-123775583D01*
X153216489Y-123749685D01*
X153179417Y-123724535D01*
X153177987Y-123723339D01*
X153173638Y-123721168D01*
X153170036Y-123723328D01*
X153167111Y-123731644D01*
X153164793Y-123747940D01*
X153163011Y-123774041D01*
X153161695Y-123811771D01*
X153160776Y-123862956D01*
X153160184Y-123929420D01*
X153159847Y-124012987D01*
X153159697Y-124115483D01*
X153159662Y-124238732D01*
X153159662Y-124770296D01*
X152645506Y-124770296D01*
X152645401Y-124764043D01*
X152644551Y-124696279D01*
X152643809Y-124616971D01*
X152643165Y-124525199D01*
X152642615Y-124420044D01*
X152642149Y-124300587D01*
X152641762Y-124165908D01*
X152641446Y-124015088D01*
X152641193Y-123847206D01*
X152640996Y-123661345D01*
X152640849Y-123456583D01*
X152640744Y-123232002D01*
X152640673Y-122986682D01*
X152640630Y-122719704D01*
X152640625Y-122681321D01*
X152640582Y-122415922D01*
X152640537Y-122172050D01*
X152640514Y-121948783D01*
X152640538Y-121745196D01*
X152640632Y-121560367D01*
X152640819Y-121393373D01*
X152641123Y-121243290D01*
X152641458Y-121142445D01*
X153159662Y-121142445D01*
X153159713Y-121211356D01*
X153159971Y-121309607D01*
X153160425Y-121399030D01*
X153161052Y-121477333D01*
X153161827Y-121542223D01*
X153162727Y-121591411D01*
X153163728Y-121622604D01*
X153164805Y-121633511D01*
X153168025Y-121632322D01*
X153185610Y-121622176D01*
X153211904Y-121605040D01*
X153224371Y-121596540D01*
X153238440Y-121587329D01*
X153252711Y-121579233D01*
X153268583Y-121572185D01*
X153287453Y-121566117D01*
X153310721Y-121560961D01*
X153339784Y-121556651D01*
X153376041Y-121553119D01*
X153420892Y-121550297D01*
X153475734Y-121548118D01*
X153541965Y-121546514D01*
X153620985Y-121545419D01*
X153714191Y-121544765D01*
X153822983Y-121544484D01*
X153948759Y-121544509D01*
X154092917Y-121544772D01*
X154256855Y-121545206D01*
X154441973Y-121545745D01*
X154620830Y-121546279D01*
X154779688Y-121546805D01*
X154918746Y-121547350D01*
X155039397Y-121547945D01*
X155143034Y-121548619D01*
X155231051Y-121549403D01*
X155304839Y-121550326D01*
X155365793Y-121551419D01*
X155415305Y-121552712D01*
X155454769Y-121554235D01*
X155485578Y-121556019D01*
X155509124Y-121558092D01*
X155526802Y-121560486D01*
X155540003Y-121563230D01*
X155550122Y-121566356D01*
X155558551Y-121569892D01*
X155566687Y-121573791D01*
X155603518Y-121593438D01*
X155633671Y-121612225D01*
X155635154Y-121613272D01*
X155657403Y-121627602D01*
X155670360Y-121633511D01*
X155670813Y-121632504D01*
X155672259Y-121615305D01*
X155673582Y-121578656D01*
X155674746Y-121524962D01*
X155675715Y-121456630D01*
X155676451Y-121376064D01*
X155676920Y-121285670D01*
X155677084Y-121187853D01*
X155677084Y-120742195D01*
X154500217Y-120739120D01*
X153323351Y-120736045D01*
X153264440Y-120709407D01*
X153239879Y-120697485D01*
X153209628Y-120680246D01*
X153192502Y-120667074D01*
X153184471Y-120659076D01*
X153169569Y-120651378D01*
X153168297Y-120655260D01*
X153166271Y-120678520D01*
X153164436Y-120720874D01*
X153162835Y-120780132D01*
X153161513Y-120854107D01*
X153160514Y-120940610D01*
X153159882Y-121037452D01*
X153159662Y-121142445D01*
X152641458Y-121142445D01*
X152641568Y-121109196D01*
X152642177Y-120990166D01*
X152642973Y-120885279D01*
X152643982Y-120793610D01*
X152645225Y-120714237D01*
X152646727Y-120646237D01*
X152648511Y-120588686D01*
X152650601Y-120540662D01*
X152653020Y-120501240D01*
X152655792Y-120469499D01*
X152658941Y-120444514D01*
X152662490Y-120425364D01*
X152666464Y-120411123D01*
X152670884Y-120400871D01*
X152675776Y-120393682D01*
X152681162Y-120388635D01*
X152687066Y-120384805D01*
X152693513Y-120381271D01*
X152700525Y-120377108D01*
X152702375Y-120376025D01*
X152707882Y-120373813D01*
X152716194Y-120371786D01*
X152728253Y-120369938D01*
X152744999Y-120368261D01*
X152767375Y-120366745D01*
X152796322Y-120365383D01*
X152832782Y-120364167D01*
X152877695Y-120363089D01*
X152932005Y-120362140D01*
X152996652Y-120361312D01*
X153072578Y-120360597D01*
X153160724Y-120359987D01*
X153262033Y-120359474D01*
X153377445Y-120359050D01*
X153507902Y-120358706D01*
X153654346Y-120358434D01*
X153817718Y-120358227D01*
X153998961Y-120358076D01*
X154199014Y-120357972D01*
X154418821Y-120357908D01*
X154659323Y-120357876D01*
X154921460Y-120357867D01*
X157113031Y-120357867D01*
X157151413Y-120396249D01*
X157175151Y-120423355D01*
X157186951Y-120450253D01*
X157189795Y-120486560D01*
X157189795Y-120538489D01*
X157101856Y-120538489D01*
X157051960Y-120540427D01*
X156941539Y-120559199D01*
X156840075Y-120596217D01*
X156748910Y-120649369D01*
X156669389Y-120716546D01*
X156602857Y-120795638D01*
X156550656Y-120884534D01*
X156514132Y-120981125D01*
X156494628Y-121083300D01*
X156493489Y-121188950D01*
X156512057Y-121295964D01*
X156551678Y-121402232D01*
X156609546Y-121499219D01*
X156684378Y-121584293D01*
X156772447Y-121653015D01*
X156871446Y-121703918D01*
X156979069Y-121735535D01*
X157093008Y-121746400D01*
X157189795Y-121746400D01*
X157189795Y-123366753D01*
X157189782Y-123577897D01*
X157189732Y-123782020D01*
X157189632Y-123965686D01*
X157189470Y-124129991D01*
X157189233Y-124276029D01*
X157188909Y-124404894D01*
X157188487Y-124517683D01*
X157187953Y-124615488D01*
X157187295Y-124699404D01*
X157186501Y-124770527D01*
X157185558Y-124829950D01*
X157184454Y-124878768D01*
X157183178Y-124918077D01*
X157181715Y-124948969D01*
X157180055Y-124972541D01*
X157178184Y-124989886D01*
X157176090Y-125002099D01*
X157173762Y-125010275D01*
X157171186Y-125015508D01*
X157167617Y-125021504D01*
X157164084Y-125028279D01*
X157160574Y-125034478D01*
X157156144Y-125040126D01*
X157149854Y-125045247D01*
X157140761Y-125049869D01*
X157127923Y-125054015D01*
X157110400Y-125057713D01*
X157087249Y-125060987D01*
X157057528Y-125063863D01*
X157020297Y-125066367D01*
X156974613Y-125068524D01*
X156919535Y-125070360D01*
X156854121Y-125071900D01*
X156777429Y-125073170D01*
X156688518Y-125074195D01*
X156586445Y-125075001D01*
X156580195Y-125075034D01*
X156470270Y-125075614D01*
G37*
X156470270Y-125075614D02*
X156339051Y-125076059D01*
X156191846Y-125076362D01*
X156027713Y-125076548D01*
X155845710Y-125076642D01*
X155644897Y-125076671D01*
X155424330Y-125076661D01*
X155183070Y-125076636D01*
X154920173Y-125076622D01*
X154878022Y-125076622D01*
X154617394Y-125076646D01*
X154378266Y-125076685D01*
X154159702Y-125076708D01*
X153960767Y-125076687D01*
X153780527Y-125076593D01*
X153618047Y-125076395D01*
X153472392Y-125076063D01*
X153342628Y-125075569D01*
X153227819Y-125074883D01*
X153127032Y-125073976D01*
X153039332Y-125072817D01*
X152963783Y-125071378D01*
X152899451Y-125069629D01*
X152845401Y-125067540D01*
X152800699Y-125065083D01*
X152764410Y-125062227D01*
X152735599Y-125058943D01*
X152713331Y-125055202D01*
X152696672Y-125050974D01*
X152684687Y-125046229D01*
X152676441Y-125040939D01*
X152671000Y-125035073D01*
X152667428Y-125028602D01*
X152664792Y-125021497D01*
X152662156Y-125013728D01*
X152658585Y-125005266D01*
X152656917Y-125000908D01*
X152654951Y-124992395D01*
X152653151Y-124979694D01*
X152651507Y-124961885D01*
X152650015Y-124938049D01*
X152648665Y-124907266D01*
X152647451Y-124868617D01*
X152646365Y-124821182D01*
X152645506Y-124770296D01*
X153159662Y-124770296D01*
X153217279Y-124731523D01*
X153226169Y-124725432D01*
X153240993Y-124714976D01*
X153254640Y-124705579D01*
X153268297Y-124697183D01*
X153283151Y-124689733D01*
X153300392Y-124683173D01*
X153321207Y-124677446D01*
X153346782Y-124672495D01*
X153378307Y-124668266D01*
X153416969Y-124664701D01*
X153463955Y-124661744D01*
X153520454Y-124659340D01*
X153587653Y-124657431D01*
X153666740Y-124655962D01*
X153758902Y-124654876D01*
X153865328Y-124654118D01*
X153987205Y-124653630D01*
X154125721Y-124653358D01*
X154282063Y-124653243D01*
X154457420Y-124653231D01*
X154652980Y-124653265D01*
X154869929Y-124653289D01*
X154992549Y-124653280D01*
X155197615Y-124653243D01*
X155381946Y-124653227D01*
X155546728Y-124653288D01*
X155693146Y-124653484D01*
X155822388Y-124653870D01*
X155935640Y-124654505D01*
X156034087Y-124655444D01*
X156118918Y-124656745D01*
X156191318Y-124658464D01*
X156252473Y-124660659D01*
X156303570Y-124663385D01*
X156345795Y-124666701D01*
X156380335Y-124670662D01*
X156408376Y-124675325D01*
X156431104Y-124680747D01*
X156449706Y-124686986D01*
X156465369Y-124694097D01*
X156479278Y-124702138D01*
X156492621Y-124711166D01*
X156506583Y-124721236D01*
X156522351Y-124732407D01*
X156580195Y-124772197D01*
X156580195Y-123712314D01*
X156517096Y-123750311D01*
X156492057Y-123764993D01*
X156464476Y-123779531D01*
X156436362Y-123791627D01*
X156405511Y-123801532D01*
X156369718Y-123809494D01*
X156326779Y-123815761D01*
X156274488Y-123820582D01*
X156210643Y-123824206D01*
X156133037Y-123826881D01*
X156039468Y-123828857D01*
X155927729Y-123830382D01*
X155795617Y-123831704D01*
X155675628Y-123832613D01*
X155558999Y-123833020D01*
X155463531Y-123832767D01*
X155389506Y-123831857D01*
X155337207Y-123830293D01*
X155306913Y-123828079D01*
X155298906Y-123825220D01*
X155302204Y-123822161D01*
X155323654Y-123804006D01*
X155360173Y-123774275D01*
X155409620Y-123734639D01*
X155469855Y-123686771D01*
X155538735Y-123632343D01*
X155614119Y-123573027D01*
X155693866Y-123510495D01*
X155775834Y-123446421D01*
X155857882Y-123382475D01*
X155937868Y-123320331D01*
X156013651Y-123261661D01*
X156083089Y-123208137D01*
X156144041Y-123161430D01*
X156194366Y-123123214D01*
X156231922Y-123095161D01*
X156254567Y-123078943D01*
X156326850Y-123033635D01*
X156406599Y-122993661D01*
X156474874Y-122972130D01*
X156532218Y-122968827D01*
X156580195Y-122974116D01*
X156579945Y-121842356D01*
X156549340Y-121881867D01*
X156541973Y-121891248D01*
X156487624Y-121954183D01*
X156419803Y-122022997D01*
X156336546Y-122099596D01*
X156235884Y-122185888D01*
X156215215Y-122203052D01*
X156165653Y-122243833D01*
X156104736Y-122293588D01*
X156034164Y-122350955D01*
X155955638Y-122414569D01*
X155870858Y-122483069D01*
X155781525Y-122555090D01*
X155689340Y-122629270D01*
X155670360Y-122644517D01*
X155596002Y-122704246D01*
X155503214Y-122778653D01*
X155412674Y-122851131D01*
X155326084Y-122920314D01*
X155245144Y-122984841D01*
X155171556Y-123043347D01*
X155107018Y-123094470D01*
X155053233Y-123136847D01*
X155011900Y-123169115D01*
X154984720Y-123189910D01*
X154973394Y-123197869D01*
X154969291Y-123196111D01*
X154948728Y-123183230D01*
X154912501Y-123158885D01*
X154862238Y-123124247D01*
X154799570Y-123080486D01*
X154726126Y-123028775D01*
X154643535Y-122970284D01*
X154553426Y-122906184D01*
X154457431Y-122837646D01*
X154357177Y-122765843D01*
X154254294Y-122691944D01*
X154150412Y-122617121D01*
X154047161Y-122542545D01*
X153946170Y-122469387D01*
X153849068Y-122398819D01*
X153757485Y-122332011D01*
X153673051Y-122270135D01*
X153597395Y-122214361D01*
X153532146Y-122165862D01*
X153478934Y-122125807D01*
X153439389Y-122095369D01*
X153414036Y-122074944D01*
X153359767Y-122028899D01*
X153303287Y-121978612D01*
X153253393Y-121931815D01*
X153159662Y-121840651D01*
X153159662Y-122995090D01*
X153235862Y-122994456D01*
X153277902Y-122995574D01*
X153313728Y-123001304D01*
X153351290Y-123013890D01*
X153399485Y-123035568D01*
X153406165Y-123038789D01*
X153455703Y-123064188D01*
X153503693Y-123090996D01*
X153540596Y-123113917D01*
X153547228Y-123118485D01*
X153578469Y-123140516D01*
X153623408Y-123172693D01*
X153679915Y-123213457D01*
X153745858Y-123261245D01*
X153819105Y-123314498D01*
X153897526Y-123371655D01*
X153978990Y-123431155D01*
X154061364Y-123491437D01*
X154142518Y-123550940D01*
X154220320Y-123608105D01*
X154292639Y-123661370D01*
X154357344Y-123709174D01*
X154412303Y-123749957D01*
X154455386Y-123782158D01*
X154484460Y-123804216D01*
X154497395Y-123814571D01*
X154501711Y-123819044D01*
X154503750Y-123823236D01*
X154501136Y-123826643D01*
X154492076Y-123829325D01*
X154474777Y-123831341D01*
X154447448Y-123832748D01*
X154408297Y-123833605D01*
X154355529Y-123833970D01*
X154287355Y-123833903D01*
X154201980Y-123833460D01*
X154097613Y-123832702D01*
X153972462Y-123831685D01*
X153927762Y-123831308D01*
X153806667Y-123830169D01*
X153705374Y-123828972D01*
X153621800Y-123827636D01*
X153553858Y-123826077D01*
X153499463Y-123824215D01*
X153456530Y-123821966D01*
X153422973Y-123819248D01*
X153396707Y-123815979D01*
X153375646Y-123812078D01*
X153357705Y-123807461D01*
X153331292Y-123799192D01*
X153269290Y-123775583D01*
X153216489Y-123749685D01*
X153179417Y-123724535D01*
X153177987Y-123723339D01*
X153173638Y-123721168D01*
X153170036Y-123723328D01*
X153167111Y-123731644D01*
X153164793Y-123747940D01*
X153163011Y-123774041D01*
X153161695Y-123811771D01*
X153160776Y-123862956D01*
X153160184Y-123929420D01*
X153159847Y-124012987D01*
X153159697Y-124115483D01*
X153159662Y-124238732D01*
X153159662Y-124770296D01*
X152645506Y-124770296D01*
X152645401Y-124764043D01*
X152644551Y-124696279D01*
X152643809Y-124616971D01*
X152643165Y-124525199D01*
X152642615Y-124420044D01*
X152642149Y-124300587D01*
X152641762Y-124165908D01*
X152641446Y-124015088D01*
X152641193Y-123847206D01*
X152640996Y-123661345D01*
X152640849Y-123456583D01*
X152640744Y-123232002D01*
X152640673Y-122986682D01*
X152640630Y-122719704D01*
X152640625Y-122681321D01*
X152640582Y-122415922D01*
X152640537Y-122172050D01*
X152640514Y-121948783D01*
X152640538Y-121745196D01*
X152640632Y-121560367D01*
X152640819Y-121393373D01*
X152641123Y-121243290D01*
X152641458Y-121142445D01*
X153159662Y-121142445D01*
X153159713Y-121211356D01*
X153159971Y-121309607D01*
X153160425Y-121399030D01*
X153161052Y-121477333D01*
X153161827Y-121542223D01*
X153162727Y-121591411D01*
X153163728Y-121622604D01*
X153164805Y-121633511D01*
X153168025Y-121632322D01*
X153185610Y-121622176D01*
X153211904Y-121605040D01*
X153224371Y-121596540D01*
X153238440Y-121587329D01*
X153252711Y-121579233D01*
X153268583Y-121572185D01*
X153287453Y-121566117D01*
X153310721Y-121560961D01*
X153339784Y-121556651D01*
X153376041Y-121553119D01*
X153420892Y-121550297D01*
X153475734Y-121548118D01*
X153541965Y-121546514D01*
X153620985Y-121545419D01*
X153714191Y-121544765D01*
X153822983Y-121544484D01*
X153948759Y-121544509D01*
X154092917Y-121544772D01*
X154256855Y-121545206D01*
X154441973Y-121545745D01*
X154620830Y-121546279D01*
X154779688Y-121546805D01*
X154918746Y-121547350D01*
X155039397Y-121547945D01*
X155143034Y-121548619D01*
X155231051Y-121549403D01*
X155304839Y-121550326D01*
X155365793Y-121551419D01*
X155415305Y-121552712D01*
X155454769Y-121554235D01*
X155485578Y-121556019D01*
X155509124Y-121558092D01*
X155526802Y-121560486D01*
X155540003Y-121563230D01*
X155550122Y-121566356D01*
X155558551Y-121569892D01*
X155566687Y-121573791D01*
X155603518Y-121593438D01*
X155633671Y-121612225D01*
X155635154Y-121613272D01*
X155657403Y-121627602D01*
X155670360Y-121633511D01*
X155670813Y-121632504D01*
X155672259Y-121615305D01*
X155673582Y-121578656D01*
X155674746Y-121524962D01*
X155675715Y-121456630D01*
X155676451Y-121376064D01*
X155676920Y-121285670D01*
X155677084Y-121187853D01*
X155677084Y-120742195D01*
X154500217Y-120739120D01*
X153323351Y-120736045D01*
X153264440Y-120709407D01*
X153239879Y-120697485D01*
X153209628Y-120680246D01*
X153192502Y-120667074D01*
X153184471Y-120659076D01*
X153169569Y-120651378D01*
X153168297Y-120655260D01*
X153166271Y-120678520D01*
X153164436Y-120720874D01*
X153162835Y-120780132D01*
X153161513Y-120854107D01*
X153160514Y-120940610D01*
X153159882Y-121037452D01*
X153159662Y-121142445D01*
X152641458Y-121142445D01*
X152641568Y-121109196D01*
X152642177Y-120990166D01*
X152642973Y-120885279D01*
X152643982Y-120793610D01*
X152645225Y-120714237D01*
X152646727Y-120646237D01*
X152648511Y-120588686D01*
X152650601Y-120540662D01*
X152653020Y-120501240D01*
X152655792Y-120469499D01*
X152658941Y-120444514D01*
X152662490Y-120425364D01*
X152666464Y-120411123D01*
X152670884Y-120400871D01*
X152675776Y-120393682D01*
X152681162Y-120388635D01*
X152687066Y-120384805D01*
X152693513Y-120381271D01*
X152700525Y-120377108D01*
X152702375Y-120376025D01*
X152707882Y-120373813D01*
X152716194Y-120371786D01*
X152728253Y-120369938D01*
X152744999Y-120368261D01*
X152767375Y-120366745D01*
X152796322Y-120365383D01*
X152832782Y-120364167D01*
X152877695Y-120363089D01*
X152932005Y-120362140D01*
X152996652Y-120361312D01*
X153072578Y-120360597D01*
X153160724Y-120359987D01*
X153262033Y-120359474D01*
X153377445Y-120359050D01*
X153507902Y-120358706D01*
X153654346Y-120358434D01*
X153817718Y-120358227D01*
X153998961Y-120358076D01*
X154199014Y-120357972D01*
X154418821Y-120357908D01*
X154659323Y-120357876D01*
X154921460Y-120357867D01*
X157113031Y-120357867D01*
X157151413Y-120396249D01*
X157175151Y-120423355D01*
X157186951Y-120450253D01*
X157189795Y-120486560D01*
X157189795Y-120538489D01*
X157101856Y-120538489D01*
X157051960Y-120540427D01*
X156941539Y-120559199D01*
X156840075Y-120596217D01*
X156748910Y-120649369D01*
X156669389Y-120716546D01*
X156602857Y-120795638D01*
X156550656Y-120884534D01*
X156514132Y-120981125D01*
X156494628Y-121083300D01*
X156493489Y-121188950D01*
X156512057Y-121295964D01*
X156551678Y-121402232D01*
X156609546Y-121499219D01*
X156684378Y-121584293D01*
X156772447Y-121653015D01*
X156871446Y-121703918D01*
X156979069Y-121735535D01*
X157093008Y-121746400D01*
X157189795Y-121746400D01*
X157189795Y-123366753D01*
X157189782Y-123577897D01*
X157189732Y-123782020D01*
X157189632Y-123965686D01*
X157189470Y-124129991D01*
X157189233Y-124276029D01*
X157188909Y-124404894D01*
X157188487Y-124517683D01*
X157187953Y-124615488D01*
X157187295Y-124699404D01*
X157186501Y-124770527D01*
X157185558Y-124829950D01*
X157184454Y-124878768D01*
X157183178Y-124918077D01*
X157181715Y-124948969D01*
X157180055Y-124972541D01*
X157178184Y-124989886D01*
X157176090Y-125002099D01*
X157173762Y-125010275D01*
X157171186Y-125015508D01*
X157167617Y-125021504D01*
X157164084Y-125028279D01*
X157160574Y-125034478D01*
X157156144Y-125040126D01*
X157149854Y-125045247D01*
X157140761Y-125049869D01*
X157127923Y-125054015D01*
X157110400Y-125057713D01*
X157087249Y-125060987D01*
X157057528Y-125063863D01*
X157020297Y-125066367D01*
X156974613Y-125068524D01*
X156919535Y-125070360D01*
X156854121Y-125071900D01*
X156777429Y-125073170D01*
X156688518Y-125074195D01*
X156586445Y-125075001D01*
X156580195Y-125075034D01*
X156470270Y-125075614D01*
G36*
X153438078Y-117535076D02*
G01*
X153457983Y-117546250D01*
X153493642Y-117567134D01*
X153542603Y-117596265D01*
X153602416Y-117632181D01*
X153670629Y-117673420D01*
X153744791Y-117718517D01*
X154042054Y-117899785D01*
X153997523Y-117946315D01*
X153919197Y-118037723D01*
X153844623Y-118151334D01*
X153790588Y-118269122D01*
X153757772Y-118389559D01*
X153746851Y-118511117D01*
X153748194Y-118552585D01*
X153766450Y-118670080D01*
X153805445Y-118780089D01*
X153864392Y-118881430D01*
X153942505Y-118972921D01*
X154038998Y-119053380D01*
X154153084Y-119121627D01*
X154187338Y-119137908D01*
X154310822Y-119183982D01*
X154449144Y-119219106D01*
X154598501Y-119243197D01*
X154755089Y-119256173D01*
X154915106Y-119257949D01*
X155074748Y-119248443D01*
X155230212Y-119227572D01*
X155377696Y-119195252D01*
X155513395Y-119151399D01*
X155599986Y-119113982D01*
X155713374Y-119049185D01*
X155806992Y-118973772D01*
X155881103Y-118887418D01*
X155935968Y-118789795D01*
X155971850Y-118680577D01*
X155989011Y-118559439D01*
X155990182Y-118490038D01*
X155975921Y-118367168D01*
X155940821Y-118251664D01*
X155885380Y-118144953D01*
X155810098Y-118048464D01*
X155795622Y-118032720D01*
X155769100Y-118002150D01*
X155751924Y-117979809D01*
X155747275Y-117969691D01*
X155749465Y-117967706D01*
X155768341Y-117953241D01*
X155801665Y-117929400D01*
X155846682Y-117898029D01*
X155900637Y-117860974D01*
X155960777Y-117820083D01*
X156024344Y-117777202D01*
X156088586Y-117734178D01*
X156150747Y-117692857D01*
X156208071Y-117655086D01*
X156257805Y-117622712D01*
X156297194Y-117597582D01*
X156323482Y-117581542D01*
X156333915Y-117576439D01*
X156338121Y-117581050D01*
X156343129Y-117600267D01*
X156345676Y-117609838D01*
X156356813Y-117637809D01*
X156375260Y-117679448D01*
X156399337Y-117730995D01*
X156427363Y-117788690D01*
X156432908Y-117799957D01*
X156512173Y-117977687D01*
X156571677Y-118147490D01*
X156611817Y-118311430D01*
X156632991Y-118471571D01*
X156635596Y-118629977D01*
X156620029Y-118788711D01*
X156602539Y-118884268D01*
X156557498Y-119048558D01*
X156494406Y-119202589D01*
X156412147Y-119348509D01*
X156309605Y-119488466D01*
X156185663Y-119624608D01*
X156140401Y-119668473D01*
X156008197Y-119780758D01*
X155870230Y-119873972D01*
X155722312Y-119950719D01*
X155560259Y-120013603D01*
X155548671Y-120017420D01*
X155362670Y-120067507D01*
X155166541Y-120100899D01*
X154964494Y-120117584D01*
X154760737Y-120117551D01*
X154559481Y-120100791D01*
X154364934Y-120067292D01*
X154181306Y-120017044D01*
X154064009Y-119973190D01*
X153901111Y-119895348D01*
X153747196Y-119801828D01*
X153605391Y-119694822D01*
X153478823Y-119576519D01*
X153370621Y-119449111D01*
X153317942Y-119371606D01*
X153248312Y-119244725D01*
X153189594Y-119107243D01*
X153144475Y-118965716D01*
X153115640Y-118826702D01*
X153113956Y-118812597D01*
X153110628Y-118769153D01*
X153107787Y-118711723D01*
X153105689Y-118646122D01*
X153104594Y-118578167D01*
X153106922Y-118451378D01*
X153119926Y-118303673D01*
X153144929Y-118165779D01*
X153182744Y-118032014D01*
X153191173Y-118008562D01*
X153210654Y-117960612D01*
X153235589Y-117904140D01*
X153264340Y-117842379D01*
X153295272Y-117778563D01*
X153326747Y-117715926D01*
X153357128Y-117657703D01*
X153384779Y-117607127D01*
X153408063Y-117567433D01*
X153425344Y-117541854D01*
X153434983Y-117533625D01*
X153438078Y-117535076D01*
G37*
X153438078Y-117535076D02*
X153457983Y-117546250D01*
X153493642Y-117567134D01*
X153542603Y-117596265D01*
X153602416Y-117632181D01*
X153670629Y-117673420D01*
X153744791Y-117718517D01*
X154042054Y-117899785D01*
X153997523Y-117946315D01*
X153919197Y-118037723D01*
X153844623Y-118151334D01*
X153790588Y-118269122D01*
X153757772Y-118389559D01*
X153746851Y-118511117D01*
X153748194Y-118552585D01*
X153766450Y-118670080D01*
X153805445Y-118780089D01*
X153864392Y-118881430D01*
X153942505Y-118972921D01*
X154038998Y-119053380D01*
X154153084Y-119121627D01*
X154187338Y-119137908D01*
X154310822Y-119183982D01*
X154449144Y-119219106D01*
X154598501Y-119243197D01*
X154755089Y-119256173D01*
X154915106Y-119257949D01*
X155074748Y-119248443D01*
X155230212Y-119227572D01*
X155377696Y-119195252D01*
X155513395Y-119151399D01*
X155599986Y-119113982D01*
X155713374Y-119049185D01*
X155806992Y-118973772D01*
X155881103Y-118887418D01*
X155935968Y-118789795D01*
X155971850Y-118680577D01*
X155989011Y-118559439D01*
X155990182Y-118490038D01*
X155975921Y-118367168D01*
X155940821Y-118251664D01*
X155885380Y-118144953D01*
X155810098Y-118048464D01*
X155795622Y-118032720D01*
X155769100Y-118002150D01*
X155751924Y-117979809D01*
X155747275Y-117969691D01*
X155749465Y-117967706D01*
X155768341Y-117953241D01*
X155801665Y-117929400D01*
X155846682Y-117898029D01*
X155900637Y-117860974D01*
X155960777Y-117820083D01*
X156024344Y-117777202D01*
X156088586Y-117734178D01*
X156150747Y-117692857D01*
X156208071Y-117655086D01*
X156257805Y-117622712D01*
X156297194Y-117597582D01*
X156323482Y-117581542D01*
X156333915Y-117576439D01*
X156338121Y-117581050D01*
X156343129Y-117600267D01*
X156345676Y-117609838D01*
X156356813Y-117637809D01*
X156375260Y-117679448D01*
X156399337Y-117730995D01*
X156427363Y-117788690D01*
X156432908Y-117799957D01*
X156512173Y-117977687D01*
X156571677Y-118147490D01*
X156611817Y-118311430D01*
X156632991Y-118471571D01*
X156635596Y-118629977D01*
X156620029Y-118788711D01*
X156602539Y-118884268D01*
X156557498Y-119048558D01*
X156494406Y-119202589D01*
X156412147Y-119348509D01*
X156309605Y-119488466D01*
X156185663Y-119624608D01*
X156140401Y-119668473D01*
X156008197Y-119780758D01*
X155870230Y-119873972D01*
X155722312Y-119950719D01*
X155560259Y-120013603D01*
X155548671Y-120017420D01*
X155362670Y-120067507D01*
X155166541Y-120100899D01*
X154964494Y-120117584D01*
X154760737Y-120117551D01*
X154559481Y-120100791D01*
X154364934Y-120067292D01*
X154181306Y-120017044D01*
X154064009Y-119973190D01*
X153901111Y-119895348D01*
X153747196Y-119801828D01*
X153605391Y-119694822D01*
X153478823Y-119576519D01*
X153370621Y-119449111D01*
X153317942Y-119371606D01*
X153248312Y-119244725D01*
X153189594Y-119107243D01*
X153144475Y-118965716D01*
X153115640Y-118826702D01*
X153113956Y-118812597D01*
X153110628Y-118769153D01*
X153107787Y-118711723D01*
X153105689Y-118646122D01*
X153104594Y-118578167D01*
X153106922Y-118451378D01*
X153119926Y-118303673D01*
X153144929Y-118165779D01*
X153182744Y-118032014D01*
X153191173Y-118008562D01*
X153210654Y-117960612D01*
X153235589Y-117904140D01*
X153264340Y-117842379D01*
X153295272Y-117778563D01*
X153326747Y-117715926D01*
X153357128Y-117657703D01*
X153384779Y-117607127D01*
X153408063Y-117567433D01*
X153425344Y-117541854D01*
X153434983Y-117533625D01*
X153438078Y-117535076D01*
G36*
X154339351Y-114985994D02*
G01*
X154261904Y-114985268D01*
X154110468Y-114976689D01*
X153973779Y-114957833D01*
X153847786Y-114927837D01*
X153728437Y-114885836D01*
X153611681Y-114830969D01*
X153500883Y-114764167D01*
X153387323Y-114673363D01*
X153291851Y-114569708D01*
X153214989Y-114453887D01*
X153157265Y-114326586D01*
X153119204Y-114188489D01*
X153113396Y-114150793D01*
X153107666Y-114071752D01*
X153107479Y-113983629D01*
X153112523Y-113894236D01*
X153122484Y-113811384D01*
X153127174Y-113789331D01*
X153720521Y-113789331D01*
X153728697Y-113873900D01*
X153756257Y-113947219D01*
X153803420Y-114009637D01*
X153870404Y-114061502D01*
X153957429Y-114103160D01*
X154064712Y-114134962D01*
X154077053Y-114137545D01*
X154138290Y-114146000D01*
X154215370Y-114151663D01*
X154303060Y-114154576D01*
X154396128Y-114154783D01*
X154489342Y-114152330D01*
X154577468Y-114147261D01*
X154655274Y-114139619D01*
X154717529Y-114129448D01*
X154723396Y-114128167D01*
X154833941Y-114099126D01*
X154924487Y-114064610D01*
X154997109Y-114023456D01*
X155053881Y-113974499D01*
X155096878Y-113916574D01*
X155112447Y-113884620D01*
X155131340Y-113811784D01*
X155134597Y-113730443D01*
X155122673Y-113645319D01*
X155096022Y-113561133D01*
X155055100Y-113482608D01*
X155011532Y-113415200D01*
X153861341Y-113415200D01*
X153814973Y-113485756D01*
X153791271Y-113526417D01*
X153765423Y-113580546D01*
X153747233Y-113629689D01*
X153731511Y-113693165D01*
X153720521Y-113789331D01*
X153127174Y-113789331D01*
X153137050Y-113742887D01*
X153146698Y-113712035D01*
X153176939Y-113634730D01*
X153214445Y-113557679D01*
X153255448Y-113488200D01*
X153296183Y-113433615D01*
X153315557Y-113410916D01*
X153333400Y-113388201D01*
X153340284Y-113376779D01*
X153338638Y-113375537D01*
X153320857Y-113372728D01*
X153287692Y-113370776D01*
X153244329Y-113370045D01*
X153148373Y-113370045D01*
X153148373Y-112511896D01*
X153209088Y-112546161D01*
X153218194Y-112551355D01*
X153232813Y-112559715D01*
X153246889Y-112567288D01*
X153261522Y-112574112D01*
X153277813Y-112580227D01*
X153296864Y-112585673D01*
X153319776Y-112590487D01*
X153347649Y-112594708D01*
X153381584Y-112598377D01*
X153422683Y-112601531D01*
X153472047Y-112604211D01*
X153530776Y-112606454D01*
X153599972Y-112608299D01*
X153680736Y-112609787D01*
X153774168Y-112610955D01*
X153881370Y-112611844D01*
X154003442Y-112612491D01*
X154141486Y-112612936D01*
X154296603Y-112613218D01*
X154469894Y-112613375D01*
X154662459Y-112613448D01*
X154875400Y-112613474D01*
X155109817Y-112613493D01*
X156794684Y-112613689D01*
X156794684Y-113519017D01*
X156757995Y-113494585D01*
X156748415Y-113488318D01*
X156702081Y-113462208D01*
X156654960Y-113444469D01*
X156599811Y-113432908D01*
X156529395Y-113425331D01*
X156522412Y-113424839D01*
X156484421Y-113423062D01*
X156430486Y-113421444D01*
X156363359Y-113419999D01*
X156285791Y-113418740D01*
X156200534Y-113417680D01*
X156110338Y-113416829D01*
X156017955Y-113416203D01*
X155926137Y-113415812D01*
X155837635Y-113415670D01*
X155755200Y-113415790D01*
X155681583Y-113416183D01*
X155619536Y-113416862D01*
X155571811Y-113417841D01*
X155541158Y-113419132D01*
X155530329Y-113420747D01*
X155534729Y-113428957D01*
X155549700Y-113450647D01*
X155571614Y-113480014D01*
X155605826Y-113528879D01*
X155652348Y-113617125D01*
X155686016Y-113715916D01*
X155707831Y-113828510D01*
X155718797Y-113958164D01*
X155719843Y-114050670D01*
X155710048Y-114172011D01*
X155685888Y-114282099D01*
X155646277Y-114385389D01*
X155590130Y-114486338D01*
X155559179Y-114531503D01*
X155467947Y-114636911D01*
X155358956Y-114728538D01*
X155232336Y-114806332D01*
X155088217Y-114870241D01*
X154926730Y-114920214D01*
X154748003Y-114956198D01*
X154552167Y-114978143D01*
X154396128Y-114983900D01*
X154339351Y-114985994D01*
G37*
X154339351Y-114985994D02*
X154261904Y-114985268D01*
X154110468Y-114976689D01*
X153973779Y-114957833D01*
X153847786Y-114927837D01*
X153728437Y-114885836D01*
X153611681Y-114830969D01*
X153500883Y-114764167D01*
X153387323Y-114673363D01*
X153291851Y-114569708D01*
X153214989Y-114453887D01*
X153157265Y-114326586D01*
X153119204Y-114188489D01*
X153113396Y-114150793D01*
X153107666Y-114071752D01*
X153107479Y-113983629D01*
X153112523Y-113894236D01*
X153122484Y-113811384D01*
X153127174Y-113789331D01*
X153720521Y-113789331D01*
X153728697Y-113873900D01*
X153756257Y-113947219D01*
X153803420Y-114009637D01*
X153870404Y-114061502D01*
X153957429Y-114103160D01*
X154064712Y-114134962D01*
X154077053Y-114137545D01*
X154138290Y-114146000D01*
X154215370Y-114151663D01*
X154303060Y-114154576D01*
X154396128Y-114154783D01*
X154489342Y-114152330D01*
X154577468Y-114147261D01*
X154655274Y-114139619D01*
X154717529Y-114129448D01*
X154723396Y-114128167D01*
X154833941Y-114099126D01*
X154924487Y-114064610D01*
X154997109Y-114023456D01*
X155053881Y-113974499D01*
X155096878Y-113916574D01*
X155112447Y-113884620D01*
X155131340Y-113811784D01*
X155134597Y-113730443D01*
X155122673Y-113645319D01*
X155096022Y-113561133D01*
X155055100Y-113482608D01*
X155011532Y-113415200D01*
X153861341Y-113415200D01*
X153814973Y-113485756D01*
X153791271Y-113526417D01*
X153765423Y-113580546D01*
X153747233Y-113629689D01*
X153731511Y-113693165D01*
X153720521Y-113789331D01*
X153127174Y-113789331D01*
X153137050Y-113742887D01*
X153146698Y-113712035D01*
X153176939Y-113634730D01*
X153214445Y-113557679D01*
X153255448Y-113488200D01*
X153296183Y-113433615D01*
X153315557Y-113410916D01*
X153333400Y-113388201D01*
X153340284Y-113376779D01*
X153338638Y-113375537D01*
X153320857Y-113372728D01*
X153287692Y-113370776D01*
X153244329Y-113370045D01*
X153148373Y-113370045D01*
X153148373Y-112511896D01*
X153209088Y-112546161D01*
X153218194Y-112551355D01*
X153232813Y-112559715D01*
X153246889Y-112567288D01*
X153261522Y-112574112D01*
X153277813Y-112580227D01*
X153296864Y-112585673D01*
X153319776Y-112590487D01*
X153347649Y-112594708D01*
X153381584Y-112598377D01*
X153422683Y-112601531D01*
X153472047Y-112604211D01*
X153530776Y-112606454D01*
X153599972Y-112608299D01*
X153680736Y-112609787D01*
X153774168Y-112610955D01*
X153881370Y-112611844D01*
X154003442Y-112612491D01*
X154141486Y-112612936D01*
X154296603Y-112613218D01*
X154469894Y-112613375D01*
X154662459Y-112613448D01*
X154875400Y-112613474D01*
X155109817Y-112613493D01*
X156794684Y-112613689D01*
X156794684Y-113519017D01*
X156757995Y-113494585D01*
X156748415Y-113488318D01*
X156702081Y-113462208D01*
X156654960Y-113444469D01*
X156599811Y-113432908D01*
X156529395Y-113425331D01*
X156522412Y-113424839D01*
X156484421Y-113423062D01*
X156430486Y-113421444D01*
X156363359Y-113419999D01*
X156285791Y-113418740D01*
X156200534Y-113417680D01*
X156110338Y-113416829D01*
X156017955Y-113416203D01*
X155926137Y-113415812D01*
X155837635Y-113415670D01*
X155755200Y-113415790D01*
X155681583Y-113416183D01*
X155619536Y-113416862D01*
X155571811Y-113417841D01*
X155541158Y-113419132D01*
X155530329Y-113420747D01*
X155534729Y-113428957D01*
X155549700Y-113450647D01*
X155571614Y-113480014D01*
X155605826Y-113528879D01*
X155652348Y-113617125D01*
X155686016Y-113715916D01*
X155707831Y-113828510D01*
X155718797Y-113958164D01*
X155719843Y-114050670D01*
X155710048Y-114172011D01*
X155685888Y-114282099D01*
X155646277Y-114385389D01*
X155590130Y-114486338D01*
X155559179Y-114531503D01*
X155467947Y-114636911D01*
X155358956Y-114728538D01*
X155232336Y-114806332D01*
X155088217Y-114870241D01*
X154926730Y-114920214D01*
X154748003Y-114956198D01*
X154552167Y-114978143D01*
X154396128Y-114983900D01*
X154339351Y-114985994D01*
D13*
%TO.C,J3*%
X163890000Y-86365000D02*
X161230000Y-86365000D01*
X161230000Y-86365000D02*
X161230000Y-134685000D01*
X163890000Y-83765000D02*
X162560000Y-83765000D01*
X163890000Y-134685000D02*
X161230000Y-134685000D01*
X163890000Y-86365000D02*
X163890000Y-134685000D01*
X163890000Y-85095000D02*
X163890000Y-83765000D01*
%TD*%
M02*
