%TF.GenerationSoftware,KiCad,Pcbnew,6.0.4*%
%TF.CreationDate,2022-04-14T12:40:58+02:00*%
%TF.ProjectId,esp32-s2-mini-1,65737033-322d-4733-922d-6d696e692d31,rev?*%
%TF.SameCoordinates,Original*%
%TF.FileFunction,Legend,Top*%
%TF.FilePolarity,Positive*%
%FSLAX46Y46*%
G04 Gerber Fmt 4.6, Leading zero omitted, Abs format (unit mm)*
G04 Created by KiCad (PCBNEW 6.0.4) date 2022-04-14 12:40:58*
%MOMM*%
%LPD*%
G01*
G04 APERTURE LIST*
%ADD10C,0.150000*%
%ADD11C,0.100000*%
%ADD12C,0.120000*%
%ADD13C,0.020000*%
G04 APERTURE END LIST*
D10*
X160636000Y-133959523D02*
X160597904Y-134035714D01*
X160597904Y-134150000D01*
X160636000Y-134264285D01*
X160712190Y-134340476D01*
X160788380Y-134378571D01*
X160940761Y-134416666D01*
X161055047Y-134416666D01*
X161207428Y-134378571D01*
X161283619Y-134340476D01*
X161359809Y-134264285D01*
X161397904Y-134150000D01*
X161397904Y-134073809D01*
X161359809Y-133959523D01*
X161321714Y-133921428D01*
X161055047Y-133921428D01*
X161055047Y-134073809D01*
X161397904Y-133578571D02*
X160597904Y-133578571D01*
X161397904Y-133121428D01*
X160597904Y-133121428D01*
X161397904Y-132740476D02*
X160597904Y-132740476D01*
X160597904Y-132550000D01*
X160636000Y-132435714D01*
X160712190Y-132359523D01*
X160788380Y-132321428D01*
X160940761Y-132283333D01*
X161055047Y-132283333D01*
X161207428Y-132321428D01*
X161283619Y-132359523D01*
X161359809Y-132435714D01*
X161397904Y-132550000D01*
X161397904Y-132740476D01*
X160597904Y-121297619D02*
X160597904Y-120802380D01*
X160902666Y-121069047D01*
X160902666Y-120954761D01*
X160940761Y-120878571D01*
X160978857Y-120840476D01*
X161055047Y-120802380D01*
X161245523Y-120802380D01*
X161321714Y-120840476D01*
X161359809Y-120878571D01*
X161397904Y-120954761D01*
X161397904Y-121183333D01*
X161359809Y-121259523D01*
X161321714Y-121297619D01*
X160864571Y-120116666D02*
X161397904Y-120116666D01*
X160559809Y-120307142D02*
X161131238Y-120497619D01*
X161131238Y-120002380D01*
X140861904Y-100209523D02*
X140861904Y-100590476D01*
X141242857Y-100628571D01*
X141204761Y-100590476D01*
X141166666Y-100514285D01*
X141166666Y-100323809D01*
X141204761Y-100247619D01*
X141242857Y-100209523D01*
X141319047Y-100171428D01*
X141509523Y-100171428D01*
X141585714Y-100209523D01*
X141623809Y-100247619D01*
X141661904Y-100323809D01*
X141661904Y-100514285D01*
X141623809Y-100590476D01*
X141585714Y-100628571D01*
X160597904Y-116217619D02*
X160597904Y-115722380D01*
X160902666Y-115989047D01*
X160902666Y-115874761D01*
X160940761Y-115798571D01*
X160978857Y-115760476D01*
X161055047Y-115722380D01*
X161245523Y-115722380D01*
X161321714Y-115760476D01*
X161359809Y-115798571D01*
X161397904Y-115874761D01*
X161397904Y-116103333D01*
X161359809Y-116179523D01*
X161321714Y-116217619D01*
X160597904Y-115036666D02*
X160597904Y-115189047D01*
X160636000Y-115265238D01*
X160674095Y-115303333D01*
X160788380Y-115379523D01*
X160940761Y-115417619D01*
X161245523Y-115417619D01*
X161321714Y-115379523D01*
X161359809Y-115341428D01*
X161397904Y-115265238D01*
X161397904Y-115112857D01*
X161359809Y-115036666D01*
X161321714Y-114998571D01*
X161245523Y-114960476D01*
X161055047Y-114960476D01*
X160978857Y-114998571D01*
X160940761Y-115036666D01*
X160902666Y-115112857D01*
X160902666Y-115265238D01*
X160940761Y-115341428D01*
X160978857Y-115379523D01*
X161055047Y-115417619D01*
X141204761Y-108076190D02*
X141166666Y-108152380D01*
X141128571Y-108190476D01*
X141052380Y-108228571D01*
X141014285Y-108228571D01*
X140938095Y-108190476D01*
X140900000Y-108152380D01*
X140861904Y-108076190D01*
X140861904Y-107923809D01*
X140900000Y-107847619D01*
X140938095Y-107809523D01*
X141014285Y-107771428D01*
X141052380Y-107771428D01*
X141128571Y-107809523D01*
X141166666Y-107847619D01*
X141204761Y-107923809D01*
X141204761Y-108076190D01*
X141242857Y-108152380D01*
X141280952Y-108190476D01*
X141357142Y-108228571D01*
X141509523Y-108228571D01*
X141585714Y-108190476D01*
X141623809Y-108152380D01*
X141661904Y-108076190D01*
X141661904Y-107923809D01*
X141623809Y-107847619D01*
X141585714Y-107809523D01*
X141509523Y-107771428D01*
X141357142Y-107771428D01*
X141280952Y-107809523D01*
X141242857Y-107847619D01*
X141204761Y-107923809D01*
X161397904Y-88068095D02*
X161016952Y-88334761D01*
X161397904Y-88525238D02*
X160597904Y-88525238D01*
X160597904Y-88220476D01*
X160636000Y-88144285D01*
X160674095Y-88106190D01*
X160750285Y-88068095D01*
X160864571Y-88068095D01*
X160940761Y-88106190D01*
X160978857Y-88144285D01*
X161016952Y-88220476D01*
X161016952Y-88525238D01*
X161359809Y-87763333D02*
X161397904Y-87649047D01*
X161397904Y-87458571D01*
X161359809Y-87382380D01*
X161321714Y-87344285D01*
X161245523Y-87306190D01*
X161169333Y-87306190D01*
X161093142Y-87344285D01*
X161055047Y-87382380D01*
X161016952Y-87458571D01*
X160978857Y-87610952D01*
X160940761Y-87687142D01*
X160902666Y-87725238D01*
X160826476Y-87763333D01*
X160750285Y-87763333D01*
X160674095Y-87725238D01*
X160636000Y-87687142D01*
X160597904Y-87610952D01*
X160597904Y-87420476D01*
X160636000Y-87306190D01*
X160597904Y-87077619D02*
X160597904Y-86620476D01*
X161397904Y-86849047D02*
X160597904Y-86849047D01*
X160864571Y-100558571D02*
X161397904Y-100558571D01*
X160559809Y-100749047D02*
X161131238Y-100939523D01*
X161131238Y-100444285D01*
X160674095Y-100177619D02*
X160636000Y-100139523D01*
X160597904Y-100063333D01*
X160597904Y-99872857D01*
X160636000Y-99796666D01*
X160674095Y-99758571D01*
X160750285Y-99720476D01*
X160826476Y-99720476D01*
X160940761Y-99758571D01*
X161397904Y-100215714D01*
X161397904Y-99720476D01*
X160597904Y-113677619D02*
X160597904Y-113182380D01*
X160902666Y-113449047D01*
X160902666Y-113334761D01*
X160940761Y-113258571D01*
X160978857Y-113220476D01*
X161055047Y-113182380D01*
X161245523Y-113182380D01*
X161321714Y-113220476D01*
X161359809Y-113258571D01*
X161397904Y-113334761D01*
X161397904Y-113563333D01*
X161359809Y-113639523D01*
X161321714Y-113677619D01*
X160597904Y-112915714D02*
X160597904Y-112382380D01*
X161397904Y-112725238D01*
X140861904Y-85699523D02*
X140861904Y-85204285D01*
X141166666Y-85470952D01*
X141166666Y-85356666D01*
X141204761Y-85280476D01*
X141242857Y-85242380D01*
X141319047Y-85204285D01*
X141509523Y-85204285D01*
X141585714Y-85242380D01*
X141623809Y-85280476D01*
X141661904Y-85356666D01*
X141661904Y-85585238D01*
X141623809Y-85661428D01*
X141585714Y-85699523D01*
X140861904Y-84975714D02*
X141661904Y-84709047D01*
X140861904Y-84442380D01*
X141661904Y-118252380D02*
X141661904Y-118709523D01*
X141661904Y-118480952D02*
X140861904Y-118480952D01*
X140976190Y-118557142D01*
X141052380Y-118633333D01*
X141090476Y-118709523D01*
X140938095Y-117947619D02*
X140900000Y-117909523D01*
X140861904Y-117833333D01*
X140861904Y-117642857D01*
X140900000Y-117566666D01*
X140938095Y-117528571D01*
X141014285Y-117490476D01*
X141090476Y-117490476D01*
X141204761Y-117528571D01*
X141661904Y-117985714D01*
X141661904Y-117490476D01*
X140938095Y-92928571D02*
X140900000Y-92890476D01*
X140861904Y-92814285D01*
X140861904Y-92623809D01*
X140900000Y-92547619D01*
X140938095Y-92509523D01*
X141014285Y-92471428D01*
X141090476Y-92471428D01*
X141204761Y-92509523D01*
X141661904Y-92966666D01*
X141661904Y-92471428D01*
X160597904Y-123837619D02*
X160597904Y-123342380D01*
X160902666Y-123609047D01*
X160902666Y-123494761D01*
X160940761Y-123418571D01*
X160978857Y-123380476D01*
X161055047Y-123342380D01*
X161245523Y-123342380D01*
X161321714Y-123380476D01*
X161359809Y-123418571D01*
X161397904Y-123494761D01*
X161397904Y-123723333D01*
X161359809Y-123799523D01*
X161321714Y-123837619D01*
X160597904Y-123075714D02*
X160597904Y-122580476D01*
X160902666Y-122847142D01*
X160902666Y-122732857D01*
X160940761Y-122656666D01*
X160978857Y-122618571D01*
X161055047Y-122580476D01*
X161245523Y-122580476D01*
X161321714Y-122618571D01*
X161359809Y-122656666D01*
X161397904Y-122732857D01*
X161397904Y-122961428D01*
X161359809Y-123037619D01*
X161321714Y-123075714D01*
X161397904Y-95383333D02*
X161016952Y-95650000D01*
X161397904Y-95840476D02*
X160597904Y-95840476D01*
X160597904Y-95535714D01*
X160636000Y-95459523D01*
X160674095Y-95421428D01*
X160750285Y-95383333D01*
X160864571Y-95383333D01*
X160940761Y-95421428D01*
X160978857Y-95459523D01*
X161016952Y-95535714D01*
X161016952Y-95840476D01*
X160597904Y-95116666D02*
X161397904Y-94583333D01*
X160597904Y-94583333D02*
X161397904Y-95116666D01*
X140861904Y-95566666D02*
X140861904Y-95071428D01*
X141166666Y-95338095D01*
X141166666Y-95223809D01*
X141204761Y-95147619D01*
X141242857Y-95109523D01*
X141319047Y-95071428D01*
X141509523Y-95071428D01*
X141585714Y-95109523D01*
X141623809Y-95147619D01*
X141661904Y-95223809D01*
X141661904Y-95452380D01*
X141623809Y-95528571D01*
X141585714Y-95566666D01*
X140861904Y-105666666D02*
X140861904Y-105133333D01*
X141661904Y-105476190D01*
X160636000Y-85699523D02*
X160597904Y-85775714D01*
X160597904Y-85890000D01*
X160636000Y-86004285D01*
X160712190Y-86080476D01*
X160788380Y-86118571D01*
X160940761Y-86156666D01*
X161055047Y-86156666D01*
X161207428Y-86118571D01*
X161283619Y-86080476D01*
X161359809Y-86004285D01*
X161397904Y-85890000D01*
X161397904Y-85813809D01*
X161359809Y-85699523D01*
X161321714Y-85661428D01*
X161055047Y-85661428D01*
X161055047Y-85813809D01*
X161397904Y-85318571D02*
X160597904Y-85318571D01*
X161397904Y-84861428D01*
X160597904Y-84861428D01*
X161397904Y-84480476D02*
X160597904Y-84480476D01*
X160597904Y-84290000D01*
X160636000Y-84175714D01*
X160712190Y-84099523D01*
X160788380Y-84061428D01*
X160940761Y-84023333D01*
X161055047Y-84023333D01*
X161207428Y-84061428D01*
X161283619Y-84099523D01*
X161359809Y-84175714D01*
X161397904Y-84290000D01*
X161397904Y-84480476D01*
X161397904Y-128422380D02*
X161397904Y-128879523D01*
X161397904Y-128650952D02*
X160597904Y-128650952D01*
X160712190Y-128727142D01*
X160788380Y-128803333D01*
X160826476Y-128879523D01*
X160597904Y-128155714D02*
X160597904Y-127622380D01*
X161397904Y-127965238D01*
X140900000Y-131409523D02*
X140861904Y-131485714D01*
X140861904Y-131600000D01*
X140900000Y-131714285D01*
X140976190Y-131790476D01*
X141052380Y-131828571D01*
X141204761Y-131866666D01*
X141319047Y-131866666D01*
X141471428Y-131828571D01*
X141547619Y-131790476D01*
X141623809Y-131714285D01*
X141661904Y-131600000D01*
X141661904Y-131523809D01*
X141623809Y-131409523D01*
X141585714Y-131371428D01*
X141319047Y-131371428D01*
X141319047Y-131523809D01*
X141661904Y-131028571D02*
X140861904Y-131028571D01*
X141661904Y-130571428D01*
X140861904Y-130571428D01*
X141661904Y-130190476D02*
X140861904Y-130190476D01*
X140861904Y-130000000D01*
X140900000Y-129885714D01*
X140976190Y-129809523D01*
X141052380Y-129771428D01*
X141204761Y-129733333D01*
X141319047Y-129733333D01*
X141471428Y-129771428D01*
X141547619Y-129809523D01*
X141623809Y-129885714D01*
X141661904Y-130000000D01*
X141661904Y-130190476D01*
X141661904Y-89971428D02*
X141661904Y-90428571D01*
X141661904Y-90200000D02*
X140861904Y-90200000D01*
X140976190Y-90276190D01*
X141052380Y-90352380D01*
X141090476Y-90428571D01*
X140861904Y-102747619D02*
X140861904Y-102900000D01*
X140900000Y-102976190D01*
X140938095Y-103014285D01*
X141052380Y-103090476D01*
X141204761Y-103128571D01*
X141509523Y-103128571D01*
X141585714Y-103090476D01*
X141623809Y-103052380D01*
X141661904Y-102976190D01*
X141661904Y-102823809D01*
X141623809Y-102747619D01*
X141585714Y-102709523D01*
X141509523Y-102671428D01*
X141319047Y-102671428D01*
X141242857Y-102709523D01*
X141204761Y-102747619D01*
X141166666Y-102823809D01*
X141166666Y-102976190D01*
X141204761Y-103052380D01*
X141242857Y-103090476D01*
X141319047Y-103128571D01*
X160597904Y-111137619D02*
X160597904Y-110642380D01*
X160902666Y-110909047D01*
X160902666Y-110794761D01*
X160940761Y-110718571D01*
X160978857Y-110680476D01*
X161055047Y-110642380D01*
X161245523Y-110642380D01*
X161321714Y-110680476D01*
X161359809Y-110718571D01*
X161397904Y-110794761D01*
X161397904Y-111023333D01*
X161359809Y-111099523D01*
X161321714Y-111137619D01*
X160940761Y-110185238D02*
X160902666Y-110261428D01*
X160864571Y-110299523D01*
X160788380Y-110337619D01*
X160750285Y-110337619D01*
X160674095Y-110299523D01*
X160636000Y-110261428D01*
X160597904Y-110185238D01*
X160597904Y-110032857D01*
X160636000Y-109956666D01*
X160674095Y-109918571D01*
X160750285Y-109880476D01*
X160788380Y-109880476D01*
X160864571Y-109918571D01*
X160902666Y-109956666D01*
X160940761Y-110032857D01*
X160940761Y-110185238D01*
X160978857Y-110261428D01*
X161016952Y-110299523D01*
X161093142Y-110337619D01*
X161245523Y-110337619D01*
X161321714Y-110299523D01*
X161359809Y-110261428D01*
X161397904Y-110185238D01*
X161397904Y-110032857D01*
X161359809Y-109956666D01*
X161321714Y-109918571D01*
X161245523Y-109880476D01*
X161093142Y-109880476D01*
X161016952Y-109918571D01*
X160978857Y-109956666D01*
X160940761Y-110032857D01*
X160636000Y-131419523D02*
X160597904Y-131495714D01*
X160597904Y-131610000D01*
X160636000Y-131724285D01*
X160712190Y-131800476D01*
X160788380Y-131838571D01*
X160940761Y-131876666D01*
X161055047Y-131876666D01*
X161207428Y-131838571D01*
X161283619Y-131800476D01*
X161359809Y-131724285D01*
X161397904Y-131610000D01*
X161397904Y-131533809D01*
X161359809Y-131419523D01*
X161321714Y-131381428D01*
X161055047Y-131381428D01*
X161055047Y-131533809D01*
X161397904Y-131038571D02*
X160597904Y-131038571D01*
X161397904Y-130581428D01*
X160597904Y-130581428D01*
X161397904Y-130200476D02*
X160597904Y-130200476D01*
X160597904Y-130010000D01*
X160636000Y-129895714D01*
X160712190Y-129819523D01*
X160788380Y-129781428D01*
X160940761Y-129743333D01*
X161055047Y-129743333D01*
X161207428Y-129781428D01*
X161283619Y-129819523D01*
X161359809Y-129895714D01*
X161397904Y-130010000D01*
X161397904Y-130200476D01*
X141661904Y-120752380D02*
X141661904Y-121209523D01*
X141661904Y-120980952D02*
X140861904Y-120980952D01*
X140976190Y-121057142D01*
X141052380Y-121133333D01*
X141090476Y-121209523D01*
X140861904Y-120485714D02*
X140861904Y-119990476D01*
X141166666Y-120257142D01*
X141166666Y-120142857D01*
X141204761Y-120066666D01*
X141242857Y-120028571D01*
X141319047Y-119990476D01*
X141509523Y-119990476D01*
X141585714Y-120028571D01*
X141623809Y-120066666D01*
X141661904Y-120142857D01*
X141661904Y-120371428D01*
X141623809Y-120447619D01*
X141585714Y-120485714D01*
X141661904Y-110652380D02*
X141661904Y-110500000D01*
X141623809Y-110423809D01*
X141585714Y-110385714D01*
X141471428Y-110309523D01*
X141319047Y-110271428D01*
X141014285Y-110271428D01*
X140938095Y-110309523D01*
X140900000Y-110347619D01*
X140861904Y-110423809D01*
X140861904Y-110576190D01*
X140900000Y-110652380D01*
X140938095Y-110690476D01*
X141014285Y-110728571D01*
X141204761Y-110728571D01*
X141280952Y-110690476D01*
X141319047Y-110652380D01*
X141357142Y-110576190D01*
X141357142Y-110423809D01*
X141319047Y-110347619D01*
X141280952Y-110309523D01*
X141204761Y-110271428D01*
X141657481Y-125852380D02*
X141657481Y-126309523D01*
X141657481Y-126080952D02*
X140857481Y-126080952D01*
X140971767Y-126157142D01*
X141047957Y-126233333D01*
X141086053Y-126309523D01*
X140857481Y-125128571D02*
X140857481Y-125509523D01*
X141238434Y-125547619D01*
X141200338Y-125509523D01*
X141162243Y-125433333D01*
X141162243Y-125242857D01*
X141200338Y-125166666D01*
X141238434Y-125128571D01*
X141314624Y-125090476D01*
X141505100Y-125090476D01*
X141581291Y-125128571D01*
X141619386Y-125166666D01*
X141657481Y-125242857D01*
X141657481Y-125433333D01*
X141619386Y-125509523D01*
X141581291Y-125547619D01*
X160864571Y-92938571D02*
X161397904Y-92938571D01*
X160559809Y-93129047D02*
X161131238Y-93319523D01*
X161131238Y-92824285D01*
X160597904Y-92138571D02*
X160597904Y-92519523D01*
X160978857Y-92557619D01*
X160940761Y-92519523D01*
X160902666Y-92443333D01*
X160902666Y-92252857D01*
X160940761Y-92176666D01*
X160978857Y-92138571D01*
X161055047Y-92100476D01*
X161245523Y-92100476D01*
X161321714Y-92138571D01*
X161359809Y-92176666D01*
X161397904Y-92252857D01*
X161397904Y-92443333D01*
X161359809Y-92519523D01*
X161321714Y-92557619D01*
X160864571Y-103098571D02*
X161397904Y-103098571D01*
X160559809Y-103289047D02*
X161131238Y-103479523D01*
X161131238Y-102984285D01*
X161397904Y-102260476D02*
X161397904Y-102717619D01*
X161397904Y-102489047D02*
X160597904Y-102489047D01*
X160712190Y-102565238D01*
X160788380Y-102641428D01*
X160826476Y-102717619D01*
X140900000Y-134009523D02*
X140861904Y-134085714D01*
X140861904Y-134200000D01*
X140900000Y-134314285D01*
X140976190Y-134390476D01*
X141052380Y-134428571D01*
X141204761Y-134466666D01*
X141319047Y-134466666D01*
X141471428Y-134428571D01*
X141547619Y-134390476D01*
X141623809Y-134314285D01*
X141661904Y-134200000D01*
X141661904Y-134123809D01*
X141623809Y-134009523D01*
X141585714Y-133971428D01*
X141319047Y-133971428D01*
X141319047Y-134123809D01*
X141661904Y-133628571D02*
X140861904Y-133628571D01*
X141661904Y-133171428D01*
X140861904Y-133171428D01*
X141661904Y-132790476D02*
X140861904Y-132790476D01*
X140861904Y-132600000D01*
X140900000Y-132485714D01*
X140976190Y-132409523D01*
X141052380Y-132371428D01*
X141204761Y-132333333D01*
X141319047Y-132333333D01*
X141471428Y-132371428D01*
X141547619Y-132409523D01*
X141623809Y-132485714D01*
X141661904Y-132600000D01*
X141661904Y-132790476D01*
X160864571Y-105638571D02*
X161397904Y-105638571D01*
X160559809Y-105829047D02*
X161131238Y-106019523D01*
X161131238Y-105524285D01*
X160597904Y-105067142D02*
X160597904Y-104990952D01*
X160636000Y-104914761D01*
X160674095Y-104876666D01*
X160750285Y-104838571D01*
X160902666Y-104800476D01*
X161093142Y-104800476D01*
X161245523Y-104838571D01*
X161321714Y-104876666D01*
X161359809Y-104914761D01*
X161397904Y-104990952D01*
X161397904Y-105067142D01*
X161359809Y-105143333D01*
X161321714Y-105181428D01*
X161245523Y-105219523D01*
X161093142Y-105257619D01*
X160902666Y-105257619D01*
X160750285Y-105219523D01*
X160674095Y-105181428D01*
X160636000Y-105143333D01*
X160597904Y-105067142D01*
X140861904Y-128452380D02*
X140861904Y-128833333D01*
X141242857Y-128871428D01*
X141204761Y-128833333D01*
X141166666Y-128757142D01*
X141166666Y-128566666D01*
X141204761Y-128490476D01*
X141242857Y-128452380D01*
X141319047Y-128414285D01*
X141509523Y-128414285D01*
X141585714Y-128452380D01*
X141623809Y-128490476D01*
X141661904Y-128566666D01*
X141661904Y-128757142D01*
X141623809Y-128833333D01*
X141585714Y-128871428D01*
X140861904Y-128185714D02*
X141661904Y-127919047D01*
X140861904Y-127652380D01*
X160597904Y-98399523D02*
X160597904Y-97942380D01*
X161397904Y-98170952D02*
X160597904Y-98170952D01*
X160597904Y-97751904D02*
X161397904Y-97218571D01*
X160597904Y-97218571D02*
X161397904Y-97751904D01*
X160597904Y-108597619D02*
X160597904Y-108102380D01*
X160902666Y-108369047D01*
X160902666Y-108254761D01*
X160940761Y-108178571D01*
X160978857Y-108140476D01*
X161055047Y-108102380D01*
X161245523Y-108102380D01*
X161321714Y-108140476D01*
X161359809Y-108178571D01*
X161397904Y-108254761D01*
X161397904Y-108483333D01*
X161359809Y-108559523D01*
X161321714Y-108597619D01*
X161397904Y-107721428D02*
X161397904Y-107569047D01*
X161359809Y-107492857D01*
X161321714Y-107454761D01*
X161207428Y-107378571D01*
X161055047Y-107340476D01*
X160750285Y-107340476D01*
X160674095Y-107378571D01*
X160636000Y-107416666D01*
X160597904Y-107492857D01*
X160597904Y-107645238D01*
X160636000Y-107721428D01*
X160674095Y-107759523D01*
X160750285Y-107797619D01*
X160940761Y-107797619D01*
X161016952Y-107759523D01*
X161055047Y-107721428D01*
X161093142Y-107645238D01*
X161093142Y-107492857D01*
X161055047Y-107416666D01*
X161016952Y-107378571D01*
X160940761Y-107340476D01*
X141661904Y-115652380D02*
X141661904Y-116109523D01*
X141661904Y-115880952D02*
X140861904Y-115880952D01*
X140976190Y-115957142D01*
X141052380Y-116033333D01*
X141090476Y-116109523D01*
X141661904Y-114890476D02*
X141661904Y-115347619D01*
X141661904Y-115119047D02*
X140861904Y-115119047D01*
X140976190Y-115195238D01*
X141052380Y-115271428D01*
X141090476Y-115347619D01*
X161397904Y-125882380D02*
X161397904Y-126339523D01*
X161397904Y-126110952D02*
X160597904Y-126110952D01*
X160712190Y-126187142D01*
X160788380Y-126263333D01*
X160826476Y-126339523D01*
X160940761Y-125425238D02*
X160902666Y-125501428D01*
X160864571Y-125539523D01*
X160788380Y-125577619D01*
X160750285Y-125577619D01*
X160674095Y-125539523D01*
X160636000Y-125501428D01*
X160597904Y-125425238D01*
X160597904Y-125272857D01*
X160636000Y-125196666D01*
X160674095Y-125158571D01*
X160750285Y-125120476D01*
X160788380Y-125120476D01*
X160864571Y-125158571D01*
X160902666Y-125196666D01*
X160940761Y-125272857D01*
X160940761Y-125425238D01*
X160978857Y-125501428D01*
X161016952Y-125539523D01*
X161093142Y-125577619D01*
X161245523Y-125577619D01*
X161321714Y-125539523D01*
X161359809Y-125501428D01*
X161397904Y-125425238D01*
X161397904Y-125272857D01*
X161359809Y-125196666D01*
X161321714Y-125158571D01*
X161245523Y-125120476D01*
X161093142Y-125120476D01*
X161016952Y-125158571D01*
X160978857Y-125196666D01*
X160940761Y-125272857D01*
X141661904Y-123252380D02*
X141661904Y-123709523D01*
X141661904Y-123480952D02*
X140861904Y-123480952D01*
X140976190Y-123557142D01*
X141052380Y-123633333D01*
X141090476Y-123709523D01*
X141128571Y-122566666D02*
X141661904Y-122566666D01*
X140823809Y-122757142D02*
X141395238Y-122947619D01*
X141395238Y-122452380D01*
X160864571Y-90398571D02*
X161397904Y-90398571D01*
X160559809Y-90589047D02*
X161131238Y-90779523D01*
X161131238Y-90284285D01*
X160597904Y-89636666D02*
X160597904Y-89789047D01*
X160636000Y-89865238D01*
X160674095Y-89903333D01*
X160788380Y-89979523D01*
X160940761Y-90017619D01*
X161245523Y-90017619D01*
X161321714Y-89979523D01*
X161359809Y-89941428D01*
X161397904Y-89865238D01*
X161397904Y-89712857D01*
X161359809Y-89636666D01*
X161321714Y-89598571D01*
X161245523Y-89560476D01*
X161055047Y-89560476D01*
X160978857Y-89598571D01*
X160940761Y-89636666D01*
X160902666Y-89712857D01*
X160902666Y-89865238D01*
X160940761Y-89941428D01*
X160978857Y-89979523D01*
X161055047Y-90017619D01*
X160597904Y-118757619D02*
X160597904Y-118262380D01*
X160902666Y-118529047D01*
X160902666Y-118414761D01*
X160940761Y-118338571D01*
X160978857Y-118300476D01*
X161055047Y-118262380D01*
X161245523Y-118262380D01*
X161321714Y-118300476D01*
X161359809Y-118338571D01*
X161397904Y-118414761D01*
X161397904Y-118643333D01*
X161359809Y-118719523D01*
X161321714Y-118757619D01*
X160597904Y-117538571D02*
X160597904Y-117919523D01*
X160978857Y-117957619D01*
X160940761Y-117919523D01*
X160902666Y-117843333D01*
X160902666Y-117652857D01*
X160940761Y-117576666D01*
X160978857Y-117538571D01*
X161055047Y-117500476D01*
X161245523Y-117500476D01*
X161321714Y-117538571D01*
X161359809Y-117576666D01*
X161397904Y-117652857D01*
X161397904Y-117843333D01*
X161359809Y-117919523D01*
X161321714Y-117957619D01*
X141128571Y-97647619D02*
X141661904Y-97647619D01*
X140823809Y-97838095D02*
X141395238Y-98028571D01*
X141395238Y-97533333D01*
X141661904Y-113152380D02*
X141661904Y-113609523D01*
X141661904Y-113380952D02*
X140861904Y-113380952D01*
X140976190Y-113457142D01*
X141052380Y-113533333D01*
X141090476Y-113609523D01*
X140861904Y-112657142D02*
X140861904Y-112580952D01*
X140900000Y-112504761D01*
X140938095Y-112466666D01*
X141014285Y-112428571D01*
X141166666Y-112390476D01*
X141357142Y-112390476D01*
X141509523Y-112428571D01*
X141585714Y-112466666D01*
X141623809Y-112504761D01*
X141661904Y-112580952D01*
X141661904Y-112657142D01*
X141623809Y-112733333D01*
X141585714Y-112771428D01*
X141509523Y-112809523D01*
X141357142Y-112847619D01*
X141166666Y-112847619D01*
X141014285Y-112809523D01*
X140938095Y-112771428D01*
X140900000Y-112733333D01*
X140861904Y-112657142D01*
%TO.C,U2*%
X153376380Y-134873904D02*
X154185904Y-134873904D01*
X154281142Y-134826285D01*
X154328761Y-134778666D01*
X154376380Y-134683428D01*
X154376380Y-134492952D01*
X154328761Y-134397714D01*
X154281142Y-134350095D01*
X154185904Y-134302476D01*
X153376380Y-134302476D01*
X153471619Y-133873904D02*
X153424000Y-133826285D01*
X153376380Y-133731047D01*
X153376380Y-133492952D01*
X153424000Y-133397714D01*
X153471619Y-133350095D01*
X153566857Y-133302476D01*
X153662095Y-133302476D01*
X153804952Y-133350095D01*
X154376380Y-133921523D01*
X154376380Y-133302476D01*
%TO.C,R1*%
X153994591Y-113178380D02*
X153661258Y-112702190D01*
X153423162Y-113178380D02*
X153423162Y-112178380D01*
X153804115Y-112178380D01*
X153899353Y-112226000D01*
X153946972Y-112273619D01*
X153994591Y-112368857D01*
X153994591Y-112511714D01*
X153946972Y-112606952D01*
X153899353Y-112654571D01*
X153804115Y-112702190D01*
X153423162Y-112702190D01*
X154946972Y-113178380D02*
X154375543Y-113178380D01*
X154661258Y-113178380D02*
X154661258Y-112178380D01*
X154566019Y-112321238D01*
X154470781Y-112416476D01*
X154375543Y-112464095D01*
%TO.C,R4*%
X150202380Y-121416666D02*
X149726190Y-121750000D01*
X150202380Y-121988095D02*
X149202380Y-121988095D01*
X149202380Y-121607142D01*
X149250000Y-121511904D01*
X149297619Y-121464285D01*
X149392857Y-121416666D01*
X149535714Y-121416666D01*
X149630952Y-121464285D01*
X149678571Y-121511904D01*
X149726190Y-121607142D01*
X149726190Y-121988095D01*
X149535714Y-120559523D02*
X150202380Y-120559523D01*
X149154761Y-120797619D02*
X149869047Y-121035714D01*
X149869047Y-120416666D01*
%TO.C,R3*%
X145232380Y-121416666D02*
X144756190Y-121750000D01*
X145232380Y-121988095D02*
X144232380Y-121988095D01*
X144232380Y-121607142D01*
X144280000Y-121511904D01*
X144327619Y-121464285D01*
X144422857Y-121416666D01*
X144565714Y-121416666D01*
X144660952Y-121464285D01*
X144708571Y-121511904D01*
X144756190Y-121607142D01*
X144756190Y-121988095D01*
X144232380Y-121083333D02*
X144232380Y-120464285D01*
X144613333Y-120797619D01*
X144613333Y-120654761D01*
X144660952Y-120559523D01*
X144708571Y-120511904D01*
X144803809Y-120464285D01*
X145041904Y-120464285D01*
X145137142Y-120511904D01*
X145184761Y-120559523D01*
X145232380Y-120654761D01*
X145232380Y-120940476D01*
X145184761Y-121035714D01*
X145137142Y-121083333D01*
%TO.C,C5*%
X155297142Y-120666666D02*
X155344761Y-120714285D01*
X155392380Y-120857142D01*
X155392380Y-120952380D01*
X155344761Y-121095238D01*
X155249523Y-121190476D01*
X155154285Y-121238095D01*
X154963809Y-121285714D01*
X154820952Y-121285714D01*
X154630476Y-121238095D01*
X154535238Y-121190476D01*
X154440000Y-121095238D01*
X154392380Y-120952380D01*
X154392380Y-120857142D01*
X154440000Y-120714285D01*
X154487619Y-120666666D01*
X154392380Y-119761904D02*
X154392380Y-120238095D01*
X154868571Y-120285714D01*
X154820952Y-120238095D01*
X154773333Y-120142857D01*
X154773333Y-119904761D01*
X154820952Y-119809523D01*
X154868571Y-119761904D01*
X154963809Y-119714285D01*
X155201904Y-119714285D01*
X155297142Y-119761904D01*
X155344761Y-119809523D01*
X155392380Y-119904761D01*
X155392380Y-120142857D01*
X155344761Y-120238095D01*
X155297142Y-120285714D01*
%TO.C,R2*%
X144613333Y-113202380D02*
X144280000Y-112726190D01*
X144041904Y-113202380D02*
X144041904Y-112202380D01*
X144422857Y-112202380D01*
X144518095Y-112250000D01*
X144565714Y-112297619D01*
X144613333Y-112392857D01*
X144613333Y-112535714D01*
X144565714Y-112630952D01*
X144518095Y-112678571D01*
X144422857Y-112726190D01*
X144041904Y-112726190D01*
X144994285Y-112297619D02*
X145041904Y-112250000D01*
X145137142Y-112202380D01*
X145375238Y-112202380D01*
X145470476Y-112250000D01*
X145518095Y-112297619D01*
X145565714Y-112392857D01*
X145565714Y-112488095D01*
X145518095Y-112630952D01*
X144946666Y-113202380D01*
X145565714Y-113202380D01*
%TO.C,C4*%
X152107142Y-121416666D02*
X152154761Y-121464285D01*
X152202380Y-121607142D01*
X152202380Y-121702380D01*
X152154761Y-121845238D01*
X152059523Y-121940476D01*
X151964285Y-121988095D01*
X151773809Y-122035714D01*
X151630952Y-122035714D01*
X151440476Y-121988095D01*
X151345238Y-121940476D01*
X151250000Y-121845238D01*
X151202380Y-121702380D01*
X151202380Y-121607142D01*
X151250000Y-121464285D01*
X151297619Y-121416666D01*
X151535714Y-120559523D02*
X152202380Y-120559523D01*
X151154761Y-120797619D02*
X151869047Y-121035714D01*
X151869047Y-120416666D01*
%TO.C,R6*%
X148452380Y-121416666D02*
X147976190Y-121750000D01*
X148452380Y-121988095D02*
X147452380Y-121988095D01*
X147452380Y-121607142D01*
X147500000Y-121511904D01*
X147547619Y-121464285D01*
X147642857Y-121416666D01*
X147785714Y-121416666D01*
X147880952Y-121464285D01*
X147928571Y-121511904D01*
X147976190Y-121607142D01*
X147976190Y-121988095D01*
X147452380Y-120559523D02*
X147452380Y-120750000D01*
X147500000Y-120845238D01*
X147547619Y-120892857D01*
X147690476Y-120988095D01*
X147880952Y-121035714D01*
X148261904Y-121035714D01*
X148357142Y-120988095D01*
X148404761Y-120940476D01*
X148452380Y-120845238D01*
X148452380Y-120654761D01*
X148404761Y-120559523D01*
X148357142Y-120511904D01*
X148261904Y-120464285D01*
X148023809Y-120464285D01*
X147928571Y-120511904D01*
X147880952Y-120559523D01*
X147833333Y-120654761D01*
X147833333Y-120845238D01*
X147880952Y-120940476D01*
X147928571Y-120988095D01*
X148023809Y-121035714D01*
%TO.C,C2*%
X148309913Y-113107142D02*
X148262294Y-113154761D01*
X148119437Y-113202380D01*
X148024199Y-113202380D01*
X147881341Y-113154761D01*
X147786103Y-113059523D01*
X147738484Y-112964285D01*
X147690865Y-112773809D01*
X147690865Y-112630952D01*
X147738484Y-112440476D01*
X147786103Y-112345238D01*
X147881341Y-112250000D01*
X148024199Y-112202380D01*
X148119437Y-112202380D01*
X148262294Y-112250000D01*
X148309913Y-112297619D01*
X148690865Y-112297619D02*
X148738484Y-112250000D01*
X148833722Y-112202380D01*
X149071818Y-112202380D01*
X149167056Y-112250000D01*
X149214675Y-112297619D01*
X149262294Y-112392857D01*
X149262294Y-112488095D01*
X149214675Y-112630952D01*
X148643246Y-113202380D01*
X149262294Y-113202380D01*
%TO.C,BOOT1*%
X144724666Y-104728571D02*
X144867523Y-104776190D01*
X144915142Y-104823809D01*
X144962761Y-104919047D01*
X144962761Y-105061904D01*
X144915142Y-105157142D01*
X144867523Y-105204761D01*
X144772285Y-105252380D01*
X144391333Y-105252380D01*
X144391333Y-104252380D01*
X144724666Y-104252380D01*
X144819904Y-104300000D01*
X144867523Y-104347619D01*
X144915142Y-104442857D01*
X144915142Y-104538095D01*
X144867523Y-104633333D01*
X144819904Y-104680952D01*
X144724666Y-104728571D01*
X144391333Y-104728571D01*
X145581809Y-104252380D02*
X145772285Y-104252380D01*
X145867523Y-104300000D01*
X145962761Y-104395238D01*
X146010380Y-104585714D01*
X146010380Y-104919047D01*
X145962761Y-105109523D01*
X145867523Y-105204761D01*
X145772285Y-105252380D01*
X145581809Y-105252380D01*
X145486571Y-105204761D01*
X145391333Y-105109523D01*
X145343714Y-104919047D01*
X145343714Y-104585714D01*
X145391333Y-104395238D01*
X145486571Y-104300000D01*
X145581809Y-104252380D01*
X146629428Y-104252380D02*
X146819904Y-104252380D01*
X146915142Y-104300000D01*
X147010380Y-104395238D01*
X147058000Y-104585714D01*
X147058000Y-104919047D01*
X147010380Y-105109523D01*
X146915142Y-105204761D01*
X146819904Y-105252380D01*
X146629428Y-105252380D01*
X146534190Y-105204761D01*
X146438952Y-105109523D01*
X146391333Y-104919047D01*
X146391333Y-104585714D01*
X146438952Y-104395238D01*
X146534190Y-104300000D01*
X146629428Y-104252380D01*
X147343714Y-104252380D02*
X147915142Y-104252380D01*
X147629428Y-105252380D02*
X147629428Y-104252380D01*
X148772285Y-105252380D02*
X148200857Y-105252380D01*
X148486571Y-105252380D02*
X148486571Y-104252380D01*
X148391333Y-104395238D01*
X148296095Y-104490476D01*
X148200857Y-104538095D01*
%TO.C,D1*%
X157424380Y-121238095D02*
X156424380Y-121238095D01*
X156424380Y-121000000D01*
X156472000Y-120857142D01*
X156567238Y-120761904D01*
X156662476Y-120714285D01*
X156852952Y-120666666D01*
X156995809Y-120666666D01*
X157186285Y-120714285D01*
X157281523Y-120761904D01*
X157376761Y-120857142D01*
X157424380Y-121000000D01*
X157424380Y-121238095D01*
X157424380Y-119714285D02*
X157424380Y-120285714D01*
X157424380Y-120000000D02*
X156424380Y-120000000D01*
X156567238Y-120095238D01*
X156662476Y-120190476D01*
X156710095Y-120285714D01*
%TO.C,D2*%
X153261904Y-116452380D02*
X153261904Y-115452380D01*
X153500000Y-115452380D01*
X153642857Y-115500000D01*
X153738095Y-115595238D01*
X153785714Y-115690476D01*
X153833333Y-115880952D01*
X153833333Y-116023809D01*
X153785714Y-116214285D01*
X153738095Y-116309523D01*
X153642857Y-116404761D01*
X153500000Y-116452380D01*
X153261904Y-116452380D01*
X154214285Y-115547619D02*
X154261904Y-115500000D01*
X154357142Y-115452380D01*
X154595238Y-115452380D01*
X154690476Y-115500000D01*
X154738095Y-115547619D01*
X154785714Y-115642857D01*
X154785714Y-115738095D01*
X154738095Y-115880952D01*
X154166666Y-116452380D01*
X154785714Y-116452380D01*
D11*
%TO.C,J2*%
X147033333Y-126561904D02*
X147033333Y-127133333D01*
X146995238Y-127247619D01*
X146919047Y-127323809D01*
X146804761Y-127361904D01*
X146728571Y-127361904D01*
X147376190Y-126638095D02*
X147414285Y-126600000D01*
X147490476Y-126561904D01*
X147680952Y-126561904D01*
X147757142Y-126600000D01*
X147795238Y-126638095D01*
X147833333Y-126714285D01*
X147833333Y-126790476D01*
X147795238Y-126904761D01*
X147338095Y-127361904D01*
X147833333Y-127361904D01*
D10*
%TO.C,U1*%
X150438095Y-96852380D02*
X150438095Y-97661904D01*
X150485714Y-97757142D01*
X150533333Y-97804761D01*
X150628571Y-97852380D01*
X150819047Y-97852380D01*
X150914285Y-97804761D01*
X150961904Y-97757142D01*
X151009523Y-97661904D01*
X151009523Y-96852380D01*
X152009523Y-97852380D02*
X151438095Y-97852380D01*
X151723809Y-97852380D02*
X151723809Y-96852380D01*
X151628571Y-96995238D01*
X151533333Y-97090476D01*
X151438095Y-97138095D01*
X145463238Y-88828571D02*
X145796571Y-88828571D01*
X145939428Y-89352380D02*
X145463238Y-89352380D01*
X145463238Y-88352380D01*
X145939428Y-88352380D01*
X146320380Y-89304761D02*
X146463238Y-89352380D01*
X146701333Y-89352380D01*
X146796571Y-89304761D01*
X146844190Y-89257142D01*
X146891809Y-89161904D01*
X146891809Y-89066666D01*
X146844190Y-88971428D01*
X146796571Y-88923809D01*
X146701333Y-88876190D01*
X146510857Y-88828571D01*
X146415619Y-88780952D01*
X146368000Y-88733333D01*
X146320380Y-88638095D01*
X146320380Y-88542857D01*
X146368000Y-88447619D01*
X146415619Y-88400000D01*
X146510857Y-88352380D01*
X146748952Y-88352380D01*
X146891809Y-88400000D01*
X147320380Y-89352380D02*
X147320380Y-88352380D01*
X147701333Y-88352380D01*
X147796571Y-88400000D01*
X147844190Y-88447619D01*
X147891809Y-88542857D01*
X147891809Y-88685714D01*
X147844190Y-88780952D01*
X147796571Y-88828571D01*
X147701333Y-88876190D01*
X147320380Y-88876190D01*
X148225142Y-88352380D02*
X148844190Y-88352380D01*
X148510857Y-88733333D01*
X148653714Y-88733333D01*
X148748952Y-88780952D01*
X148796571Y-88828571D01*
X148844190Y-88923809D01*
X148844190Y-89161904D01*
X148796571Y-89257142D01*
X148748952Y-89304761D01*
X148653714Y-89352380D01*
X148368000Y-89352380D01*
X148272761Y-89304761D01*
X148225142Y-89257142D01*
X149225142Y-88447619D02*
X149272761Y-88400000D01*
X149368000Y-88352380D01*
X149606095Y-88352380D01*
X149701333Y-88400000D01*
X149748952Y-88447619D01*
X149796571Y-88542857D01*
X149796571Y-88638095D01*
X149748952Y-88780952D01*
X149177523Y-89352380D01*
X149796571Y-89352380D01*
X150225142Y-88971428D02*
X150987047Y-88971428D01*
X151415619Y-89304761D02*
X151558476Y-89352380D01*
X151796571Y-89352380D01*
X151891809Y-89304761D01*
X151939428Y-89257142D01*
X151987047Y-89161904D01*
X151987047Y-89066666D01*
X151939428Y-88971428D01*
X151891809Y-88923809D01*
X151796571Y-88876190D01*
X151606095Y-88828571D01*
X151510857Y-88780952D01*
X151463238Y-88733333D01*
X151415619Y-88638095D01*
X151415619Y-88542857D01*
X151463238Y-88447619D01*
X151510857Y-88400000D01*
X151606095Y-88352380D01*
X151844190Y-88352380D01*
X151987047Y-88400000D01*
X152368000Y-88447619D02*
X152415619Y-88400000D01*
X152510857Y-88352380D01*
X152748952Y-88352380D01*
X152844190Y-88400000D01*
X152891809Y-88447619D01*
X152939428Y-88542857D01*
X152939428Y-88638095D01*
X152891809Y-88780952D01*
X152320380Y-89352380D01*
X152939428Y-89352380D01*
X153368000Y-88971428D02*
X154129904Y-88971428D01*
X154606095Y-89352380D02*
X154606095Y-88352380D01*
X154939428Y-89066666D01*
X155272761Y-88352380D01*
X155272761Y-89352380D01*
X151130000Y-90892380D02*
X151130000Y-91130476D01*
X150891904Y-91035238D02*
X151130000Y-91130476D01*
X151368095Y-91035238D01*
X150987142Y-91320952D02*
X151130000Y-91130476D01*
X151272857Y-91320952D01*
%TO.C,R8*%
X157313333Y-116530380D02*
X156980000Y-116054190D01*
X156741904Y-116530380D02*
X156741904Y-115530380D01*
X157122857Y-115530380D01*
X157218095Y-115578000D01*
X157265714Y-115625619D01*
X157313333Y-115720857D01*
X157313333Y-115863714D01*
X157265714Y-115958952D01*
X157218095Y-116006571D01*
X157122857Y-116054190D01*
X156741904Y-116054190D01*
X157884761Y-115958952D02*
X157789523Y-115911333D01*
X157741904Y-115863714D01*
X157694285Y-115768476D01*
X157694285Y-115720857D01*
X157741904Y-115625619D01*
X157789523Y-115578000D01*
X157884761Y-115530380D01*
X158075238Y-115530380D01*
X158170476Y-115578000D01*
X158218095Y-115625619D01*
X158265714Y-115720857D01*
X158265714Y-115768476D01*
X158218095Y-115863714D01*
X158170476Y-115911333D01*
X158075238Y-115958952D01*
X157884761Y-115958952D01*
X157789523Y-116006571D01*
X157741904Y-116054190D01*
X157694285Y-116149428D01*
X157694285Y-116339904D01*
X157741904Y-116435142D01*
X157789523Y-116482761D01*
X157884761Y-116530380D01*
X158075238Y-116530380D01*
X158170476Y-116482761D01*
X158218095Y-116435142D01*
X158265714Y-116339904D01*
X158265714Y-116149428D01*
X158218095Y-116054190D01*
X158170476Y-116006571D01*
X158075238Y-115958952D01*
%TO.C,R5*%
X146952380Y-121416666D02*
X146476190Y-121750000D01*
X146952380Y-121988095D02*
X145952380Y-121988095D01*
X145952380Y-121607142D01*
X146000000Y-121511904D01*
X146047619Y-121464285D01*
X146142857Y-121416666D01*
X146285714Y-121416666D01*
X146380952Y-121464285D01*
X146428571Y-121511904D01*
X146476190Y-121607142D01*
X146476190Y-121988095D01*
X145952380Y-120511904D02*
X145952380Y-120988095D01*
X146428571Y-121035714D01*
X146380952Y-120988095D01*
X146333333Y-120892857D01*
X146333333Y-120654761D01*
X146380952Y-120559523D01*
X146428571Y-120511904D01*
X146523809Y-120464285D01*
X146761904Y-120464285D01*
X146857142Y-120511904D01*
X146904761Y-120559523D01*
X146952380Y-120654761D01*
X146952380Y-120892857D01*
X146904761Y-120988095D01*
X146857142Y-121035714D01*
%TO.C,C1*%
X157333333Y-113107142D02*
X157285714Y-113154761D01*
X157142857Y-113202380D01*
X157047619Y-113202380D01*
X156904761Y-113154761D01*
X156809523Y-113059523D01*
X156761904Y-112964285D01*
X156714285Y-112773809D01*
X156714285Y-112630952D01*
X156761904Y-112440476D01*
X156809523Y-112345238D01*
X156904761Y-112250000D01*
X157047619Y-112202380D01*
X157142857Y-112202380D01*
X157285714Y-112250000D01*
X157333333Y-112297619D01*
X158285714Y-113202380D02*
X157714285Y-113202380D01*
X158000000Y-113202380D02*
X158000000Y-112202380D01*
X157904761Y-112345238D01*
X157809523Y-112440476D01*
X157714285Y-112488095D01*
%TO.C,RESET1*%
X153773428Y-105252380D02*
X153440095Y-104776190D01*
X153202000Y-105252380D02*
X153202000Y-104252380D01*
X153582952Y-104252380D01*
X153678190Y-104300000D01*
X153725809Y-104347619D01*
X153773428Y-104442857D01*
X153773428Y-104585714D01*
X153725809Y-104680952D01*
X153678190Y-104728571D01*
X153582952Y-104776190D01*
X153202000Y-104776190D01*
X154202000Y-104728571D02*
X154535333Y-104728571D01*
X154678190Y-105252380D02*
X154202000Y-105252380D01*
X154202000Y-104252380D01*
X154678190Y-104252380D01*
X155059142Y-105204761D02*
X155202000Y-105252380D01*
X155440095Y-105252380D01*
X155535333Y-105204761D01*
X155582952Y-105157142D01*
X155630571Y-105061904D01*
X155630571Y-104966666D01*
X155582952Y-104871428D01*
X155535333Y-104823809D01*
X155440095Y-104776190D01*
X155249619Y-104728571D01*
X155154380Y-104680952D01*
X155106761Y-104633333D01*
X155059142Y-104538095D01*
X155059142Y-104442857D01*
X155106761Y-104347619D01*
X155154380Y-104300000D01*
X155249619Y-104252380D01*
X155487714Y-104252380D01*
X155630571Y-104300000D01*
X156059142Y-104728571D02*
X156392476Y-104728571D01*
X156535333Y-105252380D02*
X156059142Y-105252380D01*
X156059142Y-104252380D01*
X156535333Y-104252380D01*
X156821047Y-104252380D02*
X157392476Y-104252380D01*
X157106761Y-105252380D02*
X157106761Y-104252380D01*
X158249619Y-105252380D02*
X157678190Y-105252380D01*
X157963904Y-105252380D02*
X157963904Y-104252380D01*
X157868666Y-104395238D01*
X157773428Y-104490476D01*
X157678190Y-104538095D01*
%TO.C,C3*%
X143357142Y-121416666D02*
X143404761Y-121464285D01*
X143452380Y-121607142D01*
X143452380Y-121702380D01*
X143404761Y-121845238D01*
X143309523Y-121940476D01*
X143214285Y-121988095D01*
X143023809Y-122035714D01*
X142880952Y-122035714D01*
X142690476Y-121988095D01*
X142595238Y-121940476D01*
X142500000Y-121845238D01*
X142452380Y-121702380D01*
X142452380Y-121607142D01*
X142500000Y-121464285D01*
X142547619Y-121416666D01*
X142452380Y-121083333D02*
X142452380Y-120464285D01*
X142833333Y-120797619D01*
X142833333Y-120654761D01*
X142880952Y-120559523D01*
X142928571Y-120511904D01*
X143023809Y-120464285D01*
X143261904Y-120464285D01*
X143357142Y-120511904D01*
X143404761Y-120559523D01*
X143452380Y-120654761D01*
X143452380Y-120940476D01*
X143404761Y-121035714D01*
X143357142Y-121083333D01*
%TO.C,R7*%
X159456380Y-120666666D02*
X158980190Y-121000000D01*
X159456380Y-121238095D02*
X158456380Y-121238095D01*
X158456380Y-120857142D01*
X158504000Y-120761904D01*
X158551619Y-120714285D01*
X158646857Y-120666666D01*
X158789714Y-120666666D01*
X158884952Y-120714285D01*
X158932571Y-120761904D01*
X158980190Y-120857142D01*
X158980190Y-121238095D01*
X158456380Y-120333333D02*
X158456380Y-119666666D01*
X159456380Y-120095238D01*
%TO.C,D3*%
X147851904Y-118202380D02*
X147851904Y-117202380D01*
X148090000Y-117202380D01*
X148232857Y-117250000D01*
X148328095Y-117345238D01*
X148375714Y-117440476D01*
X148423333Y-117630952D01*
X148423333Y-117773809D01*
X148375714Y-117964285D01*
X148328095Y-118059523D01*
X148232857Y-118154761D01*
X148090000Y-118202380D01*
X147851904Y-118202380D01*
X148756666Y-117202380D02*
X149375714Y-117202380D01*
X149042380Y-117583333D01*
X149185238Y-117583333D01*
X149280476Y-117630952D01*
X149328095Y-117678571D01*
X149375714Y-117773809D01*
X149375714Y-118011904D01*
X149328095Y-118107142D01*
X149280476Y-118154761D01*
X149185238Y-118202380D01*
X148899523Y-118202380D01*
X148804285Y-118154761D01*
X148756666Y-118107142D01*
D11*
X144521428Y-117041428D02*
X144178571Y-117041428D01*
X144350000Y-117041428D02*
X144350000Y-116441428D01*
X144292857Y-116527142D01*
X144235714Y-116584285D01*
X144178571Y-116612857D01*
D12*
%TO.C,U2*%
X153590000Y-132720000D02*
X154850000Y-132720000D01*
X153590000Y-128960000D02*
X153590000Y-132720000D01*
X160410000Y-132720000D02*
X159150000Y-132720000D01*
X160410000Y-126710000D02*
X160410000Y-132720000D01*
%TO.C,R1*%
X154161258Y-113777500D02*
X153686742Y-113777500D01*
X154161258Y-114822500D02*
X153686742Y-114822500D01*
%TO.C,R4*%
X150252500Y-123989753D02*
X150252500Y-124464269D01*
X149207500Y-123989753D02*
X149207500Y-124464269D01*
%TO.C,R3*%
X144257500Y-123989753D02*
X144257500Y-124464269D01*
X145302500Y-123989753D02*
X145302500Y-124464269D01*
%TO.C,C5*%
X155450000Y-123330580D02*
X155450000Y-123049420D01*
X154430000Y-123330580D02*
X154430000Y-123049420D01*
%TO.C,R2*%
X145017258Y-113777500D02*
X144542742Y-113777500D01*
X145017258Y-114822500D02*
X144542742Y-114822500D01*
%TO.C,C4*%
X150995000Y-124388263D02*
X150995000Y-123865759D01*
X152465000Y-124388263D02*
X152465000Y-123865759D01*
%TO.C,R6*%
X147557500Y-123989753D02*
X147557500Y-124464269D01*
X148602500Y-123989753D02*
X148602500Y-124464269D01*
%TO.C,C2*%
X148476580Y-114810000D02*
X148195420Y-114810000D01*
X148476580Y-113790000D02*
X148195420Y-113790000D01*
%TO.C,BOOT1*%
X149108000Y-106885000D02*
X149108000Y-107910000D01*
X145183000Y-106035000D02*
X147933000Y-106035000D01*
X145183000Y-111135000D02*
X147933000Y-111135000D01*
X149108000Y-109260000D02*
X149108000Y-110285000D01*
X144008000Y-106885000D02*
X144008000Y-107910000D01*
X144008000Y-109260000D02*
X144008000Y-110285000D01*
%TO.C,D1*%
X157707000Y-121705000D02*
X156237000Y-121705000D01*
X156237000Y-121705000D02*
X156237000Y-123990000D01*
X157707000Y-123990000D02*
X157707000Y-121705000D01*
%TO.C,D2*%
X155409000Y-118337000D02*
X155409000Y-116867000D01*
X153124000Y-118337000D02*
X155409000Y-118337000D01*
X155409000Y-116867000D02*
X153124000Y-116867000D01*
D11*
%TO.C,J2*%
X151470000Y-135104000D02*
X143070000Y-135104000D01*
X151670000Y-136204000D02*
X142870000Y-136204000D01*
D13*
X147270000Y-129584000D02*
X147270000Y-135904000D01*
D11*
X142870000Y-129104000D02*
X142870000Y-136204000D01*
X151670000Y-129104000D02*
X151670000Y-136204000D01*
X142870000Y-129104000D02*
X151670000Y-129104000D01*
D12*
%TO.C,U1*%
X158953200Y-81318100D02*
X143306800Y-81318100D01*
X143306800Y-101561900D02*
X158953200Y-101561900D01*
X143306800Y-81318100D02*
X143306800Y-101561900D01*
X158953200Y-101561900D02*
X158953200Y-81318100D01*
X141909800Y-87778514D02*
G75*
G03*
X141909800Y-87778514I-381000J0D01*
G01*
%TO.C,R8*%
X157717258Y-118124500D02*
X157242742Y-118124500D01*
X157717258Y-117079500D02*
X157242742Y-117079500D01*
%TO.C,R5*%
X145907500Y-123989753D02*
X145907500Y-124464269D01*
X146952500Y-123989753D02*
X146952500Y-124464269D01*
%TO.C,C1*%
X157670580Y-113790000D02*
X157389420Y-113790000D01*
X157670580Y-114810000D02*
X157389420Y-114810000D01*
%TO.C,RESET1*%
X154327000Y-106035000D02*
X157077000Y-106035000D01*
X153152000Y-106885000D02*
X153152000Y-107910000D01*
X158252000Y-106885000D02*
X158252000Y-107910000D01*
X158252000Y-109260000D02*
X158252000Y-110285000D01*
X154327000Y-111135000D02*
X157077000Y-111135000D01*
X153152000Y-109260000D02*
X153152000Y-110285000D01*
%TO.C,C3*%
X142520000Y-124367591D02*
X142520000Y-124086431D01*
X143540000Y-124367591D02*
X143540000Y-124086431D01*
%TO.C,R7*%
X159526500Y-123427258D02*
X159526500Y-122952742D01*
X158481500Y-123427258D02*
X158481500Y-122952742D01*
%TO.C,D3*%
X144850000Y-119070000D02*
X145550000Y-119070000D01*
%TD*%
M02*
