M48
; DRILL file {KiCad 6.0.4} date to. 14. april 2022 kl. 12.42 +0200
; FORMAT={-:-/ absolute / metric / decimal}
; #@! TF.CreationDate,2022-04-14T12:42:05+02:00
; #@! TF.GenerationSoftware,Kicad,Pcbnew,6.0.4
; #@! TF.FileFunction,Plated,1,2,PTH
FMAT,2
METRIC
; #@! TA.AperFunction,Plated,PTH,ViaDrill
T1C0.400
; #@! TA.AperFunction,Plated,PTH,ComponentDrill
T2C0.600
; #@! TA.AperFunction,Plated,PTH,ComponentDrill
T3C1.000
%
G90
G05
T1
X141.4Y-116.8
X141.4Y-119.2
X141.478Y-111.76
X141.478Y-114.0
X141.478Y-121.6
X141.478Y-124.3
X141.5Y-109.728
X142.494Y-88.646
X143.002Y-126.492
X144.018Y-102.616
X144.018Y-119.126
X145.4Y-91.6
X145.5Y-90.17
X145.533Y-102.616
X145.6Y-93.6
X145.6Y-95.0
X146.0Y-97.6
X146.2Y-99.2
X146.558Y-112.776
X147.0Y-103.6
X147.2Y-98.4
X148.2Y-116.0
X148.6Y-119.0
X149.225Y-104.394
X149.4Y-116.2
X150.0Y-98.8
X150.2Y-102.6
X150.2Y-119.0
X150.899Y-104.4
X151.2Y-98.8
X152.4Y-127.014
X153.8Y-103.6
X155.0Y-102.6
X155.2Y-97.4
X155.702Y-112.776
X155.8Y-96.0
X156.0Y-89.0
X156.6Y-102.8
X156.718Y-125.476
X156.8Y-94.6
X158.0Y-120.2
X158.2Y-102.6
X158.6Y-130.8
X160.0Y-120.75
X160.4Y-119.2
X160.5Y-111.6
X160.5Y-114.3
X160.5Y-116.6
X160.528Y-108.966
T3
X139.7Y-85.095
X139.7Y-87.635
X139.7Y-90.175
X139.7Y-92.715
X139.7Y-95.255
X139.7Y-97.795
X139.7Y-100.335
X139.7Y-102.875
X139.7Y-105.415
X139.7Y-107.955
X139.7Y-110.495
X139.7Y-113.035
X139.7Y-115.575
X139.7Y-118.115
X139.7Y-120.655
X139.7Y-123.195
X139.7Y-125.735
X139.7Y-128.275
X139.7Y-130.815
X139.7Y-133.355
X162.56Y-85.095
X162.56Y-87.635
X162.56Y-90.175
X162.56Y-92.715
X162.56Y-95.255
X162.56Y-97.795
X162.56Y-100.335
X162.56Y-102.875
X162.56Y-105.415
X162.56Y-107.955
X162.56Y-110.495
X162.56Y-113.035
X162.56Y-115.575
X162.56Y-118.115
X162.56Y-120.655
X162.56Y-123.195
X162.56Y-125.735
X162.56Y-128.275
X162.56Y-130.815
X162.56Y-133.355
T2
G00X142.95Y-128.874
M15
G01X142.95Y-129.974
M16
G05
G00X142.95Y-133.304
M15
G01X142.95Y-133.904
M16
G05
G00X151.59Y-128.874
M15
G01X151.59Y-129.974
M16
G05
G00X151.59Y-133.304
M15
G01X151.59Y-133.904
M16
G05
T0
M30
