%TF.GenerationSoftware,KiCad,Pcbnew,6.0.4*%
%TF.CreationDate,2022-04-14T12:40:58+02:00*%
%TF.ProjectId,esp32-s2-mini-1,65737033-322d-4733-922d-6d696e692d31,rev?*%
%TF.SameCoordinates,Original*%
%TF.FileFunction,Soldermask,Bot*%
%TF.FilePolarity,Negative*%
%FSLAX46Y46*%
G04 Gerber Fmt 4.6, Leading zero omitted, Abs format (unit mm)*
G04 Created by KiCad (PCBNEW 6.0.4) date 2022-04-14 12:40:58*
%MOMM*%
%LPD*%
G01*
G04 APERTURE LIST*
G04 Aperture macros list*
%AMRoundRect*
0 Rectangle with rounded corners*
0 $1 Rounding radius*
0 $2 $3 $4 $5 $6 $7 $8 $9 X,Y pos of 4 corners*
0 Add a 4 corners polygon primitive as box body*
4,1,4,$2,$3,$4,$5,$6,$7,$8,$9,$2,$3,0*
0 Add four circle primitives for the rounded corners*
1,1,$1+$1,$2,$3*
1,1,$1+$1,$4,$5*
1,1,$1+$1,$6,$7*
1,1,$1+$1,$8,$9*
0 Add four rect primitives between the rounded corners*
20,1,$1+$1,$2,$3,$4,$5,0*
20,1,$1+$1,$4,$5,$6,$7,0*
20,1,$1+$1,$6,$7,$8,$9,0*
20,1,$1+$1,$8,$9,$2,$3,0*%
G04 Aperture macros list end*
%ADD10C,0.670000*%
%ADD11RoundRect,0.500000X0.000000X-0.300000X0.000000X-0.300000X0.000000X0.300000X0.000000X0.300000X0*%
%ADD12RoundRect,0.500000X0.000000X-0.600000X0.000000X-0.600000X0.000000X0.600000X0.000000X0.600000X0*%
%ADD13R,1.700000X1.700000*%
%ADD14O,1.700000X1.700000*%
G04 APERTURE END LIST*
D10*
%TO.C,J2*%
X150170000Y-129954000D03*
X144370000Y-129954000D03*
D11*
X151590000Y-133604000D03*
D12*
X142950000Y-129424000D03*
X151590000Y-129424000D03*
D11*
X142950000Y-133604000D03*
%TD*%
D13*
%TO.C,J1*%
X139700000Y-85095000D03*
D14*
X139700000Y-87635000D03*
X139700000Y-90175000D03*
X139700000Y-92715000D03*
X139700000Y-95255000D03*
X139700000Y-97795000D03*
X139700000Y-100335000D03*
X139700000Y-102875000D03*
X139700000Y-105415000D03*
X139700000Y-107955000D03*
X139700000Y-110495000D03*
X139700000Y-113035000D03*
X139700000Y-115575000D03*
X139700000Y-118115000D03*
X139700000Y-120655000D03*
X139700000Y-123195000D03*
X139700000Y-125735000D03*
X139700000Y-128275000D03*
X139700000Y-130815000D03*
X139700000Y-133355000D03*
%TD*%
D13*
%TO.C,J3*%
X162560000Y-85095000D03*
D14*
X162560000Y-87635000D03*
X162560000Y-90175000D03*
X162560000Y-92715000D03*
X162560000Y-95255000D03*
X162560000Y-97795000D03*
X162560000Y-100335000D03*
X162560000Y-102875000D03*
X162560000Y-105415000D03*
X162560000Y-107955000D03*
X162560000Y-110495000D03*
X162560000Y-113035000D03*
X162560000Y-115575000D03*
X162560000Y-118115000D03*
X162560000Y-120655000D03*
X162560000Y-123195000D03*
X162560000Y-125735000D03*
X162560000Y-128275000D03*
X162560000Y-130815000D03*
X162560000Y-133355000D03*
%TD*%
M02*
