%TF.GenerationSoftware,KiCad,Pcbnew,6.0.4*%
%TF.CreationDate,2022-04-14T12:40:58+02:00*%
%TF.ProjectId,esp32-s2-mini-1,65737033-322d-4733-922d-6d696e692d31,rev?*%
%TF.SameCoordinates,Original*%
%TF.FileFunction,Soldermask,Top*%
%TF.FilePolarity,Negative*%
%FSLAX46Y46*%
G04 Gerber Fmt 4.6, Leading zero omitted, Abs format (unit mm)*
G04 Created by KiCad (PCBNEW 6.0.4) date 2022-04-14 12:40:58*
%MOMM*%
%LPD*%
G01*
G04 APERTURE LIST*
G04 Aperture macros list*
%AMRoundRect*
0 Rectangle with rounded corners*
0 $1 Rounding radius*
0 $2 $3 $4 $5 $6 $7 $8 $9 X,Y pos of 4 corners*
0 Add a 4 corners polygon primitive as box body*
4,1,4,$2,$3,$4,$5,$6,$7,$8,$9,$2,$3,0*
0 Add four circle primitives for the rounded corners*
1,1,$1+$1,$2,$3*
1,1,$1+$1,$4,$5*
1,1,$1+$1,$6,$7*
1,1,$1+$1,$8,$9*
0 Add four rect primitives between the rounded corners*
20,1,$1+$1,$2,$3,$4,$5,0*
20,1,$1+$1,$4,$5,$6,$7,0*
20,1,$1+$1,$6,$7,$8,$9,0*
20,1,$1+$1,$8,$9,$2,$3,0*%
G04 Aperture macros list end*
%ADD10R,1.500000X2.000000*%
%ADD11R,3.800000X2.000000*%
%ADD12RoundRect,0.200000X0.200000X0.275000X-0.200000X0.275000X-0.200000X-0.275000X0.200000X-0.275000X0*%
%ADD13RoundRect,0.200000X-0.275000X0.200000X-0.275000X-0.200000X0.275000X-0.200000X0.275000X0.200000X0*%
%ADD14RoundRect,0.225000X0.250000X-0.225000X0.250000X0.225000X-0.250000X0.225000X-0.250000X-0.225000X0*%
%ADD15RoundRect,0.250000X0.475000X-0.250000X0.475000X0.250000X-0.475000X0.250000X-0.475000X-0.250000X0*%
%ADD16RoundRect,0.225000X0.225000X0.250000X-0.225000X0.250000X-0.225000X-0.250000X0.225000X-0.250000X0*%
%ADD17R,0.450000X1.000000*%
%ADD18R,0.600000X1.000000*%
%ADD19RoundRect,0.218750X-0.256250X0.218750X-0.256250X-0.218750X0.256250X-0.218750X0.256250X0.218750X0*%
%ADD20RoundRect,0.218750X0.218750X0.256250X-0.218750X0.256250X-0.218750X-0.256250X0.218750X-0.256250X0*%
%ADD21C,0.670000*%
%ADD22R,0.250000X1.450000*%
%ADD23R,0.300000X1.450000*%
%ADD24RoundRect,0.500000X0.000000X-0.300000X0.000000X-0.300000X0.000000X0.300000X0.000000X0.300000X0*%
%ADD25RoundRect,0.500000X0.000000X-0.600000X0.000000X-0.600000X0.000000X0.600000X0.000000X0.600000X0*%
%ADD26R,0.812800X0.406400*%
%ADD27R,0.406400X0.812800*%
%ADD28R,1.193800X1.193800*%
%ADD29R,0.812800X0.812800*%
%ADD30RoundRect,0.200000X0.275000X-0.200000X0.275000X0.200000X-0.275000X0.200000X-0.275000X-0.200000X0*%
%ADD31R,0.500000X1.000000*%
%ADD32R,0.800000X0.500000*%
%ADD33R,0.800000X0.300000*%
%ADD34R,0.500000X1.480000*%
%ADD35R,1.700000X1.700000*%
%ADD36O,1.700000X1.700000*%
G04 APERTURE END LIST*
D10*
%TO.C,U2*%
X159300000Y-127660000D03*
X157000000Y-127660000D03*
X154700000Y-127660000D03*
D11*
X157000000Y-133960000D03*
%TD*%
D12*
%TO.C,R1*%
X154749000Y-114300000D03*
X153099000Y-114300000D03*
%TD*%
D13*
%TO.C,R4*%
X149730000Y-123402011D03*
X149730000Y-125052011D03*
%TD*%
%TO.C,R3*%
X144780000Y-123402011D03*
X144780000Y-125052011D03*
%TD*%
D14*
%TO.C,C5*%
X154940000Y-123965000D03*
X154940000Y-122415000D03*
%TD*%
D12*
%TO.C,R2*%
X145605000Y-114300000D03*
X143955000Y-114300000D03*
%TD*%
D15*
%TO.C,C4*%
X151730000Y-125077011D03*
X151730000Y-123177011D03*
%TD*%
D13*
%TO.C,R6*%
X148080000Y-123402011D03*
X148080000Y-125052011D03*
%TD*%
D16*
%TO.C,C2*%
X149111000Y-114300000D03*
X147561000Y-114300000D03*
%TD*%
D17*
%TO.C,BOOT1*%
X149083000Y-108585000D03*
X144033000Y-108585000D03*
D18*
X144708000Y-106385000D03*
X144708000Y-110785000D03*
X148408000Y-106385000D03*
X148408000Y-110785000D03*
%TD*%
D19*
%TO.C,D1*%
X156972000Y-122402500D03*
X156972000Y-123977500D03*
%TD*%
D20*
%TO.C,D2*%
X154711500Y-117602000D03*
X153136500Y-117602000D03*
%TD*%
D21*
%TO.C,J2*%
X150170000Y-129954000D03*
X144370000Y-129954000D03*
D22*
X143895000Y-128504000D03*
X144695000Y-128504000D03*
X146020000Y-128504000D03*
X147020000Y-128504000D03*
X147520000Y-128504000D03*
X148520000Y-128504000D03*
X149845000Y-128504000D03*
X150645000Y-128504000D03*
D23*
X150370000Y-128504000D03*
X149570000Y-128504000D03*
D22*
X149020000Y-128504000D03*
X148020000Y-128504000D03*
X146520000Y-128504000D03*
X145520000Y-128504000D03*
D23*
X144970000Y-128504000D03*
X144170000Y-128504000D03*
D24*
X151590000Y-133604000D03*
D25*
X142950000Y-129424000D03*
X151590000Y-129424000D03*
D24*
X142950000Y-133604000D03*
%TD*%
D26*
%TO.C,U1*%
X144130001Y-87778514D03*
X144130001Y-88628515D03*
X144130001Y-89478515D03*
X144130001Y-90328514D03*
X144130001Y-91178515D03*
X144130001Y-92028515D03*
X144130001Y-92878514D03*
X144130001Y-93728515D03*
X144130001Y-94578515D03*
X144130001Y-95428514D03*
X144130001Y-96278515D03*
X144130001Y-97128515D03*
X144130001Y-97978514D03*
X144130001Y-98828515D03*
X144130001Y-99678515D03*
D27*
X145179999Y-100728513D03*
X146030000Y-100728513D03*
X146880001Y-100728513D03*
X147729999Y-100728513D03*
X148580000Y-100728513D03*
X149430001Y-100728513D03*
X150279999Y-100728513D03*
X151130000Y-100728513D03*
X151980001Y-100728513D03*
X152829999Y-100728513D03*
X153680000Y-100728513D03*
X154530001Y-100728513D03*
X155379999Y-100728513D03*
X156230000Y-100728513D03*
X157080001Y-100728513D03*
D26*
X158129999Y-99678515D03*
X158129999Y-98828515D03*
X158129999Y-97978514D03*
X158129999Y-97128515D03*
X158129999Y-96278515D03*
X158129999Y-95428514D03*
X158129999Y-94578515D03*
X158129999Y-93728515D03*
X158129999Y-92878514D03*
X158129999Y-92028515D03*
X158129999Y-91178515D03*
X158129999Y-90328514D03*
X158129999Y-89478515D03*
X158129999Y-88628515D03*
X158129999Y-87778514D03*
D27*
X157080001Y-86728516D03*
X156230000Y-86728516D03*
X155379999Y-86728516D03*
X154530001Y-86728516D03*
X153680000Y-86728516D03*
X152829999Y-86728516D03*
X151980001Y-86728516D03*
X151130000Y-86728516D03*
X150279999Y-86728516D03*
X149430001Y-86728516D03*
X148580000Y-86728516D03*
X147729999Y-86728516D03*
X146880001Y-86728516D03*
X146030000Y-86728516D03*
X145179999Y-86728516D03*
D28*
X151130000Y-93728515D03*
D29*
X144130001Y-86728516D03*
X144130001Y-100728516D03*
X158129999Y-100728516D03*
X158129999Y-86728516D03*
D28*
X149480000Y-92078515D03*
X151130000Y-92078515D03*
X152780000Y-92078515D03*
X149480000Y-93728515D03*
X152780000Y-93728515D03*
X149480000Y-95378515D03*
X151130000Y-95378515D03*
X152780000Y-95378515D03*
%TD*%
D12*
%TO.C,R8*%
X158305000Y-117602000D03*
X156655000Y-117602000D03*
%TD*%
D13*
%TO.C,R5*%
X146430000Y-123402011D03*
X146430000Y-125052011D03*
%TD*%
D16*
%TO.C,C1*%
X158305000Y-114300000D03*
X156755000Y-114300000D03*
%TD*%
D17*
%TO.C,RESET1*%
X153177000Y-108585000D03*
X158227000Y-108585000D03*
D18*
X153852000Y-106385000D03*
X153852000Y-110785000D03*
X157552000Y-106385000D03*
X157552000Y-110785000D03*
%TD*%
D14*
%TO.C,C3*%
X143030000Y-125002011D03*
X143030000Y-123452011D03*
%TD*%
D30*
%TO.C,R7*%
X159004000Y-124015000D03*
X159004000Y-122365000D03*
%TD*%
D31*
%TO.C,D3*%
X146050000Y-116840000D03*
D32*
X145200000Y-116770000D03*
D33*
X145200000Y-117670000D03*
D32*
X145200000Y-118570000D03*
X146900000Y-118570000D03*
D33*
X146900000Y-117670000D03*
D34*
X146050000Y-118260000D03*
D32*
X146900000Y-116770000D03*
%TD*%
D35*
%TO.C,J1*%
X139700000Y-85095000D03*
D36*
X139700000Y-87635000D03*
X139700000Y-90175000D03*
X139700000Y-92715000D03*
X139700000Y-95255000D03*
X139700000Y-97795000D03*
X139700000Y-100335000D03*
X139700000Y-102875000D03*
X139700000Y-105415000D03*
X139700000Y-107955000D03*
X139700000Y-110495000D03*
X139700000Y-113035000D03*
X139700000Y-115575000D03*
X139700000Y-118115000D03*
X139700000Y-120655000D03*
X139700000Y-123195000D03*
X139700000Y-125735000D03*
X139700000Y-128275000D03*
X139700000Y-130815000D03*
X139700000Y-133355000D03*
%TD*%
D35*
%TO.C,J3*%
X162560000Y-85095000D03*
D36*
X162560000Y-87635000D03*
X162560000Y-90175000D03*
X162560000Y-92715000D03*
X162560000Y-95255000D03*
X162560000Y-97795000D03*
X162560000Y-100335000D03*
X162560000Y-102875000D03*
X162560000Y-105415000D03*
X162560000Y-107955000D03*
X162560000Y-110495000D03*
X162560000Y-113035000D03*
X162560000Y-115575000D03*
X162560000Y-118115000D03*
X162560000Y-120655000D03*
X162560000Y-123195000D03*
X162560000Y-125735000D03*
X162560000Y-128275000D03*
X162560000Y-130815000D03*
X162560000Y-133355000D03*
%TD*%
M02*
